<?xml version="1.0" encoding="us-ascii" standalone="no"?><svg xmlns="http://www.w3.org/2000/svg" xmlns:xlink="http://www.w3.org/1999/xlink" contentStyleType="text/css" height="980px" preserveAspectRatio="none" style="width:1490px;height:980px;background:#FFFFFF;" version="1.1" viewBox="0 0 1490 980" width="1490px" zoomAndPan="magnify"><defs><filter height="1" id="b14yr74jrsm4lb0" width="1" x="0" y="0"><feFlood flood-color="#FFFF00" result="flood"/><feComposite in="SourceGraphic" in2="flood" operator="over"/></filter></defs><g><text fill="#000000" font-family="sans-serif" font-size="14" font-weight="bold" lengthAdjust="spacing" textLength="346" x="565" y="25.1074">Terminal Calypso Certificate API 0.1.+ (2024-02-22)</text><rect fill="#DDDDDD" height="65.8633" id="_legend" rx="7.5" ry="7.5" style="stroke:#000000;stroke-width:1.0;" width="178" x="649" y="51.6211"/><text fill="#000000" font-family="sans-serif" font-size="14" lengthAdjust="spacing" text-decoration="underline" textLength="88" x="654" y="71.7285">Colors legend</text><text fill="#000000" font-family="sans-serif" font-size="14" lengthAdjust="spacing" textLength="4" x="746" y="71.7285">:</text><ellipse cx="659.5" cy="86.3633" fill="#000000" rx="2.5" ry="2.5" style="stroke:#000000;stroke-width:0.0;"/><text fill="#000000" font-family="sans-serif" font-size="14" lengthAdjust="spacing" text-decoration="underline" textLength="148" x="666" y="90.3496">External API references</text><text fill="#000000" font-family="sans-serif" font-size="14" lengthAdjust="spacing" textLength="4" x="818" y="90.3496">:</text><rect fill="#000000" height="3.5" style="stroke:#000000;stroke-width:0.0;" width="3.5" x="663" y="102.4844"/><text fill="#000000" filter="url(#b14yr74jrsm4lb0)" font-family="sans-serif" font-size="14" lengthAdjust="spacing" textLength="79" x="670" y="108.9707">java.security</text><!--cluster api--><g id="cluster_api"><path d="M8.5,136.498 L137.5,136.498 A3.75,3.75 0 0 1 140,138.998 L147,161.1191 L1480.5,161.1191 A2.5,2.5 0 0 1 1483,163.6191 L1483,971.498 A2.5,2.5 0 0 1 1480.5,973.998 L8.5,973.998 A2.5,2.5 0 0 1 6,971.498 L6,138.998 A2.5,2.5 0 0 1 8.5,136.498 " fill="#F8F9F9" style="stroke:#000000;stroke-width:1.5;"/><line style="stroke:#000000;stroke-width:1.5;" x1="6" x2="147" y1="161.1191" y2="161.1191"/><text fill="#000000" font-family="sans-serif" font-size="14" font-weight="bold" lengthAdjust="spacing" textLength="128" x="10" y="153.6055">calypso.certificate</text></g><!--cluster spi--><g id="cluster_spi"><path d="M965.5,379.498 L987.5,379.498 A3.75,3.75 0 0 1 990,381.998 L997,404.1191 L1456.5,404.1191 A2.5,2.5 0 0 1 1459,406.6191 L1459,496.998 A2.5,2.5 0 0 1 1456.5,499.498 L965.5,499.498 A2.5,2.5 0 0 1 963,496.998 L963,381.998 A2.5,2.5 0 0 1 965.5,379.498 " fill="#F2F3F4" style="stroke:#000000;stroke-width:1.5;"/><line style="stroke:#000000;stroke-width:1.5;" x1="963" x2="997" y1="404.1191" y2="404.1191"/><text fill="#000000" font-family="sans-serif" font-size="14" font-weight="bold" lengthAdjust="spacing" textLength="21" x="967" y="396.6055">spi</text></g><!--class ApiProperties--><g id="elem_ApiProperties"><rect codeLine="61" fill="#E9F7EF" height="66.6211" id="ApiProperties" rx="2.5" ry="2.5" style="stroke:#27AE60;stroke-width:2.0;" width="277" x="1189.5" y="210.498"/><ellipse cx="1204.5" cy="226.498" fill="#ADD1B2" rx="11" ry="11" style="stroke:#181818;stroke-width:1.0;"/><path d="M1207.2656,222.373 Q1207.4219,222.1543 1207.6094,222.0449 Q1207.7969,221.9355 1208.0156,221.9355 Q1208.3906,221.9355 1208.625,222.2012 Q1208.8594,222.4512 1208.8594,223.0605 L1208.8594,224.5137 Q1208.8594,225.123 1208.625,225.3887 Q1208.3906,225.6543 1208.0156,225.6543 Q1207.6719,225.6543 1207.4688,225.4512 Q1207.2656,225.2637 1207.1563,224.748 Q1207.1094,224.3887 1206.9219,224.2012 Q1206.5938,223.8262 1205.9844,223.6074 Q1205.375,223.3887 1204.75,223.3887 Q1203.9844,223.3887 1203.3438,223.7168 Q1202.7188,224.0449 1202.2188,224.7949 Q1201.7344,225.5449 1201.7344,226.5762 L1201.7344,227.6699 Q1201.7344,228.9043 1202.625,229.7324 Q1203.5156,230.5449 1205.1094,230.5449 Q1206.0469,230.5449 1206.7031,230.2949 Q1207.0938,230.1387 1207.5156,229.7012 Q1207.7813,229.4355 1207.9219,229.3574 Q1208.0781,229.2793 1208.2813,229.2793 Q1208.6094,229.2793 1208.8594,229.5449 Q1209.125,229.7949 1209.125,230.1387 Q1209.125,230.4824 1208.7813,230.8887 Q1208.2813,231.4668 1207.4844,231.7949 Q1206.4063,232.248 1205.1094,232.248 Q1203.5938,232.248 1202.3906,231.623 Q1201.4063,231.123 1200.7188,230.0605 Q1200.0313,228.9824 1200.0313,227.7012 L1200.0313,226.5449 Q1200.0313,225.2168 1200.6406,224.0762 Q1201.2656,222.9199 1202.3594,222.3105 Q1203.4531,221.6855 1204.6875,221.6855 Q1205.4219,221.6855 1206.0625,221.8574 Q1206.7188,222.0137 1207.2656,222.373 Z " fill="#000000"/><ellipse cx="1223.5" cy="225.998" fill="#84BE84" rx="3" ry="3" style="stroke:#038048;stroke-width:1.0;"/><text fill="#000000" font-family="sans-serif" font-size="14" font-weight="bold" lengthAdjust="spacing" textLength="30" x="1229.5" y="232.2949">final</text><text fill="#000000" font-family="sans-serif" font-size="14" lengthAdjust="spacing" textLength="200" x="1263.5" y="232.2949">CalypsoCertificateApiProperties</text><line style="stroke:#27AE60;stroke-width:2.0;" x1="1190.5" x2="1465.5" y1="242.498" y2="242.498"/><ellipse cx="1200.5" cy="257.3086" fill="none" rx="3" ry="3" style="stroke:#038048;stroke-width:1.0;"/><text fill="#000000" font-family="sans-serif" font-size="14" font-weight="bold" lengthAdjust="spacing" text-decoration="underline" textLength="30" x="1209.5" y="261.6055">final</text><text fill="#000000" font-family="sans-serif" font-size="14" lengthAdjust="spacing" text-decoration="underline" textLength="101" x="1243.5" y="261.6055">String VERSION</text><line style="stroke:#27AE60;stroke-width:2.0;" x1="1190.5" x2="1465.5" y1="269.1191" y2="269.1191"/></g><!--class CalypsoCertificateApiFactory--><g id="elem_CalypsoCertificateApiFactory"><rect codeLine="64" fill="#EBF5FB" height="141.1055" id="CalypsoCertificateApiFactory" rx="2.5" ry="2.5" style="stroke:#3498DB;stroke-width:2.0;" width="1046" x="108" y="173.498"/><ellipse cx="529.75" cy="189.498" fill="#B4A7E5" rx="11" ry="11" style="stroke:#181818;stroke-width:1.0;"/><path d="M530.7031,186.1387 L530.7031,192.7949 L532.4219,192.7949 Q533.0313,192.7949 533.2969,193.0293 Q533.5625,193.2637 533.5625,193.6543 Q533.5625,194.0293 533.2969,194.2637 Q533.0313,194.498 532.4219,194.498 L527.2813,194.498 Q526.6719,194.498 526.4063,194.2637 Q526.1406,194.0293 526.1406,193.6387 Q526.1406,193.2637 526.4063,193.0293 Q526.6719,192.7949 527.2813,192.7949 L529,192.7949 L529,186.1387 L527.2813,186.1387 Q526.6719,186.1387 526.4063,185.9043 Q526.1406,185.6699 526.1406,185.2793 Q526.1406,184.9043 526.4063,184.6699 Q526.6719,184.4355 527.2813,184.4355 L532.4219,184.4355 Q533.0313,184.4355 533.2969,184.6699 Q533.5625,184.9043 533.5625,185.2793 Q533.5625,185.6699 533.2969,185.9043 Q533.0313,186.1387 532.4219,186.1387 L530.7031,186.1387 Z " fill="#000000"/><ellipse cx="555.25" cy="188.998" fill="#84BE84" rx="3" ry="3" style="stroke:#038048;stroke-width:1.0;"/><text fill="#000000" font-family="sans-serif" font-size="14" font-style="italic" lengthAdjust="spacing" textLength="183" x="561.25" y="195.2949">CalypsoCertificateApiFactory</text><line style="stroke:#3498DB;stroke-width:2.0;" x1="109" x2="1153" y1="205.498" y2="205.498"/><line style="stroke:#3498DB;stroke-width:2.0;" x1="109" x2="1153" y1="213.498" y2="213.498"/><ellipse cx="119" cy="228.3086" fill="#84BE84" rx="3" ry="3" style="stroke:#038048;stroke-width:1.0;"/><text fill="#000000" font-family="sans-serif" font-size="14" lengthAdjust="spacing" textLength="336" x="128" y="232.6055">CalypsoCertificateStore getCalypsoCertificateStore ()</text><text fill="#000000" font-family="sans-serif" font-size="14" lengthAdjust="spacing" textLength="4" x="128" y="251.2266">&#160;</text><ellipse cx="119" cy="265.5508" fill="#84BE84" rx="3" ry="3" style="stroke:#038048;stroke-width:1.0;"/><text fill="#000000" font-family="sans-serif" font-size="14" lengthAdjust="spacing" textLength="981" x="128" y="269.8477">CalypsoCaCertificateV1Generator createCalypsoCaCertificateV1Generator (byte[] issuerPublicKeyReference, CalypsoCertificateSigner caCertificateSigner)</text><text fill="#000000" font-family="sans-serif" font-size="14" lengthAdjust="spacing" textLength="4" x="128" y="288.4688">&#160;</text><ellipse cx="119" cy="302.793" fill="#84BE84" rx="3" ry="3" style="stroke:#038048;stroke-width:1.0;"/><text fill="#000000" font-family="sans-serif" font-size="14" lengthAdjust="spacing" textLength="1020" x="128" y="307.0898">CalypsoCardCertificateV1Generator createCalypsoCardCertificateV1Generator (byte[] issuerPublicKeyReference, CalypsoCertificateSigner cardCertificateSigner)</text></g><!--class CalypsoCertificateStore--><g id="elem_CalypsoCertificateStore"><rect codeLine="71" fill="#EBF5FB" height="103.8633" id="CalypsoCertificateStore" rx="2.5" ry="2.5" style="stroke:#3498DB;stroke-width:2.0;" width="680" x="22" y="397.998"/><ellipse cx="277.75" cy="413.998" fill="#B4A7E5" rx="11" ry="11" style="stroke:#181818;stroke-width:1.0;"/><path d="M278.7031,410.6387 L278.7031,417.2949 L280.4219,417.2949 Q281.0313,417.2949 281.2969,417.5293 Q281.5625,417.7637 281.5625,418.1543 Q281.5625,418.5293 281.2969,418.7637 Q281.0313,418.998 280.4219,418.998 L275.2813,418.998 Q274.6719,418.998 274.4063,418.7637 Q274.1406,418.5293 274.1406,418.1387 Q274.1406,417.7637 274.4063,417.5293 Q274.6719,417.2949 275.2813,417.2949 L277,417.2949 L277,410.6387 L275.2813,410.6387 Q274.6719,410.6387 274.4063,410.4043 Q274.1406,410.1699 274.1406,409.7793 Q274.1406,409.4043 274.4063,409.1699 Q274.6719,408.9355 275.2813,408.9355 L280.4219,408.9355 Q281.0313,408.9355 281.2969,409.1699 Q281.5625,409.4043 281.5625,409.7793 Q281.5625,410.1699 281.2969,410.4043 Q281.0313,410.6387 280.4219,410.6387 L278.7031,410.6387 Z " fill="#000000"/><ellipse cx="303.25" cy="413.498" fill="#84BE84" rx="3" ry="3" style="stroke:#038048;stroke-width:1.0;"/><text fill="#000000" font-family="sans-serif" font-size="14" font-style="italic" lengthAdjust="spacing" textLength="149" x="309.25" y="419.7949">CalypsoCertificateStore</text><line style="stroke:#3498DB;stroke-width:2.0;" x1="23" x2="701" y1="429.998" y2="429.998"/><line style="stroke:#3498DB;stroke-width:2.0;" x1="23" x2="701" y1="437.998" y2="437.998"/><ellipse cx="33" cy="452.8086" fill="#84BE84" rx="3" ry="3" style="stroke:#038048;stroke-width:1.0;"/><text fill="#000000" font-family="sans-serif" font-size="14" lengthAdjust="spacing" textLength="466" x="42" y="457.1055">CalypsoCertificateStore addPcaPublicKey (byte[] pcaPublicKeyReference,</text><text fill="#000000" filter="url(#b14yr74jrsm4lb0)" font-family="sans-serif" font-size="14" lengthAdjust="spacing" textLength="90" x="512" y="457.1055">RSAPublicKey</text><text fill="#000000" font-family="sans-serif" font-size="14" lengthAdjust="spacing" textLength="90" x="606" y="457.1055">pcaPublicKey)</text><text fill="#000000" font-family="sans-serif" font-size="14" lengthAdjust="spacing" textLength="4" x="42" y="475.7266">&#160;</text><ellipse cx="33" cy="490.0508" fill="#84BE84" rx="3" ry="3" style="stroke:#038048;stroke-width:1.0;"/><text fill="#000000" font-family="sans-serif" font-size="14" lengthAdjust="spacing" textLength="442" x="42" y="494.3477">CalypsoCertificateStore addCalypsoCaCertificate (byte[] caCertificate)</text></g><!--class CalypsoCaCertificateV1Generator--><g id="elem_CalypsoCaCertificateV1Generator"><rect codeLine="81" fill="#EBF5FB" height="196.9688" id="CalypsoCaCertificateV1Generator" rx="2.5" ry="2.5" style="stroke:#3498DB;stroke-width:2.0;" width="724" x="174" y="572.498"/><ellipse cx="418.75" cy="588.498" fill="#B4A7E5" rx="11" ry="11" style="stroke:#181818;stroke-width:1.0;"/><path d="M419.7031,585.1387 L419.7031,591.7949 L421.4219,591.7949 Q422.0313,591.7949 422.2969,592.0293 Q422.5625,592.2637 422.5625,592.6543 Q422.5625,593.0293 422.2969,593.2637 Q422.0313,593.498 421.4219,593.498 L416.2813,593.498 Q415.6719,593.498 415.4063,593.2637 Q415.1406,593.0293 415.1406,592.6387 Q415.1406,592.2637 415.4063,592.0293 Q415.6719,591.7949 416.2813,591.7949 L418,591.7949 L418,585.1387 L416.2813,585.1387 Q415.6719,585.1387 415.4063,584.9043 Q415.1406,584.6699 415.1406,584.2793 Q415.1406,583.9043 415.4063,583.6699 Q415.6719,583.4355 416.2813,583.4355 L421.4219,583.4355 Q422.0313,583.4355 422.2969,583.6699 Q422.5625,583.9043 422.5625,584.2793 Q422.5625,584.6699 422.2969,584.9043 Q422.0313,585.1387 421.4219,585.1387 L419.7031,585.1387 Z " fill="#000000"/><ellipse cx="444.25" cy="587.998" fill="#84BE84" rx="3" ry="3" style="stroke:#038048;stroke-width:1.0;"/><text fill="#000000" font-family="sans-serif" font-size="14" font-style="italic" lengthAdjust="spacing" textLength="215" x="450.25" y="594.2949">CalypsoCaCertificateV1Generator</text><line style="stroke:#3498DB;stroke-width:2.0;" x1="175" x2="897" y1="604.498" y2="604.498"/><line style="stroke:#3498DB;stroke-width:2.0;" x1="175" x2="897" y1="612.498" y2="612.498"/><ellipse cx="185" cy="627.3086" fill="#84BE84" rx="3" ry="3" style="stroke:#038048;stroke-width:1.0;"/><text fill="#000000" font-family="sans-serif" font-size="14" lengthAdjust="spacing" textLength="518" x="194" y="631.6055">CalypsoCaCertificateV1Generator withCaPublicKey (byte[] caPublicKeyReference,</text><text fill="#000000" filter="url(#b14yr74jrsm4lb0)" font-family="sans-serif" font-size="14" lengthAdjust="spacing" textLength="90" x="716" y="631.6055">RSAPublicKey</text><text fill="#000000" font-family="sans-serif" font-size="14" lengthAdjust="spacing" textLength="82" x="810" y="631.6055">caPublicKey)</text><ellipse cx="185" cy="645.9297" fill="#84BE84" rx="3" ry="3" style="stroke:#038048;stroke-width:1.0;"/><text fill="#000000" font-family="sans-serif" font-size="14" lengthAdjust="spacing" textLength="480" x="194" y="650.2266">CalypsoCaCertificateV1Generator withStartDate (int year, int month, int day)</text><ellipse cx="185" cy="664.5508" fill="#84BE84" rx="3" ry="3" style="stroke:#038048;stroke-width:1.0;"/><text fill="#000000" font-family="sans-serif" font-size="14" lengthAdjust="spacing" textLength="475" x="194" y="668.8477">CalypsoCaCertificateV1Generator withEndDate (int year, int month, int day)</text><ellipse cx="185" cy="683.1719" fill="#84BE84" rx="3" ry="3" style="stroke:#038048;stroke-width:1.0;"/><text fill="#000000" font-family="sans-serif" font-size="14" lengthAdjust="spacing" textLength="515" x="194" y="687.4688">CalypsoCaCertificateV1Generator withTargetAid (byte[] aid, boolean isTruncated)</text><ellipse cx="185" cy="701.793" fill="#84BE84" rx="3" ry="3" style="stroke:#038048;stroke-width:1.0;"/><text fill="#000000" font-family="sans-serif" font-size="14" lengthAdjust="spacing" textLength="401" x="194" y="706.0898">CalypsoCaCertificateV1Generator withCaRights (byte caRights)</text><ellipse cx="185" cy="720.4141" fill="#84BE84" rx="3" ry="3" style="stroke:#038048;stroke-width:1.0;"/><text fill="#000000" font-family="sans-serif" font-size="14" lengthAdjust="spacing" textLength="401" x="194" y="724.7109">CalypsoCaCertificateV1Generator withCaScope (byte caScope)</text><text fill="#000000" font-family="sans-serif" font-size="14" lengthAdjust="spacing" textLength="4" x="194" y="743.332">&#160;</text><ellipse cx="185" cy="757.6563" fill="#84BE84" rx="3" ry="3" style="stroke:#038048;stroke-width:1.0;"/><text fill="#000000" font-family="sans-serif" font-size="14" lengthAdjust="spacing" textLength="110" x="194" y="761.9531">byte[] generate ()</text></g><!--class CalypsoCardCertificateV1Generator--><g id="elem_CalypsoCardCertificateV1Generator"><rect codeLine="91" fill="#EBF5FB" height="215.5898" id="CalypsoCardCertificateV1Generator" rx="2.5" ry="2.5" style="stroke:#3498DB;stroke-width:2.0;" width="534" x="933" y="562.998"/><ellipse cx="1076.25" cy="578.998" fill="#B4A7E5" rx="11" ry="11" style="stroke:#181818;stroke-width:1.0;"/><path d="M1077.2031,575.6387 L1077.2031,582.2949 L1078.9219,582.2949 Q1079.5313,582.2949 1079.7969,582.5293 Q1080.0625,582.7637 1080.0625,583.1543 Q1080.0625,583.5293 1079.7969,583.7637 Q1079.5313,583.998 1078.9219,583.998 L1073.7813,583.998 Q1073.1719,583.998 1072.9063,583.7637 Q1072.6406,583.5293 1072.6406,583.1387 Q1072.6406,582.7637 1072.9063,582.5293 Q1073.1719,582.2949 1073.7813,582.2949 L1075.5,582.2949 L1075.5,575.6387 L1073.7813,575.6387 Q1073.1719,575.6387 1072.9063,575.4043 Q1072.6406,575.1699 1072.6406,574.7793 Q1072.6406,574.4043 1072.9063,574.1699 Q1073.1719,573.9355 1073.7813,573.9355 L1078.9219,573.9355 Q1079.5313,573.9355 1079.7969,574.1699 Q1080.0625,574.4043 1080.0625,574.7793 Q1080.0625,575.1699 1079.7969,575.4043 Q1079.5313,575.6387 1078.9219,575.6387 L1077.2031,575.6387 Z " fill="#000000"/><ellipse cx="1101.75" cy="578.498" fill="#84BE84" rx="3" ry="3" style="stroke:#038048;stroke-width:1.0;"/><text fill="#000000" font-family="sans-serif" font-size="14" font-style="italic" lengthAdjust="spacing" textLength="228" x="1107.75" y="584.7949">CalypsoCardCertificateV1Generator</text><line style="stroke:#3498DB;stroke-width:2.0;" x1="934" x2="1466" y1="594.998" y2="594.998"/><line style="stroke:#3498DB;stroke-width:2.0;" x1="934" x2="1466" y1="602.998" y2="602.998"/><ellipse cx="944" cy="617.8086" fill="#84BE84" rx="3" ry="3" style="stroke:#038048;stroke-width:1.0;"/><text fill="#000000" font-family="sans-serif" font-size="14" lengthAdjust="spacing" textLength="492" x="953" y="622.1055">CalypsoCardCertificateV1Generator withCardPublicKey (byte[] cardPublicKey)</text><ellipse cx="944" cy="636.4297" fill="#84BE84" rx="3" ry="3" style="stroke:#038048;stroke-width:1.0;"/><text fill="#000000" font-family="sans-serif" font-size="14" lengthAdjust="spacing" textLength="493" x="953" y="640.7266">CalypsoCardCertificateV1Generator withStartDate (int year, int month, int day)</text><ellipse cx="944" cy="655.0508" fill="#84BE84" rx="3" ry="3" style="stroke:#038048;stroke-width:1.0;"/><text fill="#000000" font-family="sans-serif" font-size="14" lengthAdjust="spacing" textLength="488" x="953" y="659.3477">CalypsoCardCertificateV1Generator withEndDate (int year, int month, int day)</text><ellipse cx="944" cy="673.6719" fill="#84BE84" rx="3" ry="3" style="stroke:#038048;stroke-width:1.0;"/><text fill="#000000" font-family="sans-serif" font-size="14" lengthAdjust="spacing" textLength="379" x="953" y="677.9688">CalypsoCardCertificateV1Generator withCardAid (byte[] aid)</text><ellipse cx="944" cy="692.293" fill="#84BE84" rx="3" ry="3" style="stroke:#038048;stroke-width:1.0;"/><text fill="#000000" font-family="sans-serif" font-size="14" lengthAdjust="spacing" textLength="508" x="953" y="696.5898">CalypsoCardCertificateV1Generator withCardSerialNumber (byte[] serialNumber)</text><ellipse cx="944" cy="710.9141" fill="#84BE84" rx="3" ry="3" style="stroke:#038048;stroke-width:1.0;"/><text fill="#000000" font-family="sans-serif" font-size="14" lengthAdjust="spacing" textLength="476" x="953" y="715.2109">CalypsoCardCertificateV1Generator withCardStartupInfo (byte[] startupInfo)</text><ellipse cx="944" cy="729.5352" fill="#84BE84" rx="3" ry="3" style="stroke:#038048;stroke-width:1.0;"/><text fill="#000000" font-family="sans-serif" font-size="14" lengthAdjust="spacing" textLength="355" x="953" y="733.832">CalypsoCardCertificateV1Generator withIndex (int index)</text><text fill="#000000" font-family="sans-serif" font-size="14" lengthAdjust="spacing" textLength="4" x="953" y="752.4531">&#160;</text><ellipse cx="944" cy="766.7773" fill="#84BE84" rx="3" ry="3" style="stroke:#038048;stroke-width:1.0;"/><text fill="#000000" font-family="sans-serif" font-size="14" lengthAdjust="spacing" textLength="110" x="953" y="771.0742">byte[] generate ()</text></g><!--class CertificateSigningException--><g id="elem_CertificateSigningException"><rect codeLine="102" fill="#E9F7EF" height="100.4844" id="CertificateSigningException" rx="2.5" ry="2.5" style="stroke:#27AE60;stroke-width:2.0;" width="426" x="846" y="857.998"/><ellipse cx="946.25" cy="881.6191" fill="#ADD1B2" rx="11" ry="11" style="stroke:#181818;stroke-width:1.0;"/><path d="M949.0156,877.4941 Q949.1719,877.2754 949.3594,877.166 Q949.5469,877.0566 949.7656,877.0566 Q950.1406,877.0566 950.375,877.3223 Q950.6094,877.5723 950.6094,878.1816 L950.6094,879.6348 Q950.6094,880.2441 950.375,880.5098 Q950.1406,880.7754 949.7656,880.7754 Q949.4219,880.7754 949.2188,880.5723 Q949.0156,880.3848 948.9063,879.8691 Q948.8594,879.5098 948.6719,879.3223 Q948.3438,878.9473 947.7344,878.7285 Q947.125,878.5098 946.5,878.5098 Q945.7344,878.5098 945.0938,878.8379 Q944.4688,879.166 943.9688,879.916 Q943.4844,880.666 943.4844,881.6973 L943.4844,882.791 Q943.4844,884.0254 944.375,884.8535 Q945.2656,885.666 946.8594,885.666 Q947.7969,885.666 948.4531,885.416 Q948.8438,885.2598 949.2656,884.8223 Q949.5313,884.5566 949.6719,884.4785 Q949.8281,884.4004 950.0313,884.4004 Q950.3594,884.4004 950.6094,884.666 Q950.875,884.916 950.875,885.2598 Q950.875,885.6035 950.5313,886.0098 Q950.0313,886.5879 949.2344,886.916 Q948.1563,887.3691 946.8594,887.3691 Q945.3438,887.3691 944.1406,886.7441 Q943.1563,886.2441 942.4688,885.1816 Q941.7813,884.1035 941.7813,882.8223 L941.7813,881.666 Q941.7813,880.3379 942.3906,879.1973 Q943.0156,878.041 944.1094,877.4316 Q945.2031,876.8066 946.4375,876.8066 Q947.1719,876.8066 947.8125,876.9785 Q948.4688,877.1348 949.0156,877.4941 Z " fill="#000000"/><ellipse cx="971.75" cy="881.1191" fill="#84BE84" rx="3" ry="3" style="stroke:#038048;stroke-width:1.0;"/><text fill="#000000" font-family="sans-serif" font-size="14" lengthAdjust="spacing" textLength="129" x="1016.25" y="878.1055">&#171;RuntimeException&#187;</text><text fill="#000000" font-family="sans-serif" font-size="14" font-weight="bold" lengthAdjust="spacing" textLength="30" x="977.75" y="896.7266">final</text><text fill="#000000" font-family="sans-serif" font-size="14" lengthAdjust="spacing" textLength="172" x="1011.75" y="896.7266">CertificateSigningException</text><line style="stroke:#27AE60;stroke-width:2.0;" x1="847" x2="1271" y1="905.2402" y2="905.2402"/><line style="stroke:#27AE60;stroke-width:2.0;" x1="847" x2="1271" y1="913.2402" y2="913.2402"/><ellipse cx="857" cy="928.0508" fill="#84BE84" rx="3" ry="3" style="stroke:#038048;stroke-width:1.0;"/><text fill="#000000" font-family="sans-serif" font-size="14" lengthAdjust="spacing" textLength="284" x="866" y="932.3477">CertificateSigningException (String message)</text><ellipse cx="857" cy="946.6719" fill="#84BE84" rx="3" ry="3" style="stroke:#038048;stroke-width:1.0;"/><text fill="#000000" font-family="sans-serif" font-size="14" lengthAdjust="spacing" textLength="400" x="866" y="950.9688">CertificateSigningException (String message, Throwable cause)</text></g><!--class CertificateConsistencyException--><g id="elem_CertificateConsistencyException"><rect codeLine="106" fill="#E9F7EF" height="100.4844" id="CertificateConsistencyException" rx="2.5" ry="2.5" style="stroke:#27AE60;stroke-width:2.0;" width="456" x="308" y="857.998"/><ellipse cx="408.25" cy="881.6191" fill="#ADD1B2" rx="11" ry="11" style="stroke:#181818;stroke-width:1.0;"/><path d="M411.0156,877.4941 Q411.1719,877.2754 411.3594,877.166 Q411.5469,877.0566 411.7656,877.0566 Q412.1406,877.0566 412.375,877.3223 Q412.6094,877.5723 412.6094,878.1816 L412.6094,879.6348 Q412.6094,880.2441 412.375,880.5098 Q412.1406,880.7754 411.7656,880.7754 Q411.4219,880.7754 411.2188,880.5723 Q411.0156,880.3848 410.9063,879.8691 Q410.8594,879.5098 410.6719,879.3223 Q410.3438,878.9473 409.7344,878.7285 Q409.125,878.5098 408.5,878.5098 Q407.7344,878.5098 407.0938,878.8379 Q406.4688,879.166 405.9688,879.916 Q405.4844,880.666 405.4844,881.6973 L405.4844,882.791 Q405.4844,884.0254 406.375,884.8535 Q407.2656,885.666 408.8594,885.666 Q409.7969,885.666 410.4531,885.416 Q410.8438,885.2598 411.2656,884.8223 Q411.5313,884.5566 411.6719,884.4785 Q411.8281,884.4004 412.0313,884.4004 Q412.3594,884.4004 412.6094,884.666 Q412.875,884.916 412.875,885.2598 Q412.875,885.6035 412.5313,886.0098 Q412.0313,886.5879 411.2344,886.916 Q410.1563,887.3691 408.8594,887.3691 Q407.3438,887.3691 406.1406,886.7441 Q405.1563,886.2441 404.4688,885.1816 Q403.7813,884.1035 403.7813,882.8223 L403.7813,881.666 Q403.7813,880.3379 404.3906,879.1973 Q405.0156,878.041 406.1094,877.4316 Q407.2031,876.8066 408.4375,876.8066 Q409.1719,876.8066 409.8125,876.9785 Q410.4688,877.1348 411.0156,877.4941 Z " fill="#000000"/><ellipse cx="433.75" cy="881.1191" fill="#84BE84" rx="3" ry="3" style="stroke:#038048;stroke-width:1.0;"/><text fill="#000000" font-family="sans-serif" font-size="14" lengthAdjust="spacing" textLength="129" x="493.25" y="878.1055">&#171;RuntimeException&#187;</text><text fill="#000000" font-family="sans-serif" font-size="14" font-weight="bold" lengthAdjust="spacing" textLength="30" x="439.75" y="896.7266">final</text><text fill="#000000" font-family="sans-serif" font-size="14" lengthAdjust="spacing" textLength="202" x="473.75" y="896.7266">CertificateConsistencyException</text><line style="stroke:#27AE60;stroke-width:2.0;" x1="309" x2="763" y1="905.2402" y2="905.2402"/><line style="stroke:#27AE60;stroke-width:2.0;" x1="309" x2="763" y1="913.2402" y2="913.2402"/><ellipse cx="319" cy="928.0508" fill="#84BE84" rx="3" ry="3" style="stroke:#038048;stroke-width:1.0;"/><text fill="#000000" font-family="sans-serif" font-size="14" lengthAdjust="spacing" textLength="314" x="328" y="932.3477">CertificateConsistencyException (String message)</text><ellipse cx="319" cy="946.6719" fill="#84BE84" rx="3" ry="3" style="stroke:#038048;stroke-width:1.0;"/><text fill="#000000" font-family="sans-serif" font-size="14" lengthAdjust="spacing" textLength="430" x="328" y="950.9688">CertificateConsistencyException (String message, Throwable cause)</text></g><!--class CalypsoCertificateSigner--><g id="elem_CalypsoCertificateSigner"><rect codeLine="77" fill="#FDEDEC" height="66.6211" id="CalypsoCertificateSigner" rx="2.5" ry="2.5" style="stroke:#E74C3C;stroke-width:2.0;" width="463" x="979.5" y="416.498"/><ellipse cx="1123.25" cy="432.498" fill="#B4A7E5" rx="11" ry="11" style="stroke:#181818;stroke-width:1.0;"/><path d="M1124.2031,429.1387 L1124.2031,435.7949 L1125.9219,435.7949 Q1126.5313,435.7949 1126.7969,436.0293 Q1127.0625,436.2637 1127.0625,436.6543 Q1127.0625,437.0293 1126.7969,437.2637 Q1126.5313,437.498 1125.9219,437.498 L1120.7813,437.498 Q1120.1719,437.498 1119.9063,437.2637 Q1119.6406,437.0293 1119.6406,436.6387 Q1119.6406,436.2637 1119.9063,436.0293 Q1120.1719,435.7949 1120.7813,435.7949 L1122.5,435.7949 L1122.5,429.1387 L1120.7813,429.1387 Q1120.1719,429.1387 1119.9063,428.9043 Q1119.6406,428.6699 1119.6406,428.2793 Q1119.6406,427.9043 1119.9063,427.6699 Q1120.1719,427.4355 1120.7813,427.4355 L1125.9219,427.4355 Q1126.5313,427.4355 1126.7969,427.6699 Q1127.0625,427.9043 1127.0625,428.2793 Q1127.0625,428.6699 1126.7969,428.9043 Q1126.5313,429.1387 1125.9219,429.1387 L1124.2031,429.1387 Z " fill="#000000"/><ellipse cx="1148.75" cy="431.998" fill="#84BE84" rx="3" ry="3" style="stroke:#038048;stroke-width:1.0;"/><text fill="#000000" font-family="sans-serif" font-size="14" font-style="italic" lengthAdjust="spacing" textLength="156" x="1154.75" y="438.2949">CalypsoCertificateSigner</text><line style="stroke:#E74C3C;stroke-width:2.0;" x1="980.5" x2="1441.5" y1="448.498" y2="448.498"/><line style="stroke:#E74C3C;stroke-width:2.0;" x1="980.5" x2="1441.5" y1="456.498" y2="456.498"/><ellipse cx="990.5" cy="471.3086" fill="#84BE84" rx="3" ry="3" style="stroke:#038048;stroke-width:1.0;"/><text fill="#000000" font-family="sans-serif" font-size="14" lengthAdjust="spacing" textLength="437" x="999.5" y="475.6055">byte[] generateSignedCertificate (byte[] data, byte[] recoverableData)</text></g><!--link CalypsoCertificateApiFactory to CalypsoCertificateStore--><g id="link_CalypsoCertificateApiFactory_CalypsoCertificateStore"><path codeLine="114" d="M539.178,314.633 C503.258,341.873 467.5888,368.9235 434.4168,394.0795 " fill="none" id="CalypsoCertificateApiFactory-to-CalypsoCertificateStore" style="stroke:#3498DB;stroke-width:2.0;stroke-dasharray:7.0,7.0;"/><polygon fill="#3498DB" points="429.636,397.705,439.2242,395.454,433.62,394.6838,434.3902,389.0796,429.636,397.705" style="stroke:#3498DB;stroke-width:2.0;"/><polygon fill="#000000" points="497.016,357.1648,505.9989,354.041,502.4472,349.3576,497.016,357.1648" style="stroke:#000000;stroke-width:1.0;"/><text fill="#000000" font-family="sans-serif" font-size="13" lengthAdjust="spacing" textLength="40" x="510" y="359.5264">provide</text></g><!--link CalypsoCertificateApiFactory to CalypsoCaCertificateV1Generator--><g id="link_CalypsoCertificateApiFactory_CalypsoCaCertificateV1Generator"><path codeLine="115" d="M691.309,314.799 C703.085,332.236 713.72,351.657 720,371.498 C738.241,429.124 744.85,452.398 720,507.498 C709.312,531.197 697.4018,548.4774 679.1648,567.6804 " fill="none" id="CalypsoCertificateApiFactory-to-CalypsoCaCertificateV1Generator" style="stroke:#3498DB;stroke-width:2.0;stroke-dasharray:7.0,7.0;"/><polygon fill="#3498DB" points="675.033,572.031,684.1311,568.2596,678.4762,568.4055,678.3303,562.7505,675.033,572.031" style="stroke:#3498DB;stroke-width:2.0;"/><polygon fill="#000000" points="740.7602,455.1378,744.1296,446.2441,738.2585,445.9622,740.7602,455.1378" style="stroke:#000000;stroke-width:1.0;"/><text fill="#000000" font-family="sans-serif" font-size="13" lengthAdjust="spacing" textLength="36" x="750" y="455.5264">create</text></g><!--link CalypsoCertificateApiFactory to CalypsoCardCertificateV1Generator--><g id="link_CalypsoCertificateApiFactory_CalypsoCardCertificateV1Generator"><path codeLine="116" d="M728.22,314.766 C750.874,332.427 774.384,351.955 795,371.498 C852.866,426.353 850.355,456.927 912,507.498 C935.968,527.16 957.5618,542.5608 984.7288,559.6688 " fill="none" id="CalypsoCertificateApiFactory-to-CalypsoCardCertificateV1Generator" style="stroke:#3498DB;stroke-width:2.0;stroke-dasharray:7.0,7.0;"/><polygon fill="#3498DB" points="989.806,562.866,984.3218,554.6854,985.575,560.2017,980.0588,561.4549,989.806,562.866" style="stroke:#3498DB;stroke-width:2.0;"/><polygon fill="#000000" points="920.6164,453.5963,916.1038,445.2245,912.0448,449.4759,920.6164,453.5963" style="stroke:#000000;stroke-width:1.0;"/><text fill="#000000" font-family="sans-serif" font-size="13" lengthAdjust="spacing" textLength="36" x="926" y="455.5264">create</text></g><!--link CalypsoCertificateApiFactory to CalypsoCertificateSigner--><g id="link_CalypsoCertificateApiFactory_CalypsoCertificateSigner"><path codeLine="117" d="M828.981,314.633 C926.939,349.087 1034.8599,387.0463 1112.5599,414.3743 " fill="none" id="CalypsoCertificateApiFactory-to-CalypsoCertificateSigner" style="stroke:#27AE60;stroke-width:2.0;stroke-dasharray:7.0,7.0;"/><polygon fill="#27AE60" points="1118.22,416.365,1111.057,409.6055,1113.5032,414.7061,1108.4027,417.1524,1118.22,416.365" style="stroke:#27AE60;stroke-width:2.0;"/><polygon fill="#000000" points="964.7168,355.8025,957.1592,350.029,955.2089,355.5738,964.7168,355.8025" style="stroke:#000000;stroke-width:1.0;"/><text fill="#000000" font-family="sans-serif" font-size="13" lengthAdjust="spacing" textLength="21" x="969" y="359.5264">use</text></g><!--link CalypsoCaCertificateV1Generator to CertificateSigningException--><g id="link_CalypsoCaCertificateV1Generator_CertificateSigningException"><path codeLine="119" d="M740.521,769.54 C782.841,789.236 827.248,809.549 869,827.998 C891.465,837.925 910.0339,845.8966 933.2729,855.6426 " fill="none" id="CalypsoCaCertificateV1Generator-to-CertificateSigningException" style="stroke:#2C3E50;stroke-width:2.0;stroke-dasharray:7.0,7.0;"/><polygon fill="#2C3E50" points="938.806,857.963,932.0533,850.7936,934.1951,856.0293,928.9593,858.1711,938.806,857.963" style="stroke:#2C3E50;stroke-width:2.0;"/><polygon fill="#000000" points="878.5652,820.6828,871.5053,814.3104,869.108,819.6771,878.5652,820.6828" style="stroke:#000000;stroke-width:1.0;"/><text fill="#000000" font-family="sans-serif" font-size="13" lengthAdjust="spacing" textLength="31" x="883" y="824.0264">throw</text></g><!--link CalypsoCaCertificateV1Generator to CertificateConsistencyException--><g id="link_CalypsoCaCertificateV1Generator_CertificateConsistencyException"><path codeLine="120" d="M536,769.618 C536,800.009 536,826.228 536,851.82 " fill="none" id="CalypsoCaCertificateV1Generator-to-CertificateConsistencyException" style="stroke:#2C3E50;stroke-width:2.0;stroke-dasharray:7.0,7.0;"/><polygon fill="#2C3E50" points="536,857.82,540,848.82,536,852.82,532,848.82,536,857.82" style="stroke:#2C3E50;stroke-width:2.0;"/><polygon fill="#000000" points="541,823.6436,543.9389,814.5985,538.0611,814.5985,541,823.6436" style="stroke:#000000;stroke-width:1.0;"/><text fill="#000000" font-family="sans-serif" font-size="13" lengthAdjust="spacing" textLength="31" x="550" y="824.0264">throw</text></g><!--link CalypsoCardCertificateV1Generator to CertificateSigningException--><g id="link_CalypsoCardCertificateV1Generator_CertificateSigningException"><path codeLine="122" d="M1135.69,779.183 C1119.2,806.662 1105.3465,829.7538 1091.5965,852.6748 " fill="none" id="CalypsoCardCertificateV1Generator-to-CertificateSigningException" style="stroke:#2C3E50;stroke-width:2.0;stroke-dasharray:7.0,7.0;"/><polygon fill="#2C3E50" points="1088.51,857.82,1096.57,852.1599,1091.0821,853.5324,1089.7097,848.0445,1088.51,857.82" style="stroke:#2C3E50;stroke-width:2.0;"/><polygon fill="#000000" points="1118.4276,822.9311,1125.6013,816.6869,1120.561,813.6629,1118.4276,822.9311" style="stroke:#000000;stroke-width:1.0;"/><text fill="#000000" font-family="sans-serif" font-size="13" lengthAdjust="spacing" textLength="31" x="1130" y="824.0264">throw</text></g><!--link CalypsoCardCertificateV1Generator to CertificateConsistencyException--><g id="link_CalypsoCardCertificateV1Generator_CertificateConsistencyException"><path codeLine="123" d="M1026.26,779.081 C991.61,797.362 954.837,814.709 919,827.998 C869.984,846.174 821.6687,859.2912 769.8657,870.5272 " fill="none" id="CalypsoCardCertificateV1Generator-to-CertificateConsistencyException" style="stroke:#2C3E50;stroke-width:2.0;stroke-dasharray:7.0,7.0;"/><polygon fill="#2C3E50" points="764.002,871.799,773.6454,873.8004,768.8884,870.7392,771.9496,865.9822,764.002,871.799" style="stroke:#2C3E50;stroke-width:2.0;"/><polygon fill="#000000" points="959.2906,820.3232,968.7973,820.0528,966.8227,814.5165,959.2906,820.3232" style="stroke:#000000;stroke-width:1.0;"/><text fill="#000000" font-family="sans-serif" font-size="13" lengthAdjust="spacing" textLength="31" x="973" y="824.0264">throw</text></g><!--link CalypsoCertificateStore to CertificateConsistencyException--><g id="link_CalypsoCertificateStore_CertificateConsistencyException"><path codeLine="125" d="M177.551,502.142 C150.795,517.46 126.697,537.306 110,562.998 C57.6883,643.493 52.7113,701.966 110,778.998 C135.807,813.699 214.7459,841.103 301.9409,862.566 " fill="none" id="CalypsoCertificateStore-to-CertificateConsistencyException" style="stroke:#2C3E50;stroke-width:2.0;stroke-dasharray:7.0,7.0;"/><polygon fill="#2C3E50" points="307.767,864,299.9839,857.9648,302.9119,862.805,298.0718,865.733,307.767,864" style="stroke:#2C3E50;stroke-width:2.0;"/><polygon fill="#000000" points="116.6312,675.87,116.4585,666.361,110.9022,668.2786,116.6312,675.87" style="stroke:#000000;stroke-width:1.0;"/><text fill="#000000" font-family="sans-serif" font-size="13" lengthAdjust="spacing" textLength="31" x="124" y="676.5264">throw</text></g><!--SRC=[hLXjKziu4FwUNx5NFXnG4Y24fcHePXnRRfdsW4dItZ2z3YDi9T7Xo1v9BlLq-EydlyGlmIz9k7norhlFizfThLQML3ga1Uet9Nn96NP0nqxW2HTqmYMTKGjB0jhj5PnqJZjlORzxqksrJxhjRlUWHPWDCa9e_GaVFi3q4_eBgGVrLtTzX_XS01N29m9i0WDOIEc9mV7nGYuTotLSRhas4HtBNHxF-B743mx1VjicRIksBX6fHq7dhEqvM1wt_h39Z382-lt7CRex1VEzUM5Uh8cxO7RDCxEt9Zu3T8xwQ5sx1qRV61d6clWST4qtZUwQ-1sC3FrCx-V4NwwkFyDPx-AzCSf9lquGTFiQUdUI4qu_ZM_-Xgv-XivFmX2ssp2HWQF29HTOWksoFoKykVmHdgXS02DFy9DmGLq6xWnK29ZqbuuoQub7oZpCyHA499ouCl28DdAvJRWU1Xhsj0j3DynInQk2ugYdzT5vgQ9UH3ICqr6tL14L5D7euanHH-j3rqReRyvATx0GiVvqGQr7HeI0FAp6kVkKVwMGxeZZk4ylKB3rEEUkp-o4sKGcqb4vMQ9Yz3Jzn52GOs8tu5rUSc8FXmhMG0RIQs1JJTJlgV9eBQYg_vKm2vDYlVMvf_PF4x4NgKNSFQIR_LhkJFazwlKqOqMVoWiUF3X-Ct-e5ArdP9wRerhsbMgo1HBkH5fW_iW9OOtKyr0huhum-yYivKvrawsMaA_4w-p19kH1nAsfEa9Dt95gifqpwg387BTA_UPwYgwdKRDqo3pgfAuNTUBx-mXHG2o_luT193zKRz0l1HHswR0ZSp9JgCmY8jCvXCi7jOX146sGuR_u9-u8OlcSok3oE7mrZDfsZDrgUKg2vmJUM77RxrXPsty3M03sAFoEiDzQuPhXpU7XB3me55LoLEHE2isZjzprGW4HaNr1aij5Z1dX_XOIIsezGuOyaPooENn3uydLpNMa-XmxGPcAm0nRf9pTn9PqUP1LN8xdfS54wHAO4rdrQl-WzT8UvzI-dNuaZ72ijC7YH4cQjFOV0ac-_uWFHdxhFpZK-ao2yIgPHoKBcwWZZoW2_49MwX-tD_EmKkzLFXPGLrvkcC4uwjia3zlshOLJ5rFNlPmmvtTXTumdMggJR8w2NLbmI_ZBCfxwKSXPFWxfpXCUZNQAI7TQSvZYMAzEbCmgiaoOvt4wOsMxp3SRItm4oHzEB5TD5-74PIZvGOhvN9-ygZglIsALJJZcw2N9t36NXLHkvSH4OYwDA5PgnH0Gp8yWV5gwJ2xYHnjlYugO_RzZJZ5N_KkZTXeiJ6sLLDTLapDJEtZAVHOQsWVRvc5CvmifObmLo_ZlrYWJItN_52JwbzzNQyKQTjpwSgjiMhK5LsaLEydjigBBIG-snNn51TNYxbn3ZH5Ogw6TC2Q4K-nS-yi7afqY8YVS3JMCfUzTiPcRWMQohJ6lc4r-nH6auUFczPYCG9UNOvz9kYJebqKygIvam-4_B3SO5Lkr6cLInQZLrxml7v7g3FQJOMcfRaVgG3dOoUe8fWjrpGgxlofyNv1NBbjtcQ1gwcLMKBdqCft6vPSQRHI2JImhm_0SpksQ4Av5SMWeMgtQ-RFJ6LQEDtl9Hu81UDpz6TuJXarWERIgRfkXnbFUTg2L-sLxs67rmB8NVmWPW8gi0cerhIa2godYlTKtb078C6yvvpQ4B2sA4jXMSwHUu-oce5kxkrvxdLq1erlh5-tkvkiq-S9N6cXeVrStNvkm7-qc6WNHu4UAnSFHerqNtSoVqghCUrLV83i0LIKl2TfaUlSb_Ygw6ld3E_NUwflbx-Uyl2EoTztmtNy0]--></g></svg>