<?xml version="1.0" encoding="us-ascii" standalone="no"?><svg xmlns="http://www.w3.org/2000/svg" xmlns:xlink="http://www.w3.org/1999/xlink" contentStyleType="text/css" height="994px" preserveAspectRatio="none" style="width:1454px;height:994px;background:#FFFFFF;" version="1.1" viewBox="0 0 1454 994" width="1454px" zoomAndPan="magnify"><defs><filter height="1" id="bq59ivvhtm6wp0" width="1" x="0" y="0"><feFlood flood-color="#FFFF00" result="flood"/><feComposite in="SourceGraphic" in2="flood" operator="over"/></filter></defs><g><text fill="#000000" font-family="sans-serif" font-size="14" font-weight="bold" lengthAdjust="spacing" textLength="346" x="547" y="25.1074">Terminal Calypso Certificate API 0.1.+ (2024-03-15)</text><rect fill="#DDDDDD" height="65.8633" id="_legend" rx="7.5" ry="7.5" style="stroke:#000000;stroke-width:1.0;" width="178" x="631" y="51.6211"/><text fill="#000000" font-family="sans-serif" font-size="14" lengthAdjust="spacing" text-decoration="underline" textLength="88" x="636" y="71.7285">Colors legend</text><text fill="#000000" font-family="sans-serif" font-size="14" lengthAdjust="spacing" textLength="4" x="728" y="71.7285">:</text><ellipse cx="641.5" cy="86.3633" fill="#000000" rx="2.5" ry="2.5" style="stroke:#000000;stroke-width:0.0;"/><text fill="#000000" font-family="sans-serif" font-size="14" lengthAdjust="spacing" text-decoration="underline" textLength="148" x="648" y="90.3496">External API references</text><text fill="#000000" font-family="sans-serif" font-size="14" lengthAdjust="spacing" textLength="4" x="800" y="90.3496">:</text><rect fill="#000000" height="3.5" style="stroke:#000000;stroke-width:0.0;" width="3.5" x="645" y="102.4844"/><text fill="#000000" filter="url(#bq59ivvhtm6wp0)" font-family="sans-serif" font-size="14" lengthAdjust="spacing" textLength="79" x="652" y="108.9707">java.security</text><!--cluster api--><g id="cluster_api"><path d="M8.5,136.498 L137.5,136.498 A3.75,3.75 0 0 1 140,138.998 L147,161.1191 L1444.5,161.1191 A2.5,2.5 0 0 1 1447,163.6191 L1447,984.998 A2.5,2.5 0 0 1 1444.5,987.498 L8.5,987.498 A2.5,2.5 0 0 1 6,984.998 L6,138.998 A2.5,2.5 0 0 1 8.5,136.498 " fill="#F8F9F9" style="stroke:#000000;stroke-width:1.5;"/><line style="stroke:#000000;stroke-width:1.5;" x1="6" x2="147" y1="161.1191" y2="161.1191"/><text fill="#000000" font-family="sans-serif" font-size="14" font-weight="bold" lengthAdjust="spacing" textLength="128" x="10" y="153.6055">calypso.certificate</text></g><!--cluster spi--><g id="cluster_spi"><path d="M843.5,383.998 L865.5,383.998 A3.75,3.75 0 0 1 868,386.498 L875,408.6191 L1334.5,408.6191 A2.5,2.5 0 0 1 1337,411.1191 L1337,501.498 A2.5,2.5 0 0 1 1334.5,503.998 L843.5,503.998 A2.5,2.5 0 0 1 841,501.498 L841,386.498 A2.5,2.5 0 0 1 843.5,383.998 " fill="#F2F3F4" style="stroke:#000000;stroke-width:1.5;"/><line style="stroke:#000000;stroke-width:1.5;" x1="841" x2="875" y1="408.6191" y2="408.6191"/><text fill="#000000" font-family="sans-serif" font-size="14" font-weight="bold" lengthAdjust="spacing" textLength="21" x="845" y="401.1055">spi</text></g><!--class ApiProperties--><g id="elem_ApiProperties"><rect codeLine="61" fill="#E9F7EF" height="66.6211" id="ApiProperties" rx="2.5" ry="2.5" style="stroke:#27AE60;stroke-width:2.0;" width="277" x="1153.5" y="210.498"/><ellipse cx="1168.5" cy="226.498" fill="#ADD1B2" rx="11" ry="11" style="stroke:#181818;stroke-width:1.0;"/><path d="M1171.2656,222.373 Q1171.4219,222.1543 1171.6094,222.0449 Q1171.7969,221.9355 1172.0156,221.9355 Q1172.3906,221.9355 1172.625,222.2012 Q1172.8594,222.4512 1172.8594,223.0605 L1172.8594,224.5137 Q1172.8594,225.123 1172.625,225.3887 Q1172.3906,225.6543 1172.0156,225.6543 Q1171.6719,225.6543 1171.4688,225.4512 Q1171.2656,225.2637 1171.1563,224.748 Q1171.1094,224.3887 1170.9219,224.2012 Q1170.5938,223.8262 1169.9844,223.6074 Q1169.375,223.3887 1168.75,223.3887 Q1167.9844,223.3887 1167.3438,223.7168 Q1166.7188,224.0449 1166.2188,224.7949 Q1165.7344,225.5449 1165.7344,226.5762 L1165.7344,227.6699 Q1165.7344,228.9043 1166.625,229.7324 Q1167.5156,230.5449 1169.1094,230.5449 Q1170.0469,230.5449 1170.7031,230.2949 Q1171.0938,230.1387 1171.5156,229.7012 Q1171.7813,229.4355 1171.9219,229.3574 Q1172.0781,229.2793 1172.2813,229.2793 Q1172.6094,229.2793 1172.8594,229.5449 Q1173.125,229.7949 1173.125,230.1387 Q1173.125,230.4824 1172.7813,230.8887 Q1172.2813,231.4668 1171.4844,231.7949 Q1170.4063,232.248 1169.1094,232.248 Q1167.5938,232.248 1166.3906,231.623 Q1165.4063,231.123 1164.7188,230.0605 Q1164.0313,228.9824 1164.0313,227.7012 L1164.0313,226.5449 Q1164.0313,225.2168 1164.6406,224.0762 Q1165.2656,222.9199 1166.3594,222.3105 Q1167.4531,221.6855 1168.6875,221.6855 Q1169.4219,221.6855 1170.0625,221.8574 Q1170.7188,222.0137 1171.2656,222.373 Z " fill="#000000"/><ellipse cx="1187.5" cy="225.998" fill="#84BE84" rx="3" ry="3" style="stroke:#038048;stroke-width:1.0;"/><text fill="#000000" font-family="sans-serif" font-size="14" font-weight="bold" lengthAdjust="spacing" textLength="30" x="1193.5" y="232.2949">final</text><text fill="#000000" font-family="sans-serif" font-size="14" lengthAdjust="spacing" textLength="200" x="1227.5" y="232.2949">CalypsoCertificateApiProperties</text><line style="stroke:#27AE60;stroke-width:2.0;" x1="1154.5" x2="1429.5" y1="242.498" y2="242.498"/><ellipse cx="1164.5" cy="257.3086" fill="none" rx="3" ry="3" style="stroke:#038048;stroke-width:1.0;"/><text fill="#000000" font-family="sans-serif" font-size="14" font-weight="bold" lengthAdjust="spacing" text-decoration="underline" textLength="30" x="1173.5" y="261.6055">final</text><text fill="#000000" font-family="sans-serif" font-size="14" lengthAdjust="spacing" text-decoration="underline" textLength="101" x="1207.5" y="261.6055">String VERSION</text><line style="stroke:#27AE60;stroke-width:2.0;" x1="1154.5" x2="1429.5" y1="269.1191" y2="269.1191"/></g><!--class CalypsoCertificateApiFactory--><g id="elem_CalypsoCertificateApiFactory"><rect codeLine="64" fill="#EBF5FB" height="141.1055" id="CalypsoCertificateApiFactory" rx="2.5" ry="2.5" style="stroke:#3498DB;stroke-width:2.0;" width="1046" x="72" y="173.498"/><ellipse cx="493.75" cy="189.498" fill="#B4A7E5" rx="11" ry="11" style="stroke:#181818;stroke-width:1.0;"/><path d="M494.7031,186.1387 L494.7031,192.7949 L496.4219,192.7949 Q497.0313,192.7949 497.2969,193.0293 Q497.5625,193.2637 497.5625,193.6543 Q497.5625,194.0293 497.2969,194.2637 Q497.0313,194.498 496.4219,194.498 L491.2813,194.498 Q490.6719,194.498 490.4063,194.2637 Q490.1406,194.0293 490.1406,193.6387 Q490.1406,193.2637 490.4063,193.0293 Q490.6719,192.7949 491.2813,192.7949 L493,192.7949 L493,186.1387 L491.2813,186.1387 Q490.6719,186.1387 490.4063,185.9043 Q490.1406,185.6699 490.1406,185.2793 Q490.1406,184.9043 490.4063,184.6699 Q490.6719,184.4355 491.2813,184.4355 L496.4219,184.4355 Q497.0313,184.4355 497.2969,184.6699 Q497.5625,184.9043 497.5625,185.2793 Q497.5625,185.6699 497.2969,185.9043 Q497.0313,186.1387 496.4219,186.1387 L494.7031,186.1387 Z " fill="#000000"/><ellipse cx="519.25" cy="188.998" fill="#84BE84" rx="3" ry="3" style="stroke:#038048;stroke-width:1.0;"/><text fill="#000000" font-family="sans-serif" font-size="14" font-style="italic" lengthAdjust="spacing" textLength="183" x="525.25" y="195.2949">CalypsoCertificateApiFactory</text><line style="stroke:#3498DB;stroke-width:2.0;" x1="73" x2="1117" y1="205.498" y2="205.498"/><line style="stroke:#3498DB;stroke-width:2.0;" x1="73" x2="1117" y1="213.498" y2="213.498"/><ellipse cx="83" cy="228.3086" fill="#84BE84" rx="3" ry="3" style="stroke:#038048;stroke-width:1.0;"/><text fill="#000000" font-family="sans-serif" font-size="14" lengthAdjust="spacing" textLength="336" x="92" y="232.6055">CalypsoCertificateStore getCalypsoCertificateStore ()</text><text fill="#000000" font-family="sans-serif" font-size="14" lengthAdjust="spacing" textLength="4" x="92" y="251.2266">&#160;</text><ellipse cx="83" cy="265.5508" fill="#84BE84" rx="3" ry="3" style="stroke:#038048;stroke-width:1.0;"/><text fill="#000000" font-family="sans-serif" font-size="14" lengthAdjust="spacing" textLength="981" x="92" y="269.8477">CalypsoCaCertificateV1Generator createCalypsoCaCertificateV1Generator (byte[] issuerPublicKeyReference, CalypsoCertificateSigner caCertificateSigner)</text><text fill="#000000" font-family="sans-serif" font-size="14" lengthAdjust="spacing" textLength="4" x="92" y="288.4688">&#160;</text><ellipse cx="83" cy="302.793" fill="#84BE84" rx="3" ry="3" style="stroke:#038048;stroke-width:1.0;"/><text fill="#000000" font-family="sans-serif" font-size="14" lengthAdjust="spacing" textLength="1020" x="92" y="307.0898">CalypsoCardCertificateV1Generator createCalypsoCardCertificateV1Generator (byte[] issuerPublicKeyReference, CalypsoCertificateSigner cardCertificateSigner)</text></g><!--class CalypsoCertificateStore--><g id="elem_CalypsoCertificateStore"><rect codeLine="71" fill="#EBF5FB" height="122.4844" id="CalypsoCertificateStore" rx="2.5" ry="2.5" style="stroke:#3498DB;stroke-width:2.0;" width="557" x="22.5" y="393.498"/><ellipse cx="216.75" cy="409.498" fill="#B4A7E5" rx="11" ry="11" style="stroke:#181818;stroke-width:1.0;"/><path d="M217.7031,406.1387 L217.7031,412.7949 L219.4219,412.7949 Q220.0313,412.7949 220.2969,413.0293 Q220.5625,413.2637 220.5625,413.6543 Q220.5625,414.0293 220.2969,414.2637 Q220.0313,414.498 219.4219,414.498 L214.2813,414.498 Q213.6719,414.498 213.4063,414.2637 Q213.1406,414.0293 213.1406,413.6387 Q213.1406,413.2637 213.4063,413.0293 Q213.6719,412.7949 214.2813,412.7949 L216,412.7949 L216,406.1387 L214.2813,406.1387 Q213.6719,406.1387 213.4063,405.9043 Q213.1406,405.6699 213.1406,405.2793 Q213.1406,404.9043 213.4063,404.6699 Q213.6719,404.4355 214.2813,404.4355 L219.4219,404.4355 Q220.0313,404.4355 220.2969,404.6699 Q220.5625,404.9043 220.5625,405.2793 Q220.5625,405.6699 220.2969,405.9043 Q220.0313,406.1387 219.4219,406.1387 L217.7031,406.1387 Z " fill="#000000"/><ellipse cx="242.25" cy="408.998" fill="#84BE84" rx="3" ry="3" style="stroke:#038048;stroke-width:1.0;"/><text fill="#000000" font-family="sans-serif" font-size="14" font-style="italic" lengthAdjust="spacing" textLength="149" x="248.25" y="415.2949">CalypsoCertificateStore</text><line style="stroke:#3498DB;stroke-width:2.0;" x1="23.5" x2="578.5" y1="425.498" y2="425.498"/><line style="stroke:#3498DB;stroke-width:2.0;" x1="23.5" x2="578.5" y1="433.498" y2="433.498"/><ellipse cx="33.5" cy="448.3086" fill="#84BE84" rx="3" ry="3" style="stroke:#038048;stroke-width:1.0;"/><text fill="#000000" font-family="sans-serif" font-size="14" lengthAdjust="spacing" textLength="343" x="42.5" y="452.6055">void addPcaPublicKey (byte[] pcaPublicKeyReference,</text><text fill="#000000" filter="url(#bq59ivvhtm6wp0)" font-family="sans-serif" font-size="14" lengthAdjust="spacing" textLength="90" x="389.5" y="452.6055">RSAPublicKey</text><text fill="#000000" font-family="sans-serif" font-size="14" lengthAdjust="spacing" textLength="90" x="483.5" y="452.6055">pcaPublicKey)</text><ellipse cx="33.5" cy="466.9297" fill="#84BE84" rx="3" ry="3" style="stroke:#038048;stroke-width:1.0;"/><text fill="#000000" font-family="sans-serif" font-size="14" lengthAdjust="spacing" textLength="529" x="42.5" y="471.2266">void addPcaPublicKey (byte[] pcaPublicKeyReference, byte[] pcaPublicKeyModulus)</text><text fill="#000000" font-family="sans-serif" font-size="14" lengthAdjust="spacing" textLength="4" x="42.5" y="489.8477">&#160;</text><ellipse cx="33.5" cy="504.1719" fill="#84BE84" rx="3" ry="3" style="stroke:#038048;stroke-width:1.0;"/><text fill="#000000" font-family="sans-serif" font-size="14" lengthAdjust="spacing" textLength="328" x="42.5" y="508.4688">byte[] addCalypsoCaCertificate (byte[] caCertificate)</text></g><!--class CalypsoCaCertificateV1Generator--><g id="elem_CalypsoCaCertificateV1Generator"><rect codeLine="82" fill="#EBF5FB" height="196.9688" id="CalypsoCaCertificateV1Generator" rx="2.5" ry="2.5" style="stroke:#3498DB;stroke-width:2.0;" width="724" x="138" y="585.998"/><ellipse cx="382.75" cy="601.998" fill="#B4A7E5" rx="11" ry="11" style="stroke:#181818;stroke-width:1.0;"/><path d="M383.7031,598.6387 L383.7031,605.2949 L385.4219,605.2949 Q386.0313,605.2949 386.2969,605.5293 Q386.5625,605.7637 386.5625,606.1543 Q386.5625,606.5293 386.2969,606.7637 Q386.0313,606.998 385.4219,606.998 L380.2813,606.998 Q379.6719,606.998 379.4063,606.7637 Q379.1406,606.5293 379.1406,606.1387 Q379.1406,605.7637 379.4063,605.5293 Q379.6719,605.2949 380.2813,605.2949 L382,605.2949 L382,598.6387 L380.2813,598.6387 Q379.6719,598.6387 379.4063,598.4043 Q379.1406,598.1699 379.1406,597.7793 Q379.1406,597.4043 379.4063,597.1699 Q379.6719,596.9355 380.2813,596.9355 L385.4219,596.9355 Q386.0313,596.9355 386.2969,597.1699 Q386.5625,597.4043 386.5625,597.7793 Q386.5625,598.1699 386.2969,598.4043 Q386.0313,598.6387 385.4219,598.6387 L383.7031,598.6387 Z " fill="#000000"/><ellipse cx="408.25" cy="601.498" fill="#84BE84" rx="3" ry="3" style="stroke:#038048;stroke-width:1.0;"/><text fill="#000000" font-family="sans-serif" font-size="14" font-style="italic" lengthAdjust="spacing" textLength="215" x="414.25" y="607.7949">CalypsoCaCertificateV1Generator</text><line style="stroke:#3498DB;stroke-width:2.0;" x1="139" x2="861" y1="617.998" y2="617.998"/><line style="stroke:#3498DB;stroke-width:2.0;" x1="139" x2="861" y1="625.998" y2="625.998"/><ellipse cx="149" cy="640.8086" fill="#84BE84" rx="3" ry="3" style="stroke:#038048;stroke-width:1.0;"/><text fill="#000000" font-family="sans-serif" font-size="14" lengthAdjust="spacing" textLength="518" x="158" y="645.1055">CalypsoCaCertificateV1Generator withCaPublicKey (byte[] caPublicKeyReference,</text><text fill="#000000" filter="url(#bq59ivvhtm6wp0)" font-family="sans-serif" font-size="14" lengthAdjust="spacing" textLength="90" x="680" y="645.1055">RSAPublicKey</text><text fill="#000000" font-family="sans-serif" font-size="14" lengthAdjust="spacing" textLength="82" x="774" y="645.1055">caPublicKey)</text><ellipse cx="149" cy="659.4297" fill="#84BE84" rx="3" ry="3" style="stroke:#038048;stroke-width:1.0;"/><text fill="#000000" font-family="sans-serif" font-size="14" lengthAdjust="spacing" textLength="480" x="158" y="663.7266">CalypsoCaCertificateV1Generator withStartDate (int year, int month, int day)</text><ellipse cx="149" cy="678.0508" fill="#84BE84" rx="3" ry="3" style="stroke:#038048;stroke-width:1.0;"/><text fill="#000000" font-family="sans-serif" font-size="14" lengthAdjust="spacing" textLength="475" x="158" y="682.3477">CalypsoCaCertificateV1Generator withEndDate (int year, int month, int day)</text><ellipse cx="149" cy="696.6719" fill="#84BE84" rx="3" ry="3" style="stroke:#038048;stroke-width:1.0;"/><text fill="#000000" font-family="sans-serif" font-size="14" lengthAdjust="spacing" textLength="515" x="158" y="700.9688">CalypsoCaCertificateV1Generator withTargetAid (byte[] aid, boolean isTruncated)</text><ellipse cx="149" cy="715.293" fill="#84BE84" rx="3" ry="3" style="stroke:#038048;stroke-width:1.0;"/><text fill="#000000" font-family="sans-serif" font-size="14" lengthAdjust="spacing" textLength="401" x="158" y="719.5898">CalypsoCaCertificateV1Generator withCaRights (byte caRights)</text><ellipse cx="149" cy="733.9141" fill="#84BE84" rx="3" ry="3" style="stroke:#038048;stroke-width:1.0;"/><text fill="#000000" font-family="sans-serif" font-size="14" lengthAdjust="spacing" textLength="401" x="158" y="738.2109">CalypsoCaCertificateV1Generator withCaScope (byte caScope)</text><text fill="#000000" font-family="sans-serif" font-size="14" lengthAdjust="spacing" textLength="4" x="158" y="756.832">&#160;</text><ellipse cx="149" cy="771.1563" fill="#84BE84" rx="3" ry="3" style="stroke:#038048;stroke-width:1.0;"/><text fill="#000000" font-family="sans-serif" font-size="14" lengthAdjust="spacing" textLength="110" x="158" y="775.4531">byte[] generate ()</text></g><!--class CalypsoCardCertificateV1Generator--><g id="elem_CalypsoCardCertificateV1Generator"><rect codeLine="92" fill="#EBF5FB" height="215.5898" id="CalypsoCardCertificateV1Generator" rx="2.5" ry="2.5" style="stroke:#3498DB;stroke-width:2.0;" width="534" x="897" y="576.498"/><ellipse cx="1040.25" cy="592.498" fill="#B4A7E5" rx="11" ry="11" style="stroke:#181818;stroke-width:1.0;"/><path d="M1041.2031,589.1387 L1041.2031,595.7949 L1042.9219,595.7949 Q1043.5313,595.7949 1043.7969,596.0293 Q1044.0625,596.2637 1044.0625,596.6543 Q1044.0625,597.0293 1043.7969,597.2637 Q1043.5313,597.498 1042.9219,597.498 L1037.7813,597.498 Q1037.1719,597.498 1036.9063,597.2637 Q1036.6406,597.0293 1036.6406,596.6387 Q1036.6406,596.2637 1036.9063,596.0293 Q1037.1719,595.7949 1037.7813,595.7949 L1039.5,595.7949 L1039.5,589.1387 L1037.7813,589.1387 Q1037.1719,589.1387 1036.9063,588.9043 Q1036.6406,588.6699 1036.6406,588.2793 Q1036.6406,587.9043 1036.9063,587.6699 Q1037.1719,587.4355 1037.7813,587.4355 L1042.9219,587.4355 Q1043.5313,587.4355 1043.7969,587.6699 Q1044.0625,587.9043 1044.0625,588.2793 Q1044.0625,588.6699 1043.7969,588.9043 Q1043.5313,589.1387 1042.9219,589.1387 L1041.2031,589.1387 Z " fill="#000000"/><ellipse cx="1065.75" cy="591.998" fill="#84BE84" rx="3" ry="3" style="stroke:#038048;stroke-width:1.0;"/><text fill="#000000" font-family="sans-serif" font-size="14" font-style="italic" lengthAdjust="spacing" textLength="228" x="1071.75" y="598.2949">CalypsoCardCertificateV1Generator</text><line style="stroke:#3498DB;stroke-width:2.0;" x1="898" x2="1430" y1="608.498" y2="608.498"/><line style="stroke:#3498DB;stroke-width:2.0;" x1="898" x2="1430" y1="616.498" y2="616.498"/><ellipse cx="908" cy="631.3086" fill="#84BE84" rx="3" ry="3" style="stroke:#038048;stroke-width:1.0;"/><text fill="#000000" font-family="sans-serif" font-size="14" lengthAdjust="spacing" textLength="492" x="917" y="635.6055">CalypsoCardCertificateV1Generator withCardPublicKey (byte[] cardPublicKey)</text><ellipse cx="908" cy="649.9297" fill="#84BE84" rx="3" ry="3" style="stroke:#038048;stroke-width:1.0;"/><text fill="#000000" font-family="sans-serif" font-size="14" lengthAdjust="spacing" textLength="493" x="917" y="654.2266">CalypsoCardCertificateV1Generator withStartDate (int year, int month, int day)</text><ellipse cx="908" cy="668.5508" fill="#84BE84" rx="3" ry="3" style="stroke:#038048;stroke-width:1.0;"/><text fill="#000000" font-family="sans-serif" font-size="14" lengthAdjust="spacing" textLength="488" x="917" y="672.8477">CalypsoCardCertificateV1Generator withEndDate (int year, int month, int day)</text><ellipse cx="908" cy="687.1719" fill="#84BE84" rx="3" ry="3" style="stroke:#038048;stroke-width:1.0;"/><text fill="#000000" font-family="sans-serif" font-size="14" lengthAdjust="spacing" textLength="379" x="917" y="691.4688">CalypsoCardCertificateV1Generator withCardAid (byte[] aid)</text><ellipse cx="908" cy="705.793" fill="#84BE84" rx="3" ry="3" style="stroke:#038048;stroke-width:1.0;"/><text fill="#000000" font-family="sans-serif" font-size="14" lengthAdjust="spacing" textLength="508" x="917" y="710.0898">CalypsoCardCertificateV1Generator withCardSerialNumber (byte[] serialNumber)</text><ellipse cx="908" cy="724.4141" fill="#84BE84" rx="3" ry="3" style="stroke:#038048;stroke-width:1.0;"/><text fill="#000000" font-family="sans-serif" font-size="14" lengthAdjust="spacing" textLength="476" x="917" y="728.7109">CalypsoCardCertificateV1Generator withCardStartupInfo (byte[] startupInfo)</text><ellipse cx="908" cy="743.0352" fill="#84BE84" rx="3" ry="3" style="stroke:#038048;stroke-width:1.0;"/><text fill="#000000" font-family="sans-serif" font-size="14" lengthAdjust="spacing" textLength="355" x="917" y="747.332">CalypsoCardCertificateV1Generator withIndex (int index)</text><text fill="#000000" font-family="sans-serif" font-size="14" lengthAdjust="spacing" textLength="4" x="917" y="765.9531">&#160;</text><ellipse cx="908" cy="780.2773" fill="#84BE84" rx="3" ry="3" style="stroke:#038048;stroke-width:1.0;"/><text fill="#000000" font-family="sans-serif" font-size="14" lengthAdjust="spacing" textLength="110" x="917" y="784.5742">byte[] generate ()</text></g><!--class CertificateSigningException--><g id="elem_CertificateSigningException"><rect codeLine="103" fill="#E9F7EF" height="100.4844" id="CertificateSigningException" rx="2.5" ry="2.5" style="stroke:#27AE60;stroke-width:2.0;" width="426" x="810" y="871.498"/><ellipse cx="910.25" cy="895.1191" fill="#ADD1B2" rx="11" ry="11" style="stroke:#181818;stroke-width:1.0;"/><path d="M913.0156,890.9941 Q913.1719,890.7754 913.3594,890.666 Q913.5469,890.5566 913.7656,890.5566 Q914.1406,890.5566 914.375,890.8223 Q914.6094,891.0723 914.6094,891.6816 L914.6094,893.1348 Q914.6094,893.7441 914.375,894.0098 Q914.1406,894.2754 913.7656,894.2754 Q913.4219,894.2754 913.2188,894.0723 Q913.0156,893.8848 912.9063,893.3691 Q912.8594,893.0098 912.6719,892.8223 Q912.3438,892.4473 911.7344,892.2285 Q911.125,892.0098 910.5,892.0098 Q909.7344,892.0098 909.0938,892.3379 Q908.4688,892.666 907.9688,893.416 Q907.4844,894.166 907.4844,895.1973 L907.4844,896.291 Q907.4844,897.5254 908.375,898.3535 Q909.2656,899.166 910.8594,899.166 Q911.7969,899.166 912.4531,898.916 Q912.8438,898.7598 913.2656,898.3223 Q913.5313,898.0566 913.6719,897.9785 Q913.8281,897.9004 914.0313,897.9004 Q914.3594,897.9004 914.6094,898.166 Q914.875,898.416 914.875,898.7598 Q914.875,899.1035 914.5313,899.5098 Q914.0313,900.0879 913.2344,900.416 Q912.1563,900.8691 910.8594,900.8691 Q909.3438,900.8691 908.1406,900.2441 Q907.1563,899.7441 906.4688,898.6816 Q905.7813,897.6035 905.7813,896.3223 L905.7813,895.166 Q905.7813,893.8379 906.3906,892.6973 Q907.0156,891.541 908.1094,890.9316 Q909.2031,890.3066 910.4375,890.3066 Q911.1719,890.3066 911.8125,890.4785 Q912.4688,890.6348 913.0156,890.9941 Z " fill="#000000"/><ellipse cx="935.75" cy="894.6191" fill="#84BE84" rx="3" ry="3" style="stroke:#038048;stroke-width:1.0;"/><text fill="#000000" font-family="sans-serif" font-size="14" lengthAdjust="spacing" textLength="129" x="980.25" y="891.6055">&#171;RuntimeException&#187;</text><text fill="#000000" font-family="sans-serif" font-size="14" font-weight="bold" lengthAdjust="spacing" textLength="30" x="941.75" y="910.2266">final</text><text fill="#000000" font-family="sans-serif" font-size="14" lengthAdjust="spacing" textLength="172" x="975.75" y="910.2266">CertificateSigningException</text><line style="stroke:#27AE60;stroke-width:2.0;" x1="811" x2="1235" y1="918.7402" y2="918.7402"/><line style="stroke:#27AE60;stroke-width:2.0;" x1="811" x2="1235" y1="926.7402" y2="926.7402"/><ellipse cx="821" cy="941.5508" fill="#84BE84" rx="3" ry="3" style="stroke:#038048;stroke-width:1.0;"/><text fill="#000000" font-family="sans-serif" font-size="14" lengthAdjust="spacing" textLength="284" x="830" y="945.8477">CertificateSigningException (String message)</text><ellipse cx="821" cy="960.1719" fill="#84BE84" rx="3" ry="3" style="stroke:#038048;stroke-width:1.0;"/><text fill="#000000" font-family="sans-serif" font-size="14" lengthAdjust="spacing" textLength="400" x="830" y="964.4688">CertificateSigningException (String message, Throwable cause)</text></g><!--class CertificateConsistencyException--><g id="elem_CertificateConsistencyException"><rect codeLine="107" fill="#E9F7EF" height="100.4844" id="CertificateConsistencyException" rx="2.5" ry="2.5" style="stroke:#27AE60;stroke-width:2.0;" width="456" x="272" y="871.498"/><ellipse cx="372.25" cy="895.1191" fill="#ADD1B2" rx="11" ry="11" style="stroke:#181818;stroke-width:1.0;"/><path d="M375.0156,890.9941 Q375.1719,890.7754 375.3594,890.666 Q375.5469,890.5566 375.7656,890.5566 Q376.1406,890.5566 376.375,890.8223 Q376.6094,891.0723 376.6094,891.6816 L376.6094,893.1348 Q376.6094,893.7441 376.375,894.0098 Q376.1406,894.2754 375.7656,894.2754 Q375.4219,894.2754 375.2188,894.0723 Q375.0156,893.8848 374.9063,893.3691 Q374.8594,893.0098 374.6719,892.8223 Q374.3438,892.4473 373.7344,892.2285 Q373.125,892.0098 372.5,892.0098 Q371.7344,892.0098 371.0938,892.3379 Q370.4688,892.666 369.9688,893.416 Q369.4844,894.166 369.4844,895.1973 L369.4844,896.291 Q369.4844,897.5254 370.375,898.3535 Q371.2656,899.166 372.8594,899.166 Q373.7969,899.166 374.4531,898.916 Q374.8438,898.7598 375.2656,898.3223 Q375.5313,898.0566 375.6719,897.9785 Q375.8281,897.9004 376.0313,897.9004 Q376.3594,897.9004 376.6094,898.166 Q376.875,898.416 376.875,898.7598 Q376.875,899.1035 376.5313,899.5098 Q376.0313,900.0879 375.2344,900.416 Q374.1563,900.8691 372.8594,900.8691 Q371.3438,900.8691 370.1406,900.2441 Q369.1563,899.7441 368.4688,898.6816 Q367.7813,897.6035 367.7813,896.3223 L367.7813,895.166 Q367.7813,893.8379 368.3906,892.6973 Q369.0156,891.541 370.1094,890.9316 Q371.2031,890.3066 372.4375,890.3066 Q373.1719,890.3066 373.8125,890.4785 Q374.4688,890.6348 375.0156,890.9941 Z " fill="#000000"/><ellipse cx="397.75" cy="894.6191" fill="#84BE84" rx="3" ry="3" style="stroke:#038048;stroke-width:1.0;"/><text fill="#000000" font-family="sans-serif" font-size="14" lengthAdjust="spacing" textLength="129" x="457.25" y="891.6055">&#171;RuntimeException&#187;</text><text fill="#000000" font-family="sans-serif" font-size="14" font-weight="bold" lengthAdjust="spacing" textLength="30" x="403.75" y="910.2266">final</text><text fill="#000000" font-family="sans-serif" font-size="14" lengthAdjust="spacing" textLength="202" x="437.75" y="910.2266">CertificateConsistencyException</text><line style="stroke:#27AE60;stroke-width:2.0;" x1="273" x2="727" y1="918.7402" y2="918.7402"/><line style="stroke:#27AE60;stroke-width:2.0;" x1="273" x2="727" y1="926.7402" y2="926.7402"/><ellipse cx="283" cy="941.5508" fill="#84BE84" rx="3" ry="3" style="stroke:#038048;stroke-width:1.0;"/><text fill="#000000" font-family="sans-serif" font-size="14" lengthAdjust="spacing" textLength="314" x="292" y="945.8477">CertificateConsistencyException (String message)</text><ellipse cx="283" cy="960.1719" fill="#84BE84" rx="3" ry="3" style="stroke:#038048;stroke-width:1.0;"/><text fill="#000000" font-family="sans-serif" font-size="14" lengthAdjust="spacing" textLength="430" x="292" y="964.4688">CertificateConsistencyException (String message, Throwable cause)</text></g><!--class CalypsoCertificateSigner--><g id="elem_CalypsoCertificateSigner"><rect codeLine="78" fill="#FDEDEC" height="66.6211" id="CalypsoCertificateSigner" rx="2.5" ry="2.5" style="stroke:#E74C3C;stroke-width:2.0;" width="463" x="857.5" y="420.998"/><ellipse cx="1001.25" cy="436.998" fill="#B4A7E5" rx="11" ry="11" style="stroke:#181818;stroke-width:1.0;"/><path d="M1002.2031,433.6387 L1002.2031,440.2949 L1003.9219,440.2949 Q1004.5313,440.2949 1004.7969,440.5293 Q1005.0625,440.7637 1005.0625,441.1543 Q1005.0625,441.5293 1004.7969,441.7637 Q1004.5313,441.998 1003.9219,441.998 L998.7813,441.998 Q998.1719,441.998 997.9063,441.7637 Q997.6406,441.5293 997.6406,441.1387 Q997.6406,440.7637 997.9063,440.5293 Q998.1719,440.2949 998.7813,440.2949 L1000.5,440.2949 L1000.5,433.6387 L998.7813,433.6387 Q998.1719,433.6387 997.9063,433.4043 Q997.6406,433.1699 997.6406,432.7793 Q997.6406,432.4043 997.9063,432.1699 Q998.1719,431.9355 998.7813,431.9355 L1003.9219,431.9355 Q1004.5313,431.9355 1004.7969,432.1699 Q1005.0625,432.4043 1005.0625,432.7793 Q1005.0625,433.1699 1004.7969,433.4043 Q1004.5313,433.6387 1003.9219,433.6387 L1002.2031,433.6387 Z " fill="#000000"/><ellipse cx="1026.75" cy="436.498" fill="#84BE84" rx="3" ry="3" style="stroke:#038048;stroke-width:1.0;"/><text fill="#000000" font-family="sans-serif" font-size="14" font-style="italic" lengthAdjust="spacing" textLength="156" x="1032.75" y="442.7949">CalypsoCertificateSigner</text><line style="stroke:#E74C3C;stroke-width:2.0;" x1="858.5" x2="1319.5" y1="452.998" y2="452.998"/><line style="stroke:#E74C3C;stroke-width:2.0;" x1="858.5" x2="1319.5" y1="460.998" y2="460.998"/><ellipse cx="868.5" cy="475.8086" fill="#84BE84" rx="3" ry="3" style="stroke:#038048;stroke-width:1.0;"/><text fill="#000000" font-family="sans-serif" font-size="14" lengthAdjust="spacing" textLength="437" x="877.5" y="480.1055">byte[] generateSignedCertificate (byte[] data, byte[] recoverableData)</text></g><!--link CalypsoCertificateApiFactory to CalypsoCertificateStore--><g id="link_CalypsoCertificateApiFactory_CalypsoCertificateStore"><path codeLine="115" d="M496.694,314.715 C460.804,340.168 425.4421,365.2451 390.8161,389.8021 " fill="none" id="CalypsoCertificateApiFactory-to-CalypsoCertificateStore" style="stroke:#3498DB;stroke-width:2.0;stroke-dasharray:7.0,7.0;"/><polygon fill="#3498DB" points="385.922,393.273,395.5772,391.3294,390.0004,390.3806,390.9492,384.8039,385.922,393.273" style="stroke:#3498DB;stroke-width:2.0;"/><polygon fill="#000000" points="448.9215,357.036,457.9997,354.2008,454.5995,349.4063,448.9215,357.036" style="stroke:#000000;stroke-width:1.0;"/><text fill="#000000" font-family="sans-serif" font-size="13" lengthAdjust="spacing" textLength="40" x="462" y="359.5264">provide</text></g><!--link CalypsoCertificateApiFactory to CalypsoCaCertificateV1Generator--><g id="link_CalypsoCertificateApiFactory_CalypsoCaCertificateV1Generator"><path codeLine="116" d="M605.559,314.654 C611.579,370.061 614.808,449.042 597,515.498 C590.549,539.571 582.5974,558.4984 570.4634,580.7314 " fill="none" id="CalypsoCertificateApiFactory-to-CalypsoCaCertificateV1Generator" style="stroke:#3498DB;stroke-width:2.0;stroke-dasharray:7.0,7.0;"/><polygon fill="#3498DB" points="567.589,585.998,575.4117,580.0143,569.9843,581.6091,568.3894,576.1818,567.589,585.998" style="stroke:#3498DB;stroke-width:2.0;"/><polygon fill="#000000" points="614.3462,459.6006,618.4427,451.0175,612.6153,450.2489,614.3462,459.6006" style="stroke:#000000;stroke-width:1.0;"/><text fill="#000000" font-family="sans-serif" font-size="13" lengthAdjust="spacing" textLength="36" x="624" y="460.0264">create</text></g><!--link CalypsoCertificateApiFactory to CalypsoCardCertificateV1Generator--><g id="link_CalypsoCertificateApiFactory_CalypsoCardCertificateV1Generator"><path codeLine="117" d="M631.3,314.528 C665.482,374.388 721.585,459.698 790,515.498 C822.131,541.704 853.6918,561.8917 891.4838,581.7537 " fill="none" id="CalypsoCertificateApiFactory-to-CalypsoCardCertificateV1Generator" style="stroke:#3498DB;stroke-width:2.0;stroke-dasharray:7.0,7.0;"/><polygon fill="#3498DB" points="896.795,584.545,890.6892,576.8173,892.369,582.2189,886.9674,583.8988,896.795,584.545" style="stroke:#3498DB;stroke-width:2.0;"/><polygon fill="#000000" points="798.488,458.226,794.2838,449.6951,790.0724,453.7955,798.488,458.226" style="stroke:#000000;stroke-width:1.0;"/><text fill="#000000" font-family="sans-serif" font-size="13" lengthAdjust="spacing" textLength="36" x="804" y="460.0264">create</text></g><!--link CalypsoCertificateApiFactory to CalypsoCertificateSigner--><g id="link_CalypsoCertificateApiFactory_CalypsoCertificateSigner"><path codeLine="118" d="M759.838,314.57 C844.854,350.453 938.9982,390.1879 1006.2022,418.5529 " fill="none" id="CalypsoCertificateApiFactory-to-CalypsoCertificateSigner" style="stroke:#27AE60;stroke-width:2.0;stroke-dasharray:7.0,7.0;"/><polygon fill="#27AE60" points="1011.73,420.886,1004.9937,413.7012,1007.1235,418.9418,1001.8829,421.0715,1011.73,420.886" style="stroke:#27AE60;stroke-width:2.0;"/><polygon fill="#000000" points="880.6065,356.0878,873.4161,349.863,871.1305,355.2782,880.6065,356.0878" style="stroke:#000000;stroke-width:1.0;"/><text fill="#000000" font-family="sans-serif" font-size="13" lengthAdjust="spacing" textLength="21" x="885" y="359.5264">use</text></g><!--link CalypsoCaCertificateV1Generator to CertificateSigningException--><g id="link_CalypsoCaCertificateV1Generator_CertificateSigningException"><path codeLine="120" d="M704.521,783.04 C746.841,802.736 791.248,823.049 833,841.498 C855.465,851.425 874.0339,859.3966 897.2729,869.1426 " fill="none" id="CalypsoCaCertificateV1Generator-to-CertificateSigningException" style="stroke:#2C3E50;stroke-width:2.0;stroke-dasharray:7.0,7.0;"/><polygon fill="#2C3E50" points="902.806,871.463,896.0533,864.2936,898.1951,869.5293,892.9593,871.6711,902.806,871.463" style="stroke:#2C3E50;stroke-width:2.0;"/><polygon fill="#000000" points="842.5652,834.1828,835.5053,827.8104,833.108,833.1771,842.5652,834.1828" style="stroke:#000000;stroke-width:1.0;"/><text fill="#000000" font-family="sans-serif" font-size="13" lengthAdjust="spacing" textLength="31" x="847" y="837.5264">throw</text></g><!--link CalypsoCaCertificateV1Generator to CertificateConsistencyException--><g id="link_CalypsoCaCertificateV1Generator_CertificateConsistencyException"><path codeLine="121" d="M500,783.118 C500,813.509 500,839.728 500,865.32 " fill="none" id="CalypsoCaCertificateV1Generator-to-CertificateConsistencyException" style="stroke:#2C3E50;stroke-width:2.0;stroke-dasharray:7.0,7.0;"/><polygon fill="#2C3E50" points="500,871.32,504,862.32,500,866.32,496,862.32,500,871.32" style="stroke:#2C3E50;stroke-width:2.0;"/><polygon fill="#000000" points="505,837.1436,507.9389,828.0985,502.0611,828.0985,505,837.1436" style="stroke:#000000;stroke-width:1.0;"/><text fill="#000000" font-family="sans-serif" font-size="13" lengthAdjust="spacing" textLength="31" x="514" y="837.5264">throw</text></g><!--link CalypsoCardCertificateV1Generator to CertificateSigningException--><g id="link_CalypsoCardCertificateV1Generator_CertificateSigningException"><path codeLine="123" d="M1099.69,792.683 C1083.2,820.162 1069.3465,843.2538 1055.5965,866.1748 " fill="none" id="CalypsoCardCertificateV1Generator-to-CertificateSigningException" style="stroke:#2C3E50;stroke-width:2.0;stroke-dasharray:7.0,7.0;"/><polygon fill="#2C3E50" points="1052.51,871.32,1060.57,865.6599,1055.0821,867.0324,1053.7097,861.5445,1052.51,871.32" style="stroke:#2C3E50;stroke-width:2.0;"/><polygon fill="#000000" points="1082.4276,836.4311,1089.6013,830.1869,1084.561,827.1629,1082.4276,836.4311" style="stroke:#000000;stroke-width:1.0;"/><text fill="#000000" font-family="sans-serif" font-size="13" lengthAdjust="spacing" textLength="31" x="1094" y="837.5264">throw</text></g><!--link CalypsoCardCertificateV1Generator to CertificateConsistencyException--><g id="link_CalypsoCardCertificateV1Generator_CertificateConsistencyException"><path codeLine="124" d="M990.26,792.581 C955.615,810.862 918.837,828.209 883,841.498 C833.984,859.674 785.6687,872.7912 733.8657,884.0272 " fill="none" id="CalypsoCardCertificateV1Generator-to-CertificateConsistencyException" style="stroke:#2C3E50;stroke-width:2.0;stroke-dasharray:7.0,7.0;"/><polygon fill="#2C3E50" points="728.002,885.299,737.6454,887.3004,732.8884,884.2392,735.9496,879.4822,728.002,885.299" style="stroke:#2C3E50;stroke-width:2.0;"/><polygon fill="#000000" points="923.2906,833.8232,932.7973,833.5528,930.8227,828.0165,923.2906,833.8232" style="stroke:#000000;stroke-width:1.0;"/><text fill="#000000" font-family="sans-serif" font-size="13" lengthAdjust="spacing" textLength="31" x="937" y="837.5264">throw</text></g><!--link CalypsoCertificateStore to CertificateConsistencyException--><g id="link_CalypsoCertificateStore_CertificateConsistencyException"><path codeLine="126" d="M135.135,515.678 C110.755,531.711 88.8803,551.704 74,576.498 C24.599,658.812 16.7113,715.466 74,792.498 C99.807,827.199 178.7459,854.603 265.9409,876.066 " fill="none" id="CalypsoCertificateStore-to-CertificateConsistencyException" style="stroke:#2C3E50;stroke-width:2.0;stroke-dasharray:7.0,7.0;"/><polygon fill="#2C3E50" points="271.767,877.5,263.9839,871.4648,266.9119,876.305,262.0718,879.233,271.767,877.5" style="stroke:#2C3E50;stroke-width:2.0;"/><polygon fill="#000000" points="80.7059,689.3435,80.3825,679.8385,74.8573,681.8439,80.7059,689.3435" style="stroke:#000000;stroke-width:1.0;"/><text fill="#000000" font-family="sans-serif" font-size="13" lengthAdjust="spacing" textLength="31" x="88" y="690.0264">throw</text></g><!--SRC=[hLXjSzeu4FxEhzXhFZH92qc0b8P9cJ6sd6RQ9XcWlSdqEXd55g2BaJoIdDJJoNy_-GLiYB6179_CQlTvLglTrTgAAe_KGFz6HCmemnwOs0jzoS4aGj4nTR0YODnSmd7ZfF4Ezfl7pNRzk5K_EJse4UQ2YX5gR-7J9nXzHj-GVj1_JHvu910Ig9G1aU0IwC9KALzsZuwcQkOvtEF2uIwH3OVFZiRYIE5xZ-2WxfAwarWNYFIZf1DMzpsiZcf_kMHC6G7pxcA0Ra_0_cYVsMShuYROJRjbjrV4BK2dg8DMjTjWTQo-PQs8Jy4qJDjgheW_GDyoMsOd9_vwUVK5MkspZrO_9_q-HD3i6EZ3SKuu-Zou_XkQPWkT7aSXhDTXg49FXqjDiGANixSAdhXuW2Ugfi384pmI8IbdmCUWGy1KCFEqMKq-KEPZWMSW5H64gz0dHfyBbmWp2ZJi6MUMQTc5YfTBYlssqK6dXOhcCg9bdVIRXOfeIH7rprgQEjuVkh8YVtDMfeUbJFH7K-eyC28bv64D8VXJVaaZtHBFuqylKB3pC14yO6xAR2CRcQYOB5MnsePvR6d80N4hyCxF1N5xFGrh8GkP9R0BJTHfw_IeJQdE_xam2vDclGc4h-kdYjYFrMBkDZBjJYbtflmHjTk6DQTVo9SykFU2Qlv8ATvFtpwr-wNiSzMq15BkLBh4V248OPNKaqWhvZwpEyWkvLxefgMMai_5g-pX9kHXp6teF49LtB5gMiuPTRZCdBHAy_fgXAv6SRFqo2JkfDoFE_7TNOme8P7VtK4tbX_g5VHR0qLTEkh8WemrAdE8p7GEuVnURw8RnWNI-nS_ueOaJY2e2i-FegLUtBOJx5hDrn8y8V36ITf-mydQ_Xl04h1FuK-C_Sw9zWnl3W_7qKMXgTAh8dTJ63wz4ToF14J6zakIt5aac37k7wcmeiupPCX39IYRm0yq65vUNyMgpuaJbEa8ZB53Yjbjx2WkmYpZSZml3OPQby24g7LB-mUrb_Ouf_RZv88m8h3M1aSGBQdIshyF5VdvAxaOnKrmxr7d2ma7yyDyNx2neRxoY2R0BsI5_WbtCm_NwhtAnoNKkPSRdc0IzQB3U-JK1UowDmvU-BFmqyy9SqukbS9WQ2nqqafOiZju7LV1wZVk1buWyqUKQcdieZHPS2mTT3vuYtALFetBIoxAipgsoG7Dhw7CAk_P9Cc1HDajyit52Y-sAuZ3zKWIZMcMbcSnV2u_yNN5KLQswsoYsSWiEAWTSw8u9JPnOgYmK5OSAxrZ20aMxo5wcd6cficZYxT5HSpztp57MEYcP-WidmSBKrSVAkTwt6Qwx4SYO96XUx3jEGpePAfaWgjZcVpT6cNew2jZ0HB_AoYZUR96RReytTPskjA4MskLE2dSegJBIG-snNn51fNYxfn3bH5OoQ6TC8P4KEnT1RDxabqzCYVS3JMAPU1ViZ7FG3FPrfYNp2M_amZIw77pV4pdflFpGS0KdH7qso6-qcznlTu_B3TDBRTgFVyi5EDMNx9UF5UL6Uod4zPClrBf2-LW9wltC9hgTxEe- -l43oHvvRPDpYJLep9pmhLRBzAft7wXqKOXsCHoRHYUes7Va98x54U6ibOh7LeRZTxQcMWl_RBG1L_mn-ZbebS5baDRrsqpr6Gqt0vqRRri3zjRFx3i9LzFkg0Zgu5gLNkAmKgIU6_-uQKBAZgtd7CRGXOcHG5ihJfIht5sKz2jtLtDlSQkWF6hxbVZzlhxAFqiM1XegF_KhyikOR_gLJGQeiAF1PQ8HezwMNGpVmgpCkzLUOBi0BJkyDAW3KUtNvDFgVEHFteHtvj_wFppd9StPBRMZDR-0m00]--></g></svg>