<?xml version="1.0" encoding="us-ascii" standalone="no"?><svg xmlns="http://www.w3.org/2000/svg" xmlns:xlink="http://www.w3.org/1999/xlink" contentStyleType="text/css" height="927px" preserveAspectRatio="none" style="width:1650px;height:927px;background:#FFFFFF;" version="1.1" viewBox="0 0 1650 927" width="1650px" zoomAndPan="magnify"><defs><filter height="1" id="bjpnjzjw4kmbg0" width="1" x="0" y="0"><feFlood flood-color="#FFC0CB" result="flood"/><feComposite in="SourceGraphic" in2="flood" operator="over"/></filter><filter height="1" id="bjpnjzjw4kmbg1" width="1" x="0" y="0"><feFlood flood-color="#FFFF00" result="flood"/><feComposite in="SourceGraphic" in2="flood" operator="over"/></filter></defs><g><text fill="#000000" font-family="sans-serif" font-size="14" font-weight="bold" lengthAdjust="spacing" textLength="346" x="645" y="25.1074">Terminal Calypso Certificate API 0.1.+ (2024-02-13)</text><rect fill="#DDDDDD" height="84.4844" id="_legend" rx="7.5" ry="7.5" style="stroke:#000000;stroke-width:1.0;" width="201" x="717.5" y="51.6211"/><text fill="#000000" font-family="sans-serif" font-size="14" lengthAdjust="spacing" text-decoration="underline" textLength="88" x="722.5" y="71.7285">Colors legend</text><text fill="#000000" font-family="sans-serif" font-size="14" lengthAdjust="spacing" textLength="4" x="814.5" y="71.7285">:</text><ellipse cx="728" cy="86.3633" fill="#000000" rx="2.5" ry="2.5" style="stroke:#000000;stroke-width:0.0;"/><text fill="#000000" font-family="sans-serif" font-size="14" lengthAdjust="spacing" text-decoration="underline" textLength="148" x="734.5" y="90.3496">External API references</text><text fill="#000000" font-family="sans-serif" font-size="14" lengthAdjust="spacing" textLength="4" x="886.5" y="90.3496">:</text><rect fill="#000000" height="3.5" style="stroke:#000000;stroke-width:0.0;" width="3.5" x="731.5" y="102.4844"/><text fill="#000000" filter="url(#bjpnjzjw4kmbg0)" font-family="sans-serif" font-size="14" font-weight="bold" lengthAdjust="spacing" textLength="175" x="738.5" y="108.9707">Keypop Calypso Card API</text><rect fill="#000000" height="3.5" style="stroke:#000000;stroke-width:0.0;" width="3.5" x="731.5" y="121.1055"/><text fill="#000000" filter="url(#bjpnjzjw4kmbg1)" font-family="sans-serif" font-size="14" lengthAdjust="spacing" textLength="79" x="738.5" y="127.5918">java.security</text><!--cluster api--><g id="cluster_api"><path d="M8.5,155.1191 L137.5,155.1191 A3.75,3.75 0 0 1 140,157.6191 L147,179.7402 L1640.5,179.7402 A2.5,2.5 0 0 1 1643,182.2402 L1643,917.6191 A2.5,2.5 0 0 1 1640.5,920.1191 L8.5,920.1191 A2.5,2.5 0 0 1 6,917.6191 L6,157.6191 A2.5,2.5 0 0 1 8.5,155.1191 " fill="#F8F9F9" style="stroke:#000000;stroke-width:1.5;"/><line style="stroke:#000000;stroke-width:1.5;" x1="6" x2="147" y1="179.7402" y2="179.7402"/><text fill="#000000" font-family="sans-serif" font-size="14" font-weight="bold" lengthAdjust="spacing" textLength="128" x="10" y="172.2266">calypso.certificate</text></g><!--cluster ca--><g id="cluster_ca"><path d="M32.5,342.1191 L49.5,342.1191 A3.75,3.75 0 0 1 52,344.6191 L59,366.7402 L803.5,366.7402 A2.5,2.5 0 0 1 806,369.2402 L806,893.6191 A2.5,2.5 0 0 1 803.5,896.1191 L32.5,896.1191 A2.5,2.5 0 0 1 30,893.6191 L30,344.6191 A2.5,2.5 0 0 1 32.5,342.1191 " fill="#F2F3F4" style="stroke:#000000;stroke-width:1.5;"/><line style="stroke:#000000;stroke-width:1.5;" x1="30" x2="59" y1="366.7402" y2="366.7402"/><text fill="#000000" font-family="sans-serif" font-size="14" font-weight="bold" lengthAdjust="spacing" textLength="16" x="34" y="359.2266">ca</text></g><!--cluster caSpi--><g id="cluster_caSpi"><path d="M260.5,715.1191 L282.5,715.1191 A3.75,3.75 0 0 1 285,717.6191 L292,739.7402 L779.5,739.7402 A2.5,2.5 0 0 1 782,742.2402 L782,869.6191 A2.5,2.5 0 0 1 779.5,872.1191 L260.5,872.1191 A2.5,2.5 0 0 1 258,869.6191 L258,717.6191 A2.5,2.5 0 0 1 260.5,715.1191 " fill="#E5E7E9" style="stroke:#000000;stroke-width:1.5;"/><line style="stroke:#000000;stroke-width:1.5;" x1="258" x2="292" y1="739.7402" y2="739.7402"/><text fill="#000000" font-family="sans-serif" font-size="14" font-weight="bold" lengthAdjust="spacing" textLength="21" x="262" y="732.2266">spi</text></g><!--cluster card--><g id="cluster_card"><path d="M832.5,342.1191 L864.5,342.1191 A3.75,3.75 0 0 1 867,344.6191 L874,366.7402 L1616.5,366.7402 A2.5,2.5 0 0 1 1619,369.2402 L1619,893.6191 A2.5,2.5 0 0 1 1616.5,896.1191 L832.5,896.1191 A2.5,2.5 0 0 1 830,893.6191 L830,344.6191 A2.5,2.5 0 0 1 832.5,342.1191 " fill="#F2F3F4" style="stroke:#000000;stroke-width:1.5;"/><line style="stroke:#000000;stroke-width:1.5;" x1="830" x2="874" y1="366.7402" y2="366.7402"/><text fill="#000000" font-family="sans-serif" font-size="14" font-weight="bold" lengthAdjust="spacing" textLength="31" x="834" y="359.2266">card</text></g><!--cluster cardSpi--><g id="cluster_cardSpi"><path d="M1073.5,715.1191 L1095.5,715.1191 A3.75,3.75 0 0 1 1098,717.6191 L1105,739.7402 L1592.5,739.7402 A2.5,2.5 0 0 1 1595,742.2402 L1595,869.6191 A2.5,2.5 0 0 1 1592.5,872.1191 L1073.5,872.1191 A2.5,2.5 0 0 1 1071,869.6191 L1071,717.6191 A2.5,2.5 0 0 1 1073.5,715.1191 " fill="#E5E7E9" style="stroke:#000000;stroke-width:1.5;"/><line style="stroke:#000000;stroke-width:1.5;" x1="1071" x2="1105" y1="739.7402" y2="739.7402"/><text fill="#000000" font-family="sans-serif" font-size="14" font-weight="bold" lengthAdjust="spacing" textLength="21" x="1075" y="732.2266">spi</text></g><!--class ApiProperties--><g id="elem_ApiProperties"><rect codeLine="61" fill="#E9F7EF" height="66.6211" id="ApiProperties" rx="2.5" ry="2.5" style="stroke:#27AE60;stroke-width:2.0;" width="277" x="1222.5" y="201.1191"/><ellipse cx="1237.5" cy="217.1191" fill="#ADD1B2" rx="11" ry="11" style="stroke:#181818;stroke-width:1.0;"/><path d="M1240.2656,212.9941 Q1240.4219,212.7754 1240.6094,212.666 Q1240.7969,212.5566 1241.0156,212.5566 Q1241.3906,212.5566 1241.625,212.8223 Q1241.8594,213.0723 1241.8594,213.6816 L1241.8594,215.1348 Q1241.8594,215.7441 1241.625,216.0098 Q1241.3906,216.2754 1241.0156,216.2754 Q1240.6719,216.2754 1240.4688,216.0723 Q1240.2656,215.8848 1240.1563,215.3691 Q1240.1094,215.0098 1239.9219,214.8223 Q1239.5938,214.4473 1238.9844,214.2285 Q1238.375,214.0098 1237.75,214.0098 Q1236.9844,214.0098 1236.3438,214.3379 Q1235.7188,214.666 1235.2188,215.416 Q1234.7344,216.166 1234.7344,217.1973 L1234.7344,218.291 Q1234.7344,219.5254 1235.625,220.3535 Q1236.5156,221.166 1238.1094,221.166 Q1239.0469,221.166 1239.7031,220.916 Q1240.0938,220.7598 1240.5156,220.3223 Q1240.7813,220.0566 1240.9219,219.9785 Q1241.0781,219.9004 1241.2813,219.9004 Q1241.6094,219.9004 1241.8594,220.166 Q1242.125,220.416 1242.125,220.7598 Q1242.125,221.1035 1241.7813,221.5098 Q1241.2813,222.0879 1240.4844,222.416 Q1239.4063,222.8691 1238.1094,222.8691 Q1236.5938,222.8691 1235.3906,222.2441 Q1234.4063,221.7441 1233.7188,220.6816 Q1233.0313,219.6035 1233.0313,218.3223 L1233.0313,217.166 Q1233.0313,215.8379 1233.6406,214.6973 Q1234.2656,213.541 1235.3594,212.9316 Q1236.4531,212.3066 1237.6875,212.3066 Q1238.4219,212.3066 1239.0625,212.4785 Q1239.7188,212.6348 1240.2656,212.9941 Z " fill="#000000"/><ellipse cx="1256.5" cy="216.6191" fill="#84BE84" rx="3" ry="3" style="stroke:#038048;stroke-width:1.0;"/><text fill="#000000" font-family="sans-serif" font-size="14" font-weight="bold" lengthAdjust="spacing" textLength="30" x="1262.5" y="222.916">final</text><text fill="#000000" font-family="sans-serif" font-size="14" lengthAdjust="spacing" textLength="200" x="1296.5" y="222.916">CalypsoCertificateApiProperties</text><line style="stroke:#27AE60;stroke-width:2.0;" x1="1223.5" x2="1498.5" y1="233.1191" y2="233.1191"/><ellipse cx="1233.5" cy="247.9297" fill="none" rx="3" ry="3" style="stroke:#038048;stroke-width:1.0;"/><text fill="#000000" font-family="sans-serif" font-size="14" font-weight="bold" lengthAdjust="spacing" text-decoration="underline" textLength="30" x="1242.5" y="252.2266">final</text><text fill="#000000" font-family="sans-serif" font-size="14" lengthAdjust="spacing" text-decoration="underline" textLength="101" x="1276.5" y="252.2266">String VERSION</text><line style="stroke:#27AE60;stroke-width:2.0;" x1="1223.5" x2="1498.5" y1="259.7402" y2="259.7402"/></g><!--class CalypsoCertificateApiFactory--><g id="elem_CalypsoCertificateApiFactory"><rect codeLine="64" fill="#EBF5FB" height="85.2422" id="CalypsoCertificateApiFactory" rx="2.5" ry="2.5" style="stroke:#3498DB;stroke-width:2.0;" width="502" x="411" y="192.1191"/><ellipse cx="560.75" cy="208.1191" fill="#B4A7E5" rx="11" ry="11" style="stroke:#181818;stroke-width:1.0;"/><path d="M561.7031,204.7598 L561.7031,211.416 L563.4219,211.416 Q564.0313,211.416 564.2969,211.6504 Q564.5625,211.8848 564.5625,212.2754 Q564.5625,212.6504 564.2969,212.8848 Q564.0313,213.1191 563.4219,213.1191 L558.2813,213.1191 Q557.6719,213.1191 557.4063,212.8848 Q557.1406,212.6504 557.1406,212.2598 Q557.1406,211.8848 557.4063,211.6504 Q557.6719,211.416 558.2813,211.416 L560,211.416 L560,204.7598 L558.2813,204.7598 Q557.6719,204.7598 557.4063,204.5254 Q557.1406,204.291 557.1406,203.9004 Q557.1406,203.5254 557.4063,203.291 Q557.6719,203.0566 558.2813,203.0566 L563.4219,203.0566 Q564.0313,203.0566 564.2969,203.291 Q564.5625,203.5254 564.5625,203.9004 Q564.5625,204.291 564.2969,204.5254 Q564.0313,204.7598 563.4219,204.7598 L561.7031,204.7598 Z " fill="#000000"/><ellipse cx="586.25" cy="207.6191" fill="#84BE84" rx="3" ry="3" style="stroke:#038048;stroke-width:1.0;"/><text fill="#000000" font-family="sans-serif" font-size="14" font-style="italic" lengthAdjust="spacing" textLength="183" x="592.25" y="213.916">CalypsoCertificateApiFactory</text><line style="stroke:#3498DB;stroke-width:2.0;" x1="412" x2="912" y1="224.1191" y2="224.1191"/><line style="stroke:#3498DB;stroke-width:2.0;" x1="412" x2="912" y1="232.1191" y2="232.1191"/><ellipse cx="422" cy="246.9297" fill="#84BE84" rx="3" ry="3" style="stroke:#038048;stroke-width:1.0;"/><text fill="#000000" font-family="sans-serif" font-size="14" lengthAdjust="spacing" textLength="446" x="431" y="251.2266">CalypsoCaCertificateV1Builder createCalypsoCaCertificateV1Builder ()</text><ellipse cx="422" cy="265.5508" fill="#84BE84" rx="3" ry="3" style="stroke:#038048;stroke-width:1.0;"/><text fill="#000000" font-family="sans-serif" font-size="14" lengthAdjust="spacing" textLength="476" x="431" y="269.8477">CalypsoCardCertificateV1Builder  createCalypsoCardCertificateV1Builder ()</text></g><!--class CalypsoCaCertificateV1Builder--><g id="elem_CalypsoCaCertificateV1Builder"><rect codeLine="69" fill="#EBF5FB" height="271.4531" id="CalypsoCaCertificateV1Builder" rx="2.5" ry="2.5" style="stroke:#3498DB;stroke-width:2.0;" width="740" x="50" y="379.1191"/><ellipse cx="313.25" cy="395.1191" fill="#B4A7E5" rx="11" ry="11" style="stroke:#181818;stroke-width:1.0;"/><path d="M314.2031,391.7598 L314.2031,398.416 L315.9219,398.416 Q316.5313,398.416 316.7969,398.6504 Q317.0625,398.8848 317.0625,399.2754 Q317.0625,399.6504 316.7969,399.8848 Q316.5313,400.1191 315.9219,400.1191 L310.7813,400.1191 Q310.1719,400.1191 309.9063,399.8848 Q309.6406,399.6504 309.6406,399.2598 Q309.6406,398.8848 309.9063,398.6504 Q310.1719,398.416 310.7813,398.416 L312.5,398.416 L312.5,391.7598 L310.7813,391.7598 Q310.1719,391.7598 309.9063,391.5254 Q309.6406,391.291 309.6406,390.9004 Q309.6406,390.5254 309.9063,390.291 Q310.1719,390.0566 310.7813,390.0566 L315.9219,390.0566 Q316.5313,390.0566 316.7969,390.291 Q317.0625,390.5254 317.0625,390.9004 Q317.0625,391.291 316.7969,391.5254 Q316.5313,391.7598 315.9219,391.7598 L314.2031,391.7598 Z " fill="#000000"/><ellipse cx="338.75" cy="394.6191" fill="#84BE84" rx="3" ry="3" style="stroke:#038048;stroke-width:1.0;"/><text fill="#000000" font-family="sans-serif" font-size="14" font-style="italic" lengthAdjust="spacing" textLength="194" x="344.75" y="400.916">CalypsoCaCertificateV1Builder</text><line style="stroke:#3498DB;stroke-width:2.0;" x1="51" x2="789" y1="411.1191" y2="411.1191"/><line style="stroke:#3498DB;stroke-width:2.0;" x1="51" x2="789" y1="419.1191" y2="419.1191"/><ellipse cx="61" cy="433.9297" fill="#84BE84" rx="3" ry="3" style="stroke:#038048;stroke-width:1.0;"/><text fill="#000000" font-family="sans-serif" font-size="14" lengthAdjust="spacing" textLength="645" x="70" y="438.2266">CalypsoCaCertificateV1Builder useExternalSigner (CalypsoCaCertificateSignerSpi caCertificateSigner)</text><ellipse cx="61" cy="452.5508" fill="#84BE84" rx="3" ry="3" style="stroke:#038048;stroke-width:1.0;"/><text fill="#000000" font-family="sans-serif" font-size="14" lengthAdjust="spacing" textLength="318" x="70" y="456.8477">CalypsoCaCertificateV1Builder useInternalSigner (</text><text fill="#000000" filter="url(#bjpnjzjw4kmbg1)" font-family="sans-serif" font-size="14" lengthAdjust="spacing" textLength="68" x="388" y="456.8477">PrivateKey</text><text fill="#000000" font-family="sans-serif" font-size="14" lengthAdjust="spacing" textLength="324" x="460" y="456.8477">issuerPrivateKey, byte[] issuerPublicKeyReference)</text><text fill="#000000" font-family="sans-serif" font-size="14" lengthAdjust="spacing" textLength="4" x="70" y="475.4688">&#160;</text><ellipse cx="61" cy="489.793" fill="#84BE84" rx="3" ry="3" style="stroke:#038048;stroke-width:1.0;"/><text fill="#000000" font-family="sans-serif" font-size="14" lengthAdjust="spacing" textLength="306" x="70" y="494.0898">CalypsoCaCertificateV1Builder setCaPublicKey (</text><text fill="#000000" filter="url(#bjpnjzjw4kmbg1)" font-family="sans-serif" font-size="14" lengthAdjust="spacing" textLength="62" x="376" y="494.0898">PublicKey</text><text fill="#000000" font-family="sans-serif" font-size="14" lengthAdjust="spacing" textLength="272" x="442" y="494.0898">caPublicKey, byte[] caPublicKeyReference)</text><ellipse cx="61" cy="508.4141" fill="#84BE84" rx="3" ry="3" style="stroke:#038048;stroke-width:1.0;"/><text fill="#000000" font-family="sans-serif" font-size="14" lengthAdjust="spacing" textLength="454" x="70" y="512.7109">CalypsoCaCertificateV1Builder setStartDate (int year, int month, int day)</text><ellipse cx="61" cy="527.0352" fill="#84BE84" rx="3" ry="3" style="stroke:#038048;stroke-width:1.0;"/><text fill="#000000" font-family="sans-serif" font-size="14" lengthAdjust="spacing" textLength="449" x="70" y="531.332">CalypsoCaCertificateV1Builder setEndDate (int year, int month, int day)</text><ellipse cx="61" cy="545.6563" fill="#84BE84" rx="3" ry="3" style="stroke:#038048;stroke-width:1.0;"/><text fill="#000000" font-family="sans-serif" font-size="14" lengthAdjust="spacing" textLength="309" x="70" y="549.9531">CalypsoCaCertificateV1Builder setAid (byte[] aid)</text><ellipse cx="61" cy="564.2773" fill="#84BE84" rx="3" ry="3" style="stroke:#038048;stroke-width:1.0;"/><text fill="#000000" font-family="sans-serif" font-size="14" lengthAdjust="spacing" textLength="403" x="70" y="568.5742">CalypsoCaCertificateV1Builder setCaRights (byte caRights) ???</text><ellipse cx="61" cy="582.8984" fill="#84BE84" rx="3" ry="3" style="stroke:#038048;stroke-width:1.0;"/><text fill="#000000" font-family="sans-serif" font-size="14" lengthAdjust="spacing" textLength="403" x="70" y="587.1953">CalypsoCaCertificateV1Builder setCaScope (byte caScope) ???</text><ellipse cx="61" cy="601.5195" fill="#84BE84" rx="3" ry="3" style="stroke:#038048;stroke-width:1.0;"/><text fill="#000000" font-family="sans-serif" font-size="14" lengthAdjust="spacing" textLength="519" x="70" y="605.8164">CalypsoCaCertificateV1Builder setCaOperatingMode (byte caOperatingMode) ???</text><text fill="#000000" font-family="sans-serif" font-size="14" lengthAdjust="spacing" textLength="4" x="70" y="624.4375">&#160;</text><ellipse cx="61" cy="638.7617" fill="#84BE84" rx="3" ry="3" style="stroke:#038048;stroke-width:1.0;"/><text fill="#000000" font-family="sans-serif" font-size="14" lengthAdjust="spacing" textLength="198" x="70" y="643.0586">CalypsoCaCertificateV1 build ()</text></g><!--class CalypsoCaCertificateV1--><g id="elem_CalypsoCaCertificateV1"><rect codeLine="83" fill="#FEFECE" height="81.8633" id="CalypsoCaCertificateV1" rx="2.5" ry="2.5" style="stroke:#D4AC0D;stroke-width:2.0;" width="193" x="46.5" y="763.1191"/><ellipse cx="61.5" cy="786.7402" fill="#B4A7E5" rx="11" ry="11" style="stroke:#181818;stroke-width:1.0;"/><path d="M62.4531,783.3809 L62.4531,790.0371 L64.1719,790.0371 Q64.7813,790.0371 65.0469,790.2715 Q65.3125,790.5059 65.3125,790.8965 Q65.3125,791.2715 65.0469,791.5059 Q64.7813,791.7402 64.1719,791.7402 L59.0313,791.7402 Q58.4219,791.7402 58.1563,791.5059 Q57.8906,791.2715 57.8906,790.8809 Q57.8906,790.5059 58.1563,790.2715 Q58.4219,790.0371 59.0313,790.0371 L60.75,790.0371 L60.75,783.3809 L59.0313,783.3809 Q58.4219,783.3809 58.1563,783.1465 Q57.8906,782.9121 57.8906,782.5215 Q57.8906,782.1465 58.1563,781.9121 Q58.4219,781.6777 59.0313,781.6777 L64.1719,781.6777 Q64.7813,781.6777 65.0469,781.9121 Q65.3125,782.1465 65.3125,782.5215 Q65.3125,782.9121 65.0469,783.1465 Q64.7813,783.3809 64.1719,783.3809 L62.4531,783.3809 Z " fill="#000000"/><ellipse cx="80.5" cy="786.2402" fill="#84BE84" rx="3" ry="3" style="stroke:#038048;stroke-width:1.0;"/><text fill="#000000" font-family="sans-serif" font-size="14" font-style="italic" lengthAdjust="spacing" textLength="16" x="104.5" y="783.2266">&lt;&lt;</text><text fill="#000000" filter="url(#bjpnjzjw4kmbg0)" font-family="sans-serif" font-size="14" font-style="italic" lengthAdjust="spacing" textLength="82" x="120.5" y="783.2266">CaCertificate</text><text fill="#000000" font-family="sans-serif" font-size="14" font-style="italic" lengthAdjust="spacing" textLength="16" x="202.5" y="783.2266">&gt;&gt;</text><text fill="#000000" font-family="sans-serif" font-size="14" font-style="italic" lengthAdjust="spacing" textLength="150" x="86.5" y="801.8477">CalypsoCaCertificateV1</text><line style="stroke:#D4AC0D;stroke-width:2.0;" x1="47.5" x2="238.5" y1="810.3613" y2="810.3613"/><line style="stroke:#D4AC0D;stroke-width:2.0;" x1="47.5" x2="238.5" y1="818.3613" y2="818.3613"/><ellipse cx="57.5" cy="833.1719" fill="#84BE84" rx="3" ry="3" style="stroke:#038048;stroke-width:1.0;"/><text fill="#000000" font-family="sans-serif" font-size="14" lengthAdjust="spacing" textLength="130" x="66.5" y="837.4688">byte[] getRawData ()</text></g><!--class CalypsoCaCertificateSignerSpi--><g id="elem_CalypsoCaCertificateSignerSpi"><rect codeLine="87" fill="#FDEDEC" height="103.8633" id="CalypsoCaCertificateSignerSpi" rx="2.5" ry="2.5" style="stroke:#E74C3C;stroke-width:2.0;" width="491" x="274.5" y="752.1191"/><ellipse cx="413.25" cy="768.1191" fill="#B4A7E5" rx="11" ry="11" style="stroke:#181818;stroke-width:1.0;"/><path d="M414.2031,764.7598 L414.2031,771.416 L415.9219,771.416 Q416.5313,771.416 416.7969,771.6504 Q417.0625,771.8848 417.0625,772.2754 Q417.0625,772.6504 416.7969,772.8848 Q416.5313,773.1191 415.9219,773.1191 L410.7813,773.1191 Q410.1719,773.1191 409.9063,772.8848 Q409.6406,772.6504 409.6406,772.2598 Q409.6406,771.8848 409.9063,771.6504 Q410.1719,771.416 410.7813,771.416 L412.5,771.416 L412.5,764.7598 L410.7813,764.7598 Q410.1719,764.7598 409.9063,764.5254 Q409.6406,764.291 409.6406,763.9004 Q409.6406,763.5254 409.9063,763.291 Q410.1719,763.0566 410.7813,763.0566 L415.9219,763.0566 Q416.5313,763.0566 416.7969,763.291 Q417.0625,763.5254 417.0625,763.9004 Q417.0625,764.291 416.7969,764.5254 Q416.5313,764.7598 415.9219,764.7598 L414.2031,764.7598 Z " fill="#000000"/><ellipse cx="438.75" cy="767.6191" fill="#84BE84" rx="3" ry="3" style="stroke:#038048;stroke-width:1.0;"/><text fill="#000000" font-family="sans-serif" font-size="14" font-style="italic" lengthAdjust="spacing" textLength="194" x="444.75" y="773.916">CalypsoCaCertificateSignerSpi</text><line style="stroke:#E74C3C;stroke-width:2.0;" x1="275.5" x2="764.5" y1="784.1191" y2="784.1191"/><line style="stroke:#E74C3C;stroke-width:2.0;" x1="275.5" x2="764.5" y1="792.1191" y2="792.1191"/><ellipse cx="285.5" cy="806.9297" fill="#84BE84" rx="3" ry="3" style="stroke:#038048;stroke-width:1.0;"/><text fill="#000000" font-family="sans-serif" font-size="14" lengthAdjust="spacing" textLength="239" x="294.5" y="811.2266">byte[] getIssuerPublicKeyReference ()</text><ellipse cx="285.5" cy="825.5508" fill="#84BE84" rx="3" ry="3" style="stroke:#038048;stroke-width:1.0;"/><text fill="#000000" font-family="sans-serif" font-size="14" lengthAdjust="spacing" textLength="329" x="294.5" y="829.8477">byte[] generateSignedCertificate (byte[] allData) ???</text><ellipse cx="285.5" cy="844.1719" fill="#84BE84" rx="3" ry="3" style="stroke:#038048;stroke-width:1.0;"/><text fill="#000000" font-family="sans-serif" font-size="14" lengthAdjust="spacing" textLength="465" x="294.5" y="848.4688">byte[] generateSignedCertificate (byte[] data, byte[] recoverableData) ???</text></g><!--class CalypsoCardCertificateV1Builder--><g id="elem_CalypsoCardCertificateV1Builder"><rect codeLine="95" fill="#EBF5FB" height="271.4531" id="CalypsoCardCertificateV1Builder" rx="2.5" ry="2.5" style="stroke:#3498DB;stroke-width:2.0;" width="753" x="846.5" y="379.1191"/><ellipse cx="1109.75" cy="395.1191" fill="#B4A7E5" rx="11" ry="11" style="stroke:#181818;stroke-width:1.0;"/><path d="M1110.7031,391.7598 L1110.7031,398.416 L1112.4219,398.416 Q1113.0313,398.416 1113.2969,398.6504 Q1113.5625,398.8848 1113.5625,399.2754 Q1113.5625,399.6504 1113.2969,399.8848 Q1113.0313,400.1191 1112.4219,400.1191 L1107.2813,400.1191 Q1106.6719,400.1191 1106.4063,399.8848 Q1106.1406,399.6504 1106.1406,399.2598 Q1106.1406,398.8848 1106.4063,398.6504 Q1106.6719,398.416 1107.2813,398.416 L1109,398.416 L1109,391.7598 L1107.2813,391.7598 Q1106.6719,391.7598 1106.4063,391.5254 Q1106.1406,391.291 1106.1406,390.9004 Q1106.1406,390.5254 1106.4063,390.291 Q1106.6719,390.0566 1107.2813,390.0566 L1112.4219,390.0566 Q1113.0313,390.0566 1113.2969,390.291 Q1113.5625,390.5254 1113.5625,390.9004 Q1113.5625,391.291 1113.2969,391.5254 Q1113.0313,391.7598 1112.4219,391.7598 L1110.7031,391.7598 Z " fill="#000000"/><ellipse cx="1135.25" cy="394.6191" fill="#84BE84" rx="3" ry="3" style="stroke:#038048;stroke-width:1.0;"/><text fill="#000000" font-family="sans-serif" font-size="14" font-style="italic" lengthAdjust="spacing" textLength="207" x="1141.25" y="400.916">CalypsoCardCertificateV1Builder</text><line style="stroke:#3498DB;stroke-width:2.0;" x1="847.5" x2="1598.5" y1="411.1191" y2="411.1191"/><line style="stroke:#3498DB;stroke-width:2.0;" x1="847.5" x2="1598.5" y1="419.1191" y2="419.1191"/><ellipse cx="857.5" cy="433.9297" fill="#84BE84" rx="3" ry="3" style="stroke:#038048;stroke-width:1.0;"/><text fill="#000000" font-family="sans-serif" font-size="14" lengthAdjust="spacing" textLength="684" x="866.5" y="438.2266">CalypsoCardCertificateV1Builder useExternalSigner (CalypsoCardCertificateSignerSpi cardCertificateSigner)</text><ellipse cx="857.5" cy="452.5508" fill="#84BE84" rx="3" ry="3" style="stroke:#038048;stroke-width:1.0;"/><text fill="#000000" font-family="sans-serif" font-size="14" lengthAdjust="spacing" textLength="331" x="866.5" y="456.8477">CalypsoCardCertificateV1Builder useInternalSigner (</text><text fill="#000000" filter="url(#bjpnjzjw4kmbg1)" font-family="sans-serif" font-size="14" lengthAdjust="spacing" textLength="68" x="1197.5" y="456.8477">PrivateKey</text><text fill="#000000" font-family="sans-serif" font-size="14" lengthAdjust="spacing" textLength="324" x="1269.5" y="456.8477">issuerPrivateKey, byte[] issuerPublicKeyReference)</text><text fill="#000000" font-family="sans-serif" font-size="14" lengthAdjust="spacing" textLength="4" x="866.5" y="475.4688">&#160;</text><ellipse cx="857.5" cy="489.793" fill="#84BE84" rx="3" ry="3" style="stroke:#038048;stroke-width:1.0;"/><text fill="#000000" font-family="sans-serif" font-size="14" lengthAdjust="spacing" textLength="466" x="866.5" y="494.0898">CalypsoCardCertificateV1Builder setCardPublicKey (byte[] cardPublicKey)</text><ellipse cx="857.5" cy="508.4141" fill="#84BE84" rx="3" ry="3" style="stroke:#038048;stroke-width:1.0;"/><text fill="#000000" font-family="sans-serif" font-size="14" lengthAdjust="spacing" textLength="467" x="866.5" y="512.7109">CalypsoCardCertificateV1Builder setStartDate (int year, int month, int day)</text><ellipse cx="857.5" cy="527.0352" fill="#84BE84" rx="3" ry="3" style="stroke:#038048;stroke-width:1.0;"/><text fill="#000000" font-family="sans-serif" font-size="14" lengthAdjust="spacing" textLength="462" x="866.5" y="531.332">CalypsoCardCertificateV1Builder setEndDate (int year, int month, int day)</text><ellipse cx="857.5" cy="545.6563" fill="#84BE84" rx="3" ry="3" style="stroke:#038048;stroke-width:1.0;"/><text fill="#000000" font-family="sans-serif" font-size="14" lengthAdjust="spacing" textLength="322" x="866.5" y="549.9531">CalypsoCardCertificateV1Builder setAid (byte[] aid)</text><ellipse cx="857.5" cy="564.2773" fill="#84BE84" rx="3" ry="3" style="stroke:#038048;stroke-width:1.0;"/><text fill="#000000" font-family="sans-serif" font-size="14" lengthAdjust="spacing" textLength="482" x="866.5" y="568.5742">CalypsoCardCertificateV1Builder setCardSerialNumber (byte[] serialNumber)</text><ellipse cx="857.5" cy="582.8984" fill="#84BE84" rx="3" ry="3" style="stroke:#038048;stroke-width:1.0;"/><text fill="#000000" font-family="sans-serif" font-size="14" lengthAdjust="spacing" textLength="450" x="866.5" y="587.1953">CalypsoCardCertificateV1Builder setCardStartupInfo (byte[] startupInfo)</text><ellipse cx="857.5" cy="601.5195" fill="#84BE84" rx="3" ry="3" style="stroke:#038048;stroke-width:1.0;"/><text fill="#000000" font-family="sans-serif" font-size="14" lengthAdjust="spacing" textLength="329" x="866.5" y="605.8164">CalypsoCardCertificateV1Builder setIndex (int index)</text><text fill="#000000" font-family="sans-serif" font-size="14" lengthAdjust="spacing" textLength="4" x="866.5" y="624.4375">&#160;</text><ellipse cx="857.5" cy="638.7617" fill="#84BE84" rx="3" ry="3" style="stroke:#038048;stroke-width:1.0;"/><text fill="#000000" font-family="sans-serif" font-size="14" lengthAdjust="spacing" textLength="211" x="866.5" y="643.0586">CalypsoCardCertificateV1 build ()</text></g><!--class CalypsoCardCertificateV1--><g id="elem_CalypsoCardCertificateV1"><rect codeLine="109" fill="#FEFECE" height="81.8633" id="CalypsoCardCertificateV1" rx="2.5" ry="2.5" style="stroke:#D4AC0D;stroke-width:2.0;" width="206" x="846" y="763.1191"/><ellipse cx="861" cy="786.7402" fill="#B4A7E5" rx="11" ry="11" style="stroke:#181818;stroke-width:1.0;"/><path d="M861.9531,783.3809 L861.9531,790.0371 L863.6719,790.0371 Q864.2813,790.0371 864.5469,790.2715 Q864.8125,790.5059 864.8125,790.8965 Q864.8125,791.2715 864.5469,791.5059 Q864.2813,791.7402 863.6719,791.7402 L858.5313,791.7402 Q857.9219,791.7402 857.6563,791.5059 Q857.3906,791.2715 857.3906,790.8809 Q857.3906,790.5059 857.6563,790.2715 Q857.9219,790.0371 858.5313,790.0371 L860.25,790.0371 L860.25,783.3809 L858.5313,783.3809 Q857.9219,783.3809 857.6563,783.1465 Q857.3906,782.9121 857.3906,782.5215 Q857.3906,782.1465 857.6563,781.9121 Q857.9219,781.6777 858.5313,781.6777 L863.6719,781.6777 Q864.2813,781.6777 864.5469,781.9121 Q864.8125,782.1465 864.8125,782.5215 Q864.8125,782.9121 864.5469,783.1465 Q864.2813,783.3809 863.6719,783.3809 L861.9531,783.3809 Z " fill="#000000"/><ellipse cx="880" cy="786.2402" fill="#84BE84" rx="3" ry="3" style="stroke:#038048;stroke-width:1.0;"/><text fill="#000000" font-family="sans-serif" font-size="14" font-style="italic" lengthAdjust="spacing" textLength="16" x="904" y="783.2266">&lt;&lt;</text><text fill="#000000" filter="url(#bjpnjzjw4kmbg0)" font-family="sans-serif" font-size="14" font-style="italic" lengthAdjust="spacing" textLength="95" x="920" y="783.2266">CardCertificate</text><text fill="#000000" font-family="sans-serif" font-size="14" font-style="italic" lengthAdjust="spacing" textLength="16" x="1015" y="783.2266">&gt;&gt;</text><text fill="#000000" font-family="sans-serif" font-size="14" font-style="italic" lengthAdjust="spacing" textLength="163" x="886" y="801.8477">CalypsoCardCertificateV1</text><line style="stroke:#D4AC0D;stroke-width:2.0;" x1="847" x2="1051" y1="810.3613" y2="810.3613"/><line style="stroke:#D4AC0D;stroke-width:2.0;" x1="847" x2="1051" y1="818.3613" y2="818.3613"/><ellipse cx="857" cy="833.1719" fill="#84BE84" rx="3" ry="3" style="stroke:#038048;stroke-width:1.0;"/><text fill="#000000" font-family="sans-serif" font-size="14" lengthAdjust="spacing" textLength="130" x="866" y="837.4688">byte[] getRawData ()</text></g><!--class CalypsoCardCertificateSignerSpi--><g id="elem_CalypsoCardCertificateSignerSpi"><rect codeLine="113" fill="#FDEDEC" height="103.8633" id="CalypsoCardCertificateSignerSpi" rx="2.5" ry="2.5" style="stroke:#E74C3C;stroke-width:2.0;" width="491" x="1087.5" y="752.1191"/><ellipse cx="1219.75" cy="768.1191" fill="#B4A7E5" rx="11" ry="11" style="stroke:#181818;stroke-width:1.0;"/><path d="M1220.7031,764.7598 L1220.7031,771.416 L1222.4219,771.416 Q1223.0313,771.416 1223.2969,771.6504 Q1223.5625,771.8848 1223.5625,772.2754 Q1223.5625,772.6504 1223.2969,772.8848 Q1223.0313,773.1191 1222.4219,773.1191 L1217.2813,773.1191 Q1216.6719,773.1191 1216.4063,772.8848 Q1216.1406,772.6504 1216.1406,772.2598 Q1216.1406,771.8848 1216.4063,771.6504 Q1216.6719,771.416 1217.2813,771.416 L1219,771.416 L1219,764.7598 L1217.2813,764.7598 Q1216.6719,764.7598 1216.4063,764.5254 Q1216.1406,764.291 1216.1406,763.9004 Q1216.1406,763.5254 1216.4063,763.291 Q1216.6719,763.0566 1217.2813,763.0566 L1222.4219,763.0566 Q1223.0313,763.0566 1223.2969,763.291 Q1223.5625,763.5254 1223.5625,763.9004 Q1223.5625,764.291 1223.2969,764.5254 Q1223.0313,764.7598 1222.4219,764.7598 L1220.7031,764.7598 Z " fill="#000000"/><ellipse cx="1245.25" cy="767.6191" fill="#84BE84" rx="3" ry="3" style="stroke:#038048;stroke-width:1.0;"/><text fill="#000000" font-family="sans-serif" font-size="14" font-style="italic" lengthAdjust="spacing" textLength="207" x="1251.25" y="773.916">CalypsoCardCertificateSignerSpi</text><line style="stroke:#E74C3C;stroke-width:2.0;" x1="1088.5" x2="1577.5" y1="784.1191" y2="784.1191"/><line style="stroke:#E74C3C;stroke-width:2.0;" x1="1088.5" x2="1577.5" y1="792.1191" y2="792.1191"/><ellipse cx="1098.5" cy="806.9297" fill="#84BE84" rx="3" ry="3" style="stroke:#038048;stroke-width:1.0;"/><text fill="#000000" font-family="sans-serif" font-size="14" lengthAdjust="spacing" textLength="239" x="1107.5" y="811.2266">byte[] getIssuerPublicKeyReference ()</text><ellipse cx="1098.5" cy="825.5508" fill="#84BE84" rx="3" ry="3" style="stroke:#038048;stroke-width:1.0;"/><text fill="#000000" font-family="sans-serif" font-size="14" lengthAdjust="spacing" textLength="329" x="1107.5" y="829.8477">byte[] generateSignedCertificate (byte[] allData) ???</text><ellipse cx="1098.5" cy="844.1719" fill="#84BE84" rx="3" ry="3" style="stroke:#038048;stroke-width:1.0;"/><text fill="#000000" font-family="sans-serif" font-size="14" lengthAdjust="spacing" textLength="465" x="1107.5" y="848.4688">byte[] generateSignedCertificate (byte[] data, byte[] recoverableData) ???</text></g><!--link CalypsoCertificateApiFactory to CalypsoCaCertificateV1Builder--><g id="link_CalypsoCertificateApiFactory_CalypsoCaCertificateV1Builder"><path codeLine="124" d="M625.77,277.2381 C601.97,304.5791 573.3164,337.4946 541.0884,374.5176 " fill="none" id="CalypsoCertificateApiFactory-to-CalypsoCaCertificateV1Builder" style="stroke:#3498DB;stroke-width:2.0;stroke-dasharray:7.0,7.0;"/><polygon fill="#3498DB" points="537.149,379.0431,546.0752,374.8811,540.4319,375.2718,540.0411,369.6285,537.149,379.0431" style="stroke:#3498DB;stroke-width:2.0;"/><polygon fill="#000000" points="599.7171,320.5359,607.8726,315.6433,603.4392,311.784,599.7171,320.5359" style="stroke:#000000;stroke-width:1.0;"/><text fill="#000000" font-family="sans-serif" font-size="13" lengthAdjust="spacing" textLength="40" x="612" y="322.1475">provide</text></g><!--link CalypsoCertificateApiFactory to CalypsoCardCertificateV1Builder--><g id="link_CalypsoCertificateApiFactory_CalypsoCardCertificateV1Builder"><path codeLine="125" d="M745.987,277.2381 C801.16,304.5791 871.3399,339.356 946.0509,376.379 " fill="none" id="CalypsoCertificateApiFactory-to-CalypsoCardCertificateV1Builder" style="stroke:#3498DB;stroke-width:2.0;stroke-dasharray:7.0,7.0;"/><polygon fill="#3498DB" points="951.427,379.0431,945.1389,371.4629,946.9469,376.823,941.5868,378.631,951.427,379.0431" style="stroke:#3498DB;stroke-width:2.0;"/><polygon fill="#000000" points="853.4801,318.9847,846.6805,312.3352,844.0706,317.6019,853.4801,318.9847" style="stroke:#000000;stroke-width:1.0;"/><text fill="#000000" font-family="sans-serif" font-size="13" lengthAdjust="spacing" textLength="40" x="858" y="322.1475">provide</text></g><!--link CalypsoCaCertificateV1Builder to CalypsoCaCertificateSignerSpi--><g id="link_CalypsoCaCertificateV1Builder_CalypsoCaCertificateSignerSpi"><path codeLine="127" d="M466.926,650.5301 C479.51,686.7111 490.3849,717.9751 500.2859,746.4411 " fill="none" id="CalypsoCaCertificateV1Builder-to-CalypsoCaCertificateSignerSpi" style="stroke:#27AE60;stroke-width:2.0;stroke-dasharray:7.0,7.0;"/><polygon fill="#27AE60" points="502.257,752.1081,503.0784,742.2936,500.6144,747.3856,495.5224,744.9217,502.257,752.1081" style="stroke:#27AE60;stroke-width:2.0;"/><polygon fill="#000000" points="488.6426,694.4871,488.4469,684.9786,482.8953,686.9096,488.6426,694.4871" style="stroke:#000000;stroke-width:1.0;"/><text fill="#000000" font-family="sans-serif" font-size="13" lengthAdjust="spacing" textLength="21" x="496" y="695.1475">use</text></g><!--link CalypsoCaCertificateV1Builder to CalypsoCaCertificateV1--><g id="link_CalypsoCaCertificateV1Builder_CalypsoCaCertificateV1"><path codeLine="128" d="M290.016,650.5301 C250.518,691.5261 214.255,729.1633 185.817,758.6793 " fill="none" id="CalypsoCaCertificateV1Builder-to-CalypsoCaCertificateV1" style="stroke:#3498DB;stroke-width:2.0;stroke-dasharray:7.0,7.0;"/><polygon fill="#3498DB" points="181.654,763.0001,190.779,759.2943,185.1232,759.3995,185.018,753.7436,181.654,763.0001" style="stroke:#3498DB;stroke-width:2.0;"/><polygon fill="#000000" points="258.5308,693.3653,266.923,688.8908,262.6902,684.8125,258.5308,693.3653" style="stroke:#000000;stroke-width:1.0;"/><text fill="#000000" font-family="sans-serif" font-size="13" lengthAdjust="spacing" textLength="40" x="271" y="695.1475">provide</text></g><!--link CalypsoCardCertificateV1Builder to CalypsoCardCertificateSignerSpi--><g id="link_CalypsoCardCertificateV1Builder_CalypsoCardCertificateSignerSpi"><path codeLine="130" d="M1274.62,650.5301 C1288.46,686.7111 1300.4462,718.0382 1311.3362,746.5042 " fill="none" id="CalypsoCardCertificateV1Builder-to-CalypsoCardCertificateSignerSpi" style="stroke:#27AE60;stroke-width:2.0;stroke-dasharray:7.0,7.0;"/><polygon fill="#27AE60" points="1313.48,752.1081,1314.0002,742.273,1311.6935,747.4382,1306.5283,745.1315,1313.48,752.1081" style="stroke:#27AE60;stroke-width:2.0;"/><polygon fill="#000000" points="1297.7865,694.4346,1297.2996,684.9365,1291.8097,687.0367,1297.7865,694.4346" style="stroke:#000000;stroke-width:1.0;"/><text fill="#000000" font-family="sans-serif" font-size="13" lengthAdjust="spacing" textLength="21" x="1305" y="695.1475">use</text></g><!--link CalypsoCardCertificateV1Builder to CalypsoCardCertificateV1--><g id="link_CalypsoCardCertificateV1Builder_CalypsoCardCertificateV1"><path codeLine="131" d="M1094.42,650.5301 C1055.35,691.5261 1019.5098,729.1411 991.3748,758.6571 " fill="none" id="CalypsoCardCertificateV1Builder-to-CalypsoCardCertificateV1" style="stroke:#3498DB;stroke-width:2.0;stroke-dasharray:7.0,7.0;"/><polygon fill="#3498DB" points="987.235,763.0001,996.3401,759.2455,990.6849,759.381,990.5494,753.7257,987.235,763.0001" style="stroke:#3498DB;stroke-width:2.0;"/><polygon fill="#000000" points="1062.5505,693.3842,1070.9182,688.8639,1066.6631,684.8088,1062.5505,693.3842" style="stroke:#000000;stroke-width:1.0;"/><text fill="#000000" font-family="sans-serif" font-size="13" lengthAdjust="spacing" textLength="40" x="1075" y="695.1475">provide</text></g><!--SRC=[xLXTSzeu57tdLsYJXmPQI0AaD9ai7MFBNQPjaWcqCvbk9oDi0TeOsIF9IJsT_FUL_85ji0rEExClovEvllUSgwkh8rc220StWFnDCLiHYXoW8oVmk0jqp0IP4mi93BIRCJZfd7PUWwFkIRVVFkcsJtlD1gOs4252unNuyqym_Gj-Xl91_jLTty4-uu1mxcCER0mkm588ZryS7o_5oh5SnsMMQsFUiTpLyPmT2pHpCFBRDcvRKNI1IJvoig1jpq7YkF67ZUU4Og3VVxY5TwV0V6UUc-SRvYumksRFx6-OUm2UmG7SzEu3Os2C36F3V0PqJJUDxeRvBHWPUayVPCoVnbSVGQz__iuOPQnV9X1q1nfyUw9grMw3YGWSMHUnH0BOBdqbm9FB7i0J4Kj0yHDun8mJbm9t3kHOgV1NZWnhy0T2FSJG2d216NP5u65jv38RCrrL51ngvuPkc8MEuvpZgAyDu5cXevv7D8pJKRVG4UOSuUYy9wd3yS4hG-MRYT8Tn7daFrqIwu5Ypa4MLcFCVSg-aaXts77SfoqKP3qicEjJEsOseGbrM4mMknXzJJyn9EGjjdVWNLuoR0-74jQ01jGhODUUSD2NVT1O4jdeYJ4jasIzyPad5yekOYzq2xdxK3S7bTofyplOxsj6Gh-svpAOEVvkVkKKZcTadfcZIlR4DUxrc3ksvfW_C8pfJkg5yWgvpyq1D2kvrxxnceh94_CcUx0FUH1oQxAFu2xkqBMhz-1PbZh8CqUQg5zVJU7LD5H51oz2oNIzK7BlxqD43YBx_Jsu2Eqj-GR-a41AZfNqCZoNgDJ2FFLfWSkP7CI5H-Z3iDNwY0FFzLBnHinMeQtMvR5o6-Q3Wd1L3Vz1ZwZ3iUKp8eB4KMKO9THeUDA25XWSM15knqetXGE0E40U0Jz3xDUMAXGuQBNcQXkHL74kcNr4yyWDSprbm3oCprao4nXXXhW_kK22MCyWHPu8HkW2V8Mta_7rLUZw72L1g2pR75cucDr4bd1PaBPfXYS9G9cGhwSZdpXowe75iFnVxNFKB41ZTg7l9c29MmmPZIup6s7nB9JDVtlenLaMZ7sFyViS9oqvaVklIgqe87etaLrXRPkRDGd7D4-OwzqRHXvbWEpxk76ZamPBxM_0B13us_VaXJzpY2NjjybgQZRg9CInqD4QP3ERn9uaOwMkwpmojamEzLAO2CI4eSvaHtB2GO0HUmFKqygbOXazsYYe2mkf_Vj1DMA3etZiYDZDsjM-9Okbu166h5xqjmdUltzV6sfYIPLP8uN_NWPqBSLAwX5TV9PdrpLWpXe1xuCCPWewAnpFHGlwuF8o8_OvZBZVXiE_QJ55g1Gbx1iA44_L0ejRz2JR0HKdjfOXxf5OXoRhRM1FEKfr8ZaivSCtyXcNhE1iWjjXLCr9H9LLrxGd7KUDShiFwi7O4cEznXcsN7bqLzyjnTZF6nNTadPcnqMLEtYrl9Vi6Ji5lYIkIk9p8LcHBtZHh4txdmbzIKhXGcTsHkpN2fwnDck3_g9ubmF_adoNm-ufuDLLd616a7FbhsPgQcCqdZ6-45RLqlV6TEwcgAcjFkYOslX7L46Y7lTjcXTgU0wbICKtQF8wlfd3RrDoMTYzjBn44FvNysVrtQTnxbf47WXSoXkDoa-HJcUuuy1-6DyfNG2FkO_gQtDO0xAauOj06zLvb6MQplvXTCzreJGzasGzEDdDrScLZAXyrBiJh0rPbcJuoVz9kxl-CetlGQicglrjIMmRq-_jwXPu0KpnYE849zExJz4zRQ80A2fET8lwypbhxyZFpCFa9dNhLISw_1qcTwfR3l8KKnxDx4uYELc4Vm40]--></g></svg>