<?xml version="1.0" encoding="us-ascii" standalone="no"?><svg xmlns="http://www.w3.org/2000/svg" xmlns:xlink="http://www.w3.org/1999/xlink" contentStyleType="text/css" height="1055px" preserveAspectRatio="none" style="width:1555px;height:1055px;background:#FFFFFF;" version="1.1" viewBox="0 0 1555 1055" width="1555px" zoomAndPan="magnify"><defs><filter height="1" id="b1bug59z2mjvcb0" width="1" x="0" y="0"><feFlood flood-color="#FFFF00" result="flood"/><feComposite in="SourceGraphic" in2="flood" operator="over"/></filter></defs><g><text fill="#000000" font-family="sans-serif" font-size="14" font-weight="bold" lengthAdjust="spacing" textLength="346" x="597.5" y="25.1074">Terminal Calypso Certificate API 0.1.+ (2024-01-26)</text><rect fill="#DDDDDD" height="65.8633" id="_legend" rx="7.5" ry="7.5" style="stroke:#000000;stroke-width:1.0;" width="178" x="681.5" y="51.6211"/><text fill="#000000" font-family="sans-serif" font-size="14" lengthAdjust="spacing" text-decoration="underline" textLength="88" x="686.5" y="71.7285">Colors legend</text><text fill="#000000" font-family="sans-serif" font-size="14" lengthAdjust="spacing" textLength="4" x="778.5" y="71.7285">:</text><ellipse cx="692" cy="86.3633" fill="#000000" rx="2.5" ry="2.5" style="stroke:#000000;stroke-width:0.0;"/><text fill="#000000" font-family="sans-serif" font-size="14" lengthAdjust="spacing" text-decoration="underline" textLength="148" x="698.5" y="90.3496">External API references</text><text fill="#000000" font-family="sans-serif" font-size="14" lengthAdjust="spacing" textLength="4" x="850.5" y="90.3496">:</text><rect fill="#000000" height="3.5" style="stroke:#000000;stroke-width:0.0;" width="3.5" x="695.5" y="102.4844"/><text fill="#000000" filter="url(#b1bug59z2mjvcb0)" font-family="sans-serif" font-size="14" lengthAdjust="spacing" textLength="79" x="702.5" y="108.9707">java.security</text><!--cluster api--><g id="cluster_api"><path d="M8.5,136.498 L137.5,136.498 A3.75,3.75 0 0 1 140,138.998 L147,161.1191 L1545.5,161.1191 A2.5,2.5 0 0 1 1548,163.6191 L1548,1045.998 A2.5,2.5 0 0 1 1545.5,1048.498 L8.5,1048.498 A2.5,2.5 0 0 1 6,1045.998 L6,138.998 A2.5,2.5 0 0 1 8.5,136.498 " fill="#F8F9F9" style="stroke:#000000;stroke-width:1.5;"/><line style="stroke:#000000;stroke-width:1.5;" x1="6" x2="147" y1="161.1191" y2="161.1191"/><text fill="#000000" font-family="sans-serif" font-size="14" font-weight="bold" lengthAdjust="spacing" textLength="128" x="10" y="153.6055">calypso.certificate</text></g><!--cluster ca--><g id="cluster_ca"><path d="M32.5,370.498 L49.5,370.498 A3.75,3.75 0 0 1 52,372.998 L59,395.1191 L755.5,395.1191 A2.5,2.5 0 0 1 758,397.6191 L758,1021.998 A2.5,2.5 0 0 1 755.5,1024.498 L32.5,1024.498 A2.5,2.5 0 0 1 30,1021.998 L30,372.998 A2.5,2.5 0 0 1 32.5,370.498 " fill="#F2F3F4" style="stroke:#000000;stroke-width:1.5;"/><line style="stroke:#000000;stroke-width:1.5;" x1="30" x2="59" y1="395.1191" y2="395.1191"/><text fill="#000000" font-family="sans-serif" font-size="14" font-weight="bold" lengthAdjust="spacing" textLength="16" x="34" y="387.6055">ca</text></g><!--cluster caSpi--><g id="cluster_caSpi"><path d="M134.5,843.498 L156.5,843.498 A3.75,3.75 0 0 1 159,845.998 L166,868.1191 L653.5,868.1191 A2.5,2.5 0 0 1 656,870.6191 L656,997.998 A2.5,2.5 0 0 1 653.5,1000.498 L134.5,1000.498 A2.5,2.5 0 0 1 132,997.998 L132,845.998 A2.5,2.5 0 0 1 134.5,843.498 " fill="#E5E7E9" style="stroke:#000000;stroke-width:1.5;"/><line style="stroke:#000000;stroke-width:1.5;" x1="132" x2="166" y1="868.1191" y2="868.1191"/><text fill="#000000" font-family="sans-serif" font-size="14" font-weight="bold" lengthAdjust="spacing" textLength="21" x="136" y="860.6055">spi</text></g><!--cluster card--><g id="cluster_card"><path d="M784.5,361.498 L816.5,361.498 A3.75,3.75 0 0 1 819,363.998 L826,386.1191 L1521.5,386.1191 A2.5,2.5 0 0 1 1524,388.6191 L1524,1021.998 A2.5,2.5 0 0 1 1521.5,1024.498 L784.5,1024.498 A2.5,2.5 0 0 1 782,1021.998 L782,363.998 A2.5,2.5 0 0 1 784.5,361.498 " fill="#F2F3F4" style="stroke:#000000;stroke-width:1.5;"/><line style="stroke:#000000;stroke-width:1.5;" x1="782" x2="826" y1="386.1191" y2="386.1191"/><text fill="#000000" font-family="sans-serif" font-size="14" font-weight="bold" lengthAdjust="spacing" textLength="31" x="786" y="378.6055">card</text></g><!--cluster cardSpi--><g id="cluster_cardSpi"><path d="M893.5,843.498 L915.5,843.498 A3.75,3.75 0 0 1 918,845.998 L925,868.1191 L1412.5,868.1191 A2.5,2.5 0 0 1 1415,870.6191 L1415,997.998 A2.5,2.5 0 0 1 1412.5,1000.498 L893.5,1000.498 A2.5,2.5 0 0 1 891,997.998 L891,845.998 A2.5,2.5 0 0 1 893.5,843.498 " fill="#E5E7E9" style="stroke:#000000;stroke-width:1.5;"/><line style="stroke:#000000;stroke-width:1.5;" x1="891" x2="925" y1="868.1191" y2="868.1191"/><text fill="#000000" font-family="sans-serif" font-size="14" font-weight="bold" lengthAdjust="spacing" textLength="21" x="895" y="860.6055">spi</text></g><!--class ApiProperties--><g id="elem_ApiProperties"><rect codeLine="60" fill="#E9F7EF" height="66.6211" id="ApiProperties" rx="2.5" ry="2.5" style="stroke:#27AE60;stroke-width:2.0;" width="277" x="983.5" y="210.498"/><ellipse cx="998.5" cy="226.498" fill="#ADD1B2" rx="11" ry="11" style="stroke:#181818;stroke-width:1.0;"/><path d="M1001.2656,222.373 Q1001.4219,222.1543 1001.6094,222.0449 Q1001.7969,221.9355 1002.0156,221.9355 Q1002.3906,221.9355 1002.625,222.2012 Q1002.8594,222.4512 1002.8594,223.0605 L1002.8594,224.5137 Q1002.8594,225.123 1002.625,225.3887 Q1002.3906,225.6543 1002.0156,225.6543 Q1001.6719,225.6543 1001.4688,225.4512 Q1001.2656,225.2637 1001.1563,224.748 Q1001.1094,224.3887 1000.9219,224.2012 Q1000.5938,223.8262 999.9844,223.6074 Q999.375,223.3887 998.75,223.3887 Q997.9844,223.3887 997.3438,223.7168 Q996.7188,224.0449 996.2188,224.7949 Q995.7344,225.5449 995.7344,226.5762 L995.7344,227.6699 Q995.7344,228.9043 996.625,229.7324 Q997.5156,230.5449 999.1094,230.5449 Q1000.0469,230.5449 1000.7031,230.2949 Q1001.0938,230.1387 1001.5156,229.7012 Q1001.7813,229.4355 1001.9219,229.3574 Q1002.0781,229.2793 1002.2813,229.2793 Q1002.6094,229.2793 1002.8594,229.5449 Q1003.125,229.7949 1003.125,230.1387 Q1003.125,230.4824 1002.7813,230.8887 Q1002.2813,231.4668 1001.4844,231.7949 Q1000.4063,232.248 999.1094,232.248 Q997.5938,232.248 996.3906,231.623 Q995.4063,231.123 994.7188,230.0605 Q994.0313,228.9824 994.0313,227.7012 L994.0313,226.5449 Q994.0313,225.2168 994.6406,224.0762 Q995.2656,222.9199 996.3594,222.3105 Q997.4531,221.6855 998.6875,221.6855 Q999.4219,221.6855 1000.0625,221.8574 Q1000.7188,222.0137 1001.2656,222.373 Z " fill="#000000"/><ellipse cx="1017.5" cy="225.998" fill="#84BE84" rx="3" ry="3" style="stroke:#038048;stroke-width:1.0;"/><text fill="#000000" font-family="sans-serif" font-size="14" font-weight="bold" lengthAdjust="spacing" textLength="30" x="1023.5" y="232.2949">final</text><text fill="#000000" font-family="sans-serif" font-size="14" lengthAdjust="spacing" textLength="200" x="1057.5" y="232.2949">CalypsoCertificateApiProperties</text><line style="stroke:#27AE60;stroke-width:2.0;" x1="984.5" x2="1259.5" y1="242.498" y2="242.498"/><ellipse cx="994.5" cy="257.3086" fill="none" rx="3" ry="3" style="stroke:#038048;stroke-width:1.0;"/><text fill="#000000" font-family="sans-serif" font-size="14" font-weight="bold" lengthAdjust="spacing" text-decoration="underline" textLength="30" x="1003.5" y="261.6055">final</text><text fill="#000000" font-family="sans-serif" font-size="14" lengthAdjust="spacing" text-decoration="underline" textLength="101" x="1037.5" y="261.6055">String VERSION</text><line style="stroke:#27AE60;stroke-width:2.0;" x1="984.5" x2="1259.5" y1="269.1191" y2="269.1191"/></g><!--class CalypsoCertificateApiFactory--><g id="elem_CalypsoCertificateApiFactory"><rect codeLine="63" fill="#EBF5FB" height="141.1055" id="CalypsoCertificateApiFactory" rx="2.5" ry="2.5" style="stroke:#3498DB;stroke-width:2.0;" width="591" x="86.5" y="173.498"/><ellipse cx="280.75" cy="189.498" fill="#B4A7E5" rx="11" ry="11" style="stroke:#181818;stroke-width:1.0;"/><path d="M281.7031,186.1387 L281.7031,192.7949 L283.4219,192.7949 Q284.0313,192.7949 284.2969,193.0293 Q284.5625,193.2637 284.5625,193.6543 Q284.5625,194.0293 284.2969,194.2637 Q284.0313,194.498 283.4219,194.498 L278.2813,194.498 Q277.6719,194.498 277.4063,194.2637 Q277.1406,194.0293 277.1406,193.6387 Q277.1406,193.2637 277.4063,193.0293 Q277.6719,192.7949 278.2813,192.7949 L280,192.7949 L280,186.1387 L278.2813,186.1387 Q277.6719,186.1387 277.4063,185.9043 Q277.1406,185.6699 277.1406,185.2793 Q277.1406,184.9043 277.4063,184.6699 Q277.6719,184.4355 278.2813,184.4355 L283.4219,184.4355 Q284.0313,184.4355 284.2969,184.6699 Q284.5625,184.9043 284.5625,185.2793 Q284.5625,185.6699 284.2969,185.9043 Q284.0313,186.1387 283.4219,186.1387 L281.7031,186.1387 Z " fill="#000000"/><ellipse cx="306.25" cy="188.998" fill="#84BE84" rx="3" ry="3" style="stroke:#038048;stroke-width:1.0;"/><text fill="#000000" font-family="sans-serif" font-size="14" font-style="italic" lengthAdjust="spacing" textLength="183" x="312.25" y="195.2949">CalypsoCertificateApiFactory</text><line style="stroke:#3498DB;stroke-width:2.0;" x1="87.5" x2="676.5" y1="205.498" y2="205.498"/><line style="stroke:#3498DB;stroke-width:2.0;" x1="87.5" x2="676.5" y1="213.498" y2="213.498"/><ellipse cx="97.5" cy="228.3086" fill="#84BE84" rx="3" ry="3" style="stroke:#038048;stroke-width:1.0;"/><text fill="#000000" font-family="sans-serif" font-size="14" lengthAdjust="spacing" textLength="539" x="106.5" y="232.6055">&lt;T extends CaCertificateSettings&gt; T createCaCertificateSettings (Class&lt;T&gt; classOfT)</text><ellipse cx="97.5" cy="246.9297" fill="#84BE84" rx="3" ry="3" style="stroke:#038048;stroke-width:1.0;"/><text fill="#000000" font-family="sans-serif" font-size="14" lengthAdjust="spacing" textLength="565" x="106.5" y="251.2266">&lt;T extends CardCertificateSettings&gt; T createCardCertificateSettings (Class&lt;T&gt; classOfT)</text><text fill="#000000" font-family="sans-serif" font-size="14" lengthAdjust="spacing" textLength="4" x="106.5" y="269.8477">&#160;</text><ellipse cx="97.5" cy="284.1719" fill="#84BE84" rx="3" ry="3" style="stroke:#038048;stroke-width:1.0;"/><text fill="#000000" font-family="sans-serif" font-size="14" lengthAdjust="spacing" textLength="443" x="106.5" y="288.4688">CaCertificateBuilder createCaCertificateBuilder (CaCertificateSettings)</text><ellipse cx="97.5" cy="302.793" fill="#84BE84" rx="3" ry="3" style="stroke:#038048;stroke-width:1.0;"/><text fill="#000000" font-family="sans-serif" font-size="14" lengthAdjust="spacing" textLength="482" x="106.5" y="307.0898">CardCertificateBuilder createCardCertificateBuilder (CardCertificateSettings)</text></g><!--class CaCertificateSettings--><g id="elem_CaCertificateSettings"><rect codeLine="71" fill="#FEFECE" height="48" id="CaCertificateSettings" rx="2.5" ry="2.5" style="stroke:#D4AC0D;stroke-width:2.0;" width="176" x="423" y="416.998"/><ellipse cx="438" cy="432.998" fill="#B4A7E5" rx="11" ry="11" style="stroke:#181818;stroke-width:1.0;"/><path d="M438.9531,429.6387 L438.9531,436.2949 L440.6719,436.2949 Q441.2813,436.2949 441.5469,436.5293 Q441.8125,436.7637 441.8125,437.1543 Q441.8125,437.5293 441.5469,437.7637 Q441.2813,437.998 440.6719,437.998 L435.5313,437.998 Q434.9219,437.998 434.6563,437.7637 Q434.3906,437.5293 434.3906,437.1387 Q434.3906,436.7637 434.6563,436.5293 Q434.9219,436.2949 435.5313,436.2949 L437.25,436.2949 L437.25,429.6387 L435.5313,429.6387 Q434.9219,429.6387 434.6563,429.4043 Q434.3906,429.1699 434.3906,428.7793 Q434.3906,428.4043 434.6563,428.1699 Q434.9219,427.9355 435.5313,427.9355 L440.6719,427.9355 Q441.2813,427.9355 441.5469,428.1699 Q441.8125,428.4043 441.8125,428.7793 Q441.8125,429.1699 441.5469,429.4043 Q441.2813,429.6387 440.6719,429.6387 L438.9531,429.6387 Z " fill="#000000"/><ellipse cx="457" cy="432.498" fill="#84BE84" rx="3" ry="3" style="stroke:#038048;stroke-width:1.0;"/><text fill="#000000" font-family="sans-serif" font-size="14" font-style="italic" lengthAdjust="spacing" textLength="133" x="463" y="438.7949">CaCertificateSettings</text><line style="stroke:#D4AC0D;stroke-width:2.0;" x1="424" x2="598" y1="448.998" y2="448.998"/><line style="stroke:#D4AC0D;stroke-width:2.0;" x1="424" x2="598" y1="456.998" y2="456.998"/></g><!--class CaCertificateSettingsV1--><g id="elem_CaCertificateSettingsV1"><rect codeLine="73" fill="#EBF5FB" height="234.2109" id="CaCertificateSettingsV1" rx="2.5" ry="2.5" style="stroke:#3498DB;stroke-width:2.0;" width="696" x="46" y="544.498"/><ellipse cx="309.25" cy="560.498" fill="#B4A7E5" rx="11" ry="11" style="stroke:#181818;stroke-width:1.0;"/><path d="M310.2031,557.1387 L310.2031,563.7949 L311.9219,563.7949 Q312.5313,563.7949 312.7969,564.0293 Q313.0625,564.2637 313.0625,564.6543 Q313.0625,565.0293 312.7969,565.2637 Q312.5313,565.498 311.9219,565.498 L306.7813,565.498 Q306.1719,565.498 305.9063,565.2637 Q305.6406,565.0293 305.6406,564.6387 Q305.6406,564.2637 305.9063,564.0293 Q306.1719,563.7949 306.7813,563.7949 L308.5,563.7949 L308.5,557.1387 L306.7813,557.1387 Q306.1719,557.1387 305.9063,556.9043 Q305.6406,556.6699 305.6406,556.2793 Q305.6406,555.9043 305.9063,555.6699 Q306.1719,555.4355 306.7813,555.4355 L311.9219,555.4355 Q312.5313,555.4355 312.7969,555.6699 Q313.0625,555.9043 313.0625,556.2793 Q313.0625,556.6699 312.7969,556.9043 Q312.5313,557.1387 311.9219,557.1387 L310.2031,557.1387 Z " fill="#000000"/><ellipse cx="334.75" cy="559.998" fill="#84BE84" rx="3" ry="3" style="stroke:#038048;stroke-width:1.0;"/><text fill="#000000" font-family="sans-serif" font-size="14" font-style="italic" lengthAdjust="spacing" textLength="150" x="340.75" y="566.2949">CaCertificateSettingsV1</text><line style="stroke:#3498DB;stroke-width:2.0;" x1="47" x2="741" y1="576.498" y2="576.498"/><line style="stroke:#3498DB;stroke-width:2.0;" x1="47" x2="741" y1="584.498" y2="584.498"/><ellipse cx="57" cy="599.3086" fill="#84BE84" rx="3" ry="3" style="stroke:#038048;stroke-width:1.0;"/><text fill="#000000" font-family="sans-serif" font-size="14" lengthAdjust="spacing" textLength="550" x="66" y="603.6055">CaCertificateSettingsV1 useExternalSigner (CaCertificateSignerSpi caCertificateSigner)</text><ellipse cx="57" cy="617.9297" fill="#84BE84" rx="3" ry="3" style="stroke:#038048;stroke-width:1.0;"/><text fill="#000000" font-family="sans-serif" font-size="14" lengthAdjust="spacing" textLength="274" x="66" y="622.2266">CaCertificateSettingsV1 useInternalSigner (</text><text fill="#000000" filter="url(#b1bug59z2mjvcb0)" font-family="sans-serif" font-size="14" lengthAdjust="spacing" textLength="68" x="340" y="622.2266">PrivateKey</text><text fill="#000000" font-family="sans-serif" font-size="14" lengthAdjust="spacing" textLength="324" x="412" y="622.2266">issuerPrivateKey, byte[] issuerPublicKeyReference)</text><text fill="#000000" font-family="sans-serif" font-size="14" lengthAdjust="spacing" textLength="4" x="66" y="640.8477">&#160;</text><ellipse cx="57" cy="655.1719" fill="#84BE84" rx="3" ry="3" style="stroke:#038048;stroke-width:1.0;"/><text fill="#000000" font-family="sans-serif" font-size="14" lengthAdjust="spacing" textLength="262" x="66" y="659.4688">CaCertificateSettingsV1 setCaPublicKey (</text><text fill="#000000" filter="url(#b1bug59z2mjvcb0)" font-family="sans-serif" font-size="14" lengthAdjust="spacing" textLength="62" x="328" y="659.4688">PublicKey</text><text fill="#000000" font-family="sans-serif" font-size="14" lengthAdjust="spacing" textLength="272" x="394" y="659.4688">caPublicKey, byte[] caPublicKeyReference)</text><ellipse cx="57" cy="673.793" fill="#84BE84" rx="3" ry="3" style="stroke:#038048;stroke-width:1.0;"/><text fill="#000000" font-family="sans-serif" font-size="14" lengthAdjust="spacing" textLength="410" x="66" y="678.0898">CaCertificateSettingsV1 setStartDate (int year, int month, int day)</text><ellipse cx="57" cy="692.4141" fill="#84BE84" rx="3" ry="3" style="stroke:#038048;stroke-width:1.0;"/><text fill="#000000" font-family="sans-serif" font-size="14" lengthAdjust="spacing" textLength="405" x="66" y="696.7109">CaCertificateSettingsV1 setEndDate (int year, int month, int day)</text><ellipse cx="57" cy="711.0352" fill="#84BE84" rx="3" ry="3" style="stroke:#038048;stroke-width:1.0;"/><text fill="#000000" font-family="sans-serif" font-size="14" lengthAdjust="spacing" textLength="265" x="66" y="715.332">CaCertificateSettingsV1 setAid (byte[] aid)</text><ellipse cx="57" cy="729.6563" fill="#84BE84" rx="3" ry="3" style="stroke:#038048;stroke-width:1.0;"/><text fill="#000000" font-family="sans-serif" font-size="14" lengthAdjust="spacing" textLength="359" x="66" y="733.9531">CaCertificateSettingsV1 setCaRights (byte caRights) ???</text><ellipse cx="57" cy="748.2773" fill="#84BE84" rx="3" ry="3" style="stroke:#038048;stroke-width:1.0;"/><text fill="#000000" font-family="sans-serif" font-size="14" lengthAdjust="spacing" textLength="359" x="66" y="752.5742">CaCertificateSettingsV1 setCaScope (byte caScope) ???</text><ellipse cx="57" cy="766.8984" fill="#84BE84" rx="3" ry="3" style="stroke:#038048;stroke-width:1.0;"/><text fill="#000000" font-family="sans-serif" font-size="14" lengthAdjust="spacing" textLength="475" x="66" y="771.1953">CaCertificateSettingsV1 setCaOperatingMode (byte caOperatingMode) ???</text></g><!--class CaCertificateBuilder--><g id="elem_CaCertificateBuilder"><rect codeLine="85" fill="#EBF5FB" height="66.6211" id="CaCertificateBuilder" rx="2.5" ry="2.5" style="stroke:#3498DB;stroke-width:2.0;" width="183" x="204.5" y="407.498"/><ellipse cx="225.8" cy="423.498" fill="#B4A7E5" rx="11" ry="11" style="stroke:#181818;stroke-width:1.0;"/><path d="M226.7531,420.1387 L226.7531,426.7949 L228.4719,426.7949 Q229.0813,426.7949 229.3469,427.0293 Q229.6125,427.2637 229.6125,427.6543 Q229.6125,428.0293 229.3469,428.2637 Q229.0813,428.498 228.4719,428.498 L223.3313,428.498 Q222.7219,428.498 222.4563,428.2637 Q222.1906,428.0293 222.1906,427.6387 Q222.1906,427.2637 222.4563,427.0293 Q222.7219,426.7949 223.3313,426.7949 L225.05,426.7949 L225.05,420.1387 L223.3313,420.1387 Q222.7219,420.1387 222.4563,419.9043 Q222.1906,419.6699 222.1906,419.2793 Q222.1906,418.9043 222.4563,418.6699 Q222.7219,418.4355 223.3313,418.4355 L228.4719,418.4355 Q229.0813,418.4355 229.3469,418.6699 Q229.6125,418.9043 229.6125,419.2793 Q229.6125,419.6699 229.3469,419.9043 Q229.0813,420.1387 228.4719,420.1387 L226.7531,420.1387 Z " fill="#000000"/><ellipse cx="246.2" cy="422.998" fill="#84BE84" rx="3" ry="3" style="stroke:#038048;stroke-width:1.0;"/><text fill="#000000" font-family="sans-serif" font-size="14" font-style="italic" lengthAdjust="spacing" textLength="126" x="252.2" y="429.2949">CaCertificateBuilder</text><line style="stroke:#3498DB;stroke-width:2.0;" x1="205.5" x2="386.5" y1="439.498" y2="439.498"/><line style="stroke:#3498DB;stroke-width:2.0;" x1="205.5" x2="386.5" y1="447.498" y2="447.498"/><ellipse cx="215.5" cy="462.3086" fill="#84BE84" rx="3" ry="3" style="stroke:#038048;stroke-width:1.0;"/><text fill="#000000" font-family="sans-serif" font-size="14" lengthAdjust="spacing" textLength="157" x="224.5" y="466.6055">byte[] createCertificate ()</text></g><!--class CaCertificateSignerSpi--><g id="elem_CaCertificateSignerSpi"><rect codeLine="89" fill="#FDEDEC" height="103.8633" id="CaCertificateSignerSpi" rx="2.5" ry="2.5" style="stroke:#E74C3C;stroke-width:2.0;" width="491" x="148.5" y="880.498"/><ellipse cx="312.75" cy="896.498" fill="#B4A7E5" rx="11" ry="11" style="stroke:#181818;stroke-width:1.0;"/><path d="M313.7031,893.1387 L313.7031,899.7949 L315.4219,899.7949 Q316.0313,899.7949 316.2969,900.0293 Q316.5625,900.2637 316.5625,900.6543 Q316.5625,901.0293 316.2969,901.2637 Q316.0313,901.498 315.4219,901.498 L310.2813,901.498 Q309.6719,901.498 309.4063,901.2637 Q309.1406,901.0293 309.1406,900.6387 Q309.1406,900.2637 309.4063,900.0293 Q309.6719,899.7949 310.2813,899.7949 L312,899.7949 L312,893.1387 L310.2813,893.1387 Q309.6719,893.1387 309.4063,892.9043 Q309.1406,892.6699 309.1406,892.2793 Q309.1406,891.9043 309.4063,891.6699 Q309.6719,891.4355 310.2813,891.4355 L315.4219,891.4355 Q316.0313,891.4355 316.2969,891.6699 Q316.5625,891.9043 316.5625,892.2793 Q316.5625,892.6699 316.2969,892.9043 Q316.0313,893.1387 315.4219,893.1387 L313.7031,893.1387 Z " fill="#000000"/><ellipse cx="338.25" cy="895.998" fill="#84BE84" rx="3" ry="3" style="stroke:#038048;stroke-width:1.0;"/><text fill="#000000" font-family="sans-serif" font-size="14" font-style="italic" lengthAdjust="spacing" textLength="143" x="344.25" y="902.2949">CaCertificateSignerSpi</text><line style="stroke:#E74C3C;stroke-width:2.0;" x1="149.5" x2="638.5" y1="912.498" y2="912.498"/><line style="stroke:#E74C3C;stroke-width:2.0;" x1="149.5" x2="638.5" y1="920.498" y2="920.498"/><ellipse cx="159.5" cy="935.3086" fill="#84BE84" rx="3" ry="3" style="stroke:#038048;stroke-width:1.0;"/><text fill="#000000" font-family="sans-serif" font-size="14" lengthAdjust="spacing" textLength="239" x="168.5" y="939.6055">byte[] getIssuerPublicKeyReference ()</text><ellipse cx="159.5" cy="953.9297" fill="#84BE84" rx="3" ry="3" style="stroke:#038048;stroke-width:1.0;"/><text fill="#000000" font-family="sans-serif" font-size="14" lengthAdjust="spacing" textLength="329" x="168.5" y="958.2266">byte[] generateSignedCertificate (byte[] allData) ???</text><ellipse cx="159.5" cy="972.5508" fill="#84BE84" rx="3" ry="3" style="stroke:#038048;stroke-width:1.0;"/><text fill="#000000" font-family="sans-serif" font-size="14" lengthAdjust="spacing" textLength="465" x="168.5" y="976.8477">byte[] generateSignedCertificate (byte[] data, byte[] recoverableData) ???</text></g><!--class CardCertificateSettings--><g id="elem_CardCertificateSettings"><rect codeLine="97" fill="#FEFECE" height="48" id="CardCertificateSettings" rx="2.5" ry="2.5" style="stroke:#D4AC0D;stroke-width:2.0;" width="189" x="1058.5" y="416.998"/><ellipse cx="1073.5" cy="432.998" fill="#B4A7E5" rx="11" ry="11" style="stroke:#181818;stroke-width:1.0;"/><path d="M1074.4531,429.6387 L1074.4531,436.2949 L1076.1719,436.2949 Q1076.7813,436.2949 1077.0469,436.5293 Q1077.3125,436.7637 1077.3125,437.1543 Q1077.3125,437.5293 1077.0469,437.7637 Q1076.7813,437.998 1076.1719,437.998 L1071.0313,437.998 Q1070.4219,437.998 1070.1563,437.7637 Q1069.8906,437.5293 1069.8906,437.1387 Q1069.8906,436.7637 1070.1563,436.5293 Q1070.4219,436.2949 1071.0313,436.2949 L1072.75,436.2949 L1072.75,429.6387 L1071.0313,429.6387 Q1070.4219,429.6387 1070.1563,429.4043 Q1069.8906,429.1699 1069.8906,428.7793 Q1069.8906,428.4043 1070.1563,428.1699 Q1070.4219,427.9355 1071.0313,427.9355 L1076.1719,427.9355 Q1076.7813,427.9355 1077.0469,428.1699 Q1077.3125,428.4043 1077.3125,428.7793 Q1077.3125,429.1699 1077.0469,429.4043 Q1076.7813,429.6387 1076.1719,429.6387 L1074.4531,429.6387 Z " fill="#000000"/><ellipse cx="1092.5" cy="432.498" fill="#84BE84" rx="3" ry="3" style="stroke:#038048;stroke-width:1.0;"/><text fill="#000000" font-family="sans-serif" font-size="14" font-style="italic" lengthAdjust="spacing" textLength="146" x="1098.5" y="438.7949">CardCertificateSettings</text><line style="stroke:#D4AC0D;stroke-width:2.0;" x1="1059.5" x2="1246.5" y1="448.998" y2="448.998"/><line style="stroke:#D4AC0D;stroke-width:2.0;" x1="1059.5" x2="1246.5" y1="456.998" y2="456.998"/></g><!--class CardCertificateSettingsV1--><g id="elem_CardCertificateSettingsV1"><rect codeLine="99" fill="#EBF5FB" height="234.2109" id="CardCertificateSettingsV1" rx="2.5" ry="2.5" style="stroke:#3498DB;stroke-width:2.0;" width="709" x="798.5" y="544.498"/><ellipse cx="1061.75" cy="560.498" fill="#B4A7E5" rx="11" ry="11" style="stroke:#181818;stroke-width:1.0;"/><path d="M1062.7031,557.1387 L1062.7031,563.7949 L1064.4219,563.7949 Q1065.0313,563.7949 1065.2969,564.0293 Q1065.5625,564.2637 1065.5625,564.6543 Q1065.5625,565.0293 1065.2969,565.2637 Q1065.0313,565.498 1064.4219,565.498 L1059.2813,565.498 Q1058.6719,565.498 1058.4063,565.2637 Q1058.1406,565.0293 1058.1406,564.6387 Q1058.1406,564.2637 1058.4063,564.0293 Q1058.6719,563.7949 1059.2813,563.7949 L1061,563.7949 L1061,557.1387 L1059.2813,557.1387 Q1058.6719,557.1387 1058.4063,556.9043 Q1058.1406,556.6699 1058.1406,556.2793 Q1058.1406,555.9043 1058.4063,555.6699 Q1058.6719,555.4355 1059.2813,555.4355 L1064.4219,555.4355 Q1065.0313,555.4355 1065.2969,555.6699 Q1065.5625,555.9043 1065.5625,556.2793 Q1065.5625,556.6699 1065.2969,556.9043 Q1065.0313,557.1387 1064.4219,557.1387 L1062.7031,557.1387 Z " fill="#000000"/><ellipse cx="1087.25" cy="559.998" fill="#84BE84" rx="3" ry="3" style="stroke:#038048;stroke-width:1.0;"/><text fill="#000000" font-family="sans-serif" font-size="14" font-style="italic" lengthAdjust="spacing" textLength="163" x="1093.25" y="566.2949">CardCertificateSettingsV1</text><line style="stroke:#3498DB;stroke-width:2.0;" x1="799.5" x2="1506.5" y1="576.498" y2="576.498"/><line style="stroke:#3498DB;stroke-width:2.0;" x1="799.5" x2="1506.5" y1="584.498" y2="584.498"/><ellipse cx="809.5" cy="599.3086" fill="#84BE84" rx="3" ry="3" style="stroke:#038048;stroke-width:1.0;"/><text fill="#000000" font-family="sans-serif" font-size="14" lengthAdjust="spacing" textLength="589" x="818.5" y="603.6055">CardCertificateSettingsV1 useExternalSigner (CardCertificateSignerSpi cardCertificateSigner)</text><ellipse cx="809.5" cy="617.9297" fill="#84BE84" rx="3" ry="3" style="stroke:#038048;stroke-width:1.0;"/><text fill="#000000" font-family="sans-serif" font-size="14" lengthAdjust="spacing" textLength="287" x="818.5" y="622.2266">CardCertificateSettingsV1 useInternalSigner (</text><text fill="#000000" filter="url(#b1bug59z2mjvcb0)" font-family="sans-serif" font-size="14" lengthAdjust="spacing" textLength="68" x="1105.5" y="622.2266">PrivateKey</text><text fill="#000000" font-family="sans-serif" font-size="14" lengthAdjust="spacing" textLength="324" x="1177.5" y="622.2266">issuerPrivateKey, byte[] issuerPublicKeyReference)</text><text fill="#000000" font-family="sans-serif" font-size="14" lengthAdjust="spacing" textLength="4" x="818.5" y="640.8477">&#160;</text><ellipse cx="809.5" cy="655.1719" fill="#84BE84" rx="3" ry="3" style="stroke:#038048;stroke-width:1.0;"/><text fill="#000000" font-family="sans-serif" font-size="14" lengthAdjust="spacing" textLength="422" x="818.5" y="659.4688">CardCertificateSettingsV1 setCardPublicKey (byte[] cardPublicKey)</text><ellipse cx="809.5" cy="673.793" fill="#84BE84" rx="3" ry="3" style="stroke:#038048;stroke-width:1.0;"/><text fill="#000000" font-family="sans-serif" font-size="14" lengthAdjust="spacing" textLength="423" x="818.5" y="678.0898">CardCertificateSettingsV1 setStartDate (int year, int month, int day)</text><ellipse cx="809.5" cy="692.4141" fill="#84BE84" rx="3" ry="3" style="stroke:#038048;stroke-width:1.0;"/><text fill="#000000" font-family="sans-serif" font-size="14" lengthAdjust="spacing" textLength="418" x="818.5" y="696.7109">CardCertificateSettingsV1 setEndDate (int year, int month, int day)</text><ellipse cx="809.5" cy="711.0352" fill="#84BE84" rx="3" ry="3" style="stroke:#038048;stroke-width:1.0;"/><text fill="#000000" font-family="sans-serif" font-size="14" lengthAdjust="spacing" textLength="278" x="818.5" y="715.332">CardCertificateSettingsV1 setAid (byte[] aid)</text><ellipse cx="809.5" cy="729.6563" fill="#84BE84" rx="3" ry="3" style="stroke:#038048;stroke-width:1.0;"/><text fill="#000000" font-family="sans-serif" font-size="14" lengthAdjust="spacing" textLength="438" x="818.5" y="733.9531">CardCertificateSettingsV1 setCardSerialNumber (byte[] serialNumber)</text><ellipse cx="809.5" cy="748.2773" fill="#84BE84" rx="3" ry="3" style="stroke:#038048;stroke-width:1.0;"/><text fill="#000000" font-family="sans-serif" font-size="14" lengthAdjust="spacing" textLength="406" x="818.5" y="752.5742">CardCertificateSettingsV1 setCardStartupInfo (byte[] startupInfo)</text><ellipse cx="809.5" cy="766.8984" fill="#84BE84" rx="3" ry="3" style="stroke:#038048;stroke-width:1.0;"/><text fill="#000000" font-family="sans-serif" font-size="14" lengthAdjust="spacing" textLength="285" x="818.5" y="771.1953">CardCertificateSettingsV1 setIndex (int index)</text></g><!--class CardCertificateBuilder--><g id="elem_CardCertificateBuilder"><rect codeLine="111" fill="#EBF5FB" height="85.2422" id="CardCertificateBuilder" rx="2.5" ry="2.5" style="stroke:#3498DB;stroke-width:2.0;" width="222" x="798" y="398.498"/><ellipse cx="831" cy="414.498" fill="#B4A7E5" rx="11" ry="11" style="stroke:#181818;stroke-width:1.0;"/><path d="M831.9531,411.1387 L831.9531,417.7949 L833.6719,417.7949 Q834.2813,417.7949 834.5469,418.0293 Q834.8125,418.2637 834.8125,418.6543 Q834.8125,419.0293 834.5469,419.2637 Q834.2813,419.498 833.6719,419.498 L828.5313,419.498 Q827.9219,419.498 827.6563,419.2637 Q827.3906,419.0293 827.3906,418.6387 Q827.3906,418.2637 827.6563,418.0293 Q827.9219,417.7949 828.5313,417.7949 L830.25,417.7949 L830.25,411.1387 L828.5313,411.1387 Q827.9219,411.1387 827.6563,410.9043 Q827.3906,410.6699 827.3906,410.2793 Q827.3906,409.9043 827.6563,409.6699 Q827.9219,409.4355 828.5313,409.4355 L833.6719,409.4355 Q834.2813,409.4355 834.5469,409.6699 Q834.8125,409.9043 834.8125,410.2793 Q834.8125,410.6699 834.5469,410.9043 Q834.2813,411.1387 833.6719,411.1387 L831.9531,411.1387 Z " fill="#000000"/><ellipse cx="854" cy="413.998" fill="#84BE84" rx="3" ry="3" style="stroke:#038048;stroke-width:1.0;"/><text fill="#000000" font-family="sans-serif" font-size="14" font-style="italic" lengthAdjust="spacing" textLength="139" x="860" y="420.2949">CardCertificateBuilder</text><line style="stroke:#3498DB;stroke-width:2.0;" x1="799" x2="1019" y1="430.498" y2="430.498"/><line style="stroke:#3498DB;stroke-width:2.0;" x1="799" x2="1019" y1="438.498" y2="438.498"/><ellipse cx="809" cy="453.3086" fill="#84BE84" rx="3" ry="3" style="stroke:#038048;stroke-width:1.0;"/><text fill="#000000" font-family="sans-serif" font-size="14" lengthAdjust="spacing" textLength="157" x="818" y="457.6055">byte[] createCertificate ()</text><ellipse cx="809" cy="471.9297" fill="#84BE84" rx="3" ry="3" style="stroke:#038048;stroke-width:1.0;"/><text fill="#000000" font-family="sans-serif" font-size="14" lengthAdjust="spacing" textLength="196" x="818" y="476.2266">byte[] getCardPublicKeyData ()</text></g><!--class CardCertificateSignerSpi--><g id="elem_CardCertificateSignerSpi"><rect codeLine="116" fill="#FDEDEC" height="103.8633" id="CardCertificateSignerSpi" rx="2.5" ry="2.5" style="stroke:#E74C3C;stroke-width:2.0;" width="491" x="907.5" y="880.498"/><ellipse cx="1065.25" cy="896.498" fill="#B4A7E5" rx="11" ry="11" style="stroke:#181818;stroke-width:1.0;"/><path d="M1066.2031,893.1387 L1066.2031,899.7949 L1067.9219,899.7949 Q1068.5313,899.7949 1068.7969,900.0293 Q1069.0625,900.2637 1069.0625,900.6543 Q1069.0625,901.0293 1068.7969,901.2637 Q1068.5313,901.498 1067.9219,901.498 L1062.7813,901.498 Q1062.1719,901.498 1061.9063,901.2637 Q1061.6406,901.0293 1061.6406,900.6387 Q1061.6406,900.2637 1061.9063,900.0293 Q1062.1719,899.7949 1062.7813,899.7949 L1064.5,899.7949 L1064.5,893.1387 L1062.7813,893.1387 Q1062.1719,893.1387 1061.9063,892.9043 Q1061.6406,892.6699 1061.6406,892.2793 Q1061.6406,891.9043 1061.9063,891.6699 Q1062.1719,891.4355 1062.7813,891.4355 L1067.9219,891.4355 Q1068.5313,891.4355 1068.7969,891.6699 Q1069.0625,891.9043 1069.0625,892.2793 Q1069.0625,892.6699 1068.7969,892.9043 Q1068.5313,893.1387 1067.9219,893.1387 L1066.2031,893.1387 Z " fill="#000000"/><ellipse cx="1090.75" cy="895.998" fill="#84BE84" rx="3" ry="3" style="stroke:#038048;stroke-width:1.0;"/><text fill="#000000" font-family="sans-serif" font-size="14" font-style="italic" lengthAdjust="spacing" textLength="156" x="1096.75" y="902.2949">CardCertificateSignerSpi</text><line style="stroke:#E74C3C;stroke-width:2.0;" x1="908.5" x2="1397.5" y1="912.498" y2="912.498"/><line style="stroke:#E74C3C;stroke-width:2.0;" x1="908.5" x2="1397.5" y1="920.498" y2="920.498"/><ellipse cx="918.5" cy="935.3086" fill="#84BE84" rx="3" ry="3" style="stroke:#038048;stroke-width:1.0;"/><text fill="#000000" font-family="sans-serif" font-size="14" lengthAdjust="spacing" textLength="239" x="927.5" y="939.6055">byte[] getIssuerPublicKeyReference ()</text><ellipse cx="918.5" cy="953.9297" fill="#84BE84" rx="3" ry="3" style="stroke:#038048;stroke-width:1.0;"/><text fill="#000000" font-family="sans-serif" font-size="14" lengthAdjust="spacing" textLength="329" x="927.5" y="958.2266">byte[] generateSignedCertificate (byte[] allData) ???</text><ellipse cx="918.5" cy="972.5508" fill="#84BE84" rx="3" ry="3" style="stroke:#038048;stroke-width:1.0;"/><text fill="#000000" font-family="sans-serif" font-size="14" lengthAdjust="spacing" textLength="465" x="927.5" y="976.8477">byte[] generateSignedCertificate (byte[] data, byte[] recoverableData) ???</text></g><!--reverse link CaCertificateSettings to CaCertificateSettingsV1--><g id="link_CaCertificateSettings_CaCertificateSettingsV1"><path d="M489.9821,481.2494 C479.5181,500.7914 472.25,514.365 456.116,544.495 " fill="none" id="CaCertificateSettings-backto-CaCertificateSettingsV1" style="stroke:#181818;stroke-width:2.0;"/><polygon fill="none" points="498.479,465.381,484.6927,478.4171,495.2716,484.0816,498.479,465.381" style="stroke:#181818;stroke-width:2.0;"/></g><!--reverse link CardCertificateSettings to CardCertificateSettingsV1--><g id="link_CardCertificateSettings_CardCertificateSettingsV1"><path d="M1153,483.381 C1153,502.923 1153,514.365 1153,544.495 " fill="none" id="CardCertificateSettings-backto-CardCertificateSettingsV1" style="stroke:#181818;stroke-width:2.0;"/><polygon fill="none" points="1153,465.381,1147,483.381,1159,483.381,1153,465.381" style="stroke:#181818;stroke-width:2.0;"/></g><!--link CardCertificateSettingsV1 to CardCertificateSignerSpi--><g id="link_CardCertificateSettingsV1_CardCertificateSignerSpi"><path codeLine="127" d="M1153,778.53 C1153,814.079 1153,845.383 1153,874.252 " fill="none" id="CardCertificateSettingsV1-to-CardCertificateSignerSpi" style="stroke:#27AE60;stroke-width:2.0;stroke-dasharray:7.0,7.0;"/><polygon fill="#27AE60" points="1153,880.252,1157,871.252,1153,875.252,1149,871.252,1153,880.252" style="stroke:#27AE60;stroke-width:2.0;"/><polygon fill="#000000" points="1158,823.1436,1160.9389,814.0985,1155.0611,814.0985,1158,823.1436" style="stroke:#000000;stroke-width:1.0;"/><text fill="#000000" font-family="sans-serif" font-size="13" lengthAdjust="spacing" textLength="21" x="1167" y="823.5264">use</text></g><!--link CaCertificateSettingsV1 to CaCertificateSignerSpi--><g id="link_CaCertificateSettingsV1_CaCertificateSignerSpi"><path codeLine="129" d="M394,778.53 C394,814.079 394,845.383 394,874.252 " fill="none" id="CaCertificateSettingsV1-to-CaCertificateSignerSpi" style="stroke:#27AE60;stroke-width:2.0;stroke-dasharray:7.0,7.0;"/><polygon fill="#27AE60" points="394,880.252,398,871.252,394,875.252,390,871.252,394,880.252" style="stroke:#27AE60;stroke-width:2.0;"/><polygon fill="#000000" points="399,823.1436,401.9389,814.0985,396.0611,814.0985,399,823.1436" style="stroke:#000000;stroke-width:1.0;"/><text fill="#000000" font-family="sans-serif" font-size="13" lengthAdjust="spacing" textLength="21" x="408" y="823.5264">use</text></g><!--link CalypsoCertificateApiFactory to CaCertificateBuilder--><!--link CalypsoCertificateApiFactory to CardCertificateBuilder--><!--SRC=[xLXHRzew57xdLvpRFWowGLkWOwqwff0uksXRMnKsgPgcoaqC-3OaaUsqGrF_-tMSX3WG24pJVReyXUDplk_a-FYp7K65HseWVsF2vjJ77fZOMuGy09CmGIVKmOA0SJE4azPfwpNKsoVjRlFajDb-swWHtmMX46gluFrx6F-DlY3v8F-QGUIHY76Wd4U4WqlW0cP2XFpY-7WcvfuJU05p0fVmbXFCZoViME07Z-2ewPAcaqINcEGZfrE_6NfO7DV-Sic4-WJC-u-twEuKx7VskNs-Ocw3tROxTdV5t05qXdferRiBLiyQMDQA-GnCmxIjzehvBGmiisFsDFFduTKdw7JFtra3pVfrXA3TCz3RaxXMpIQCnCAJTH4pBC0D_5S2dWFs2CzKpC0dp_146AU13y44vBlw8ffxCgp67waVOeRdm0LX912Ba1Y3WBc4cN55uT0ujqpBBdKS5Xm7NQE7paeTpIAYPPqEsgMEgE281kSTIQtU3rrPSRvQbEbXpXF_yOmwZpxX77HOWx7WMH-II7V4yuBdDHJiF4vP4FbkocmZ6vced2nriRg6UM99o5lYLk1TNZBYzliIra8MChV0BZrHholxe3QZij4pOrucoNeJiL0kb2hYKBafxYuoxTvMxjpv7Ufs3IkZNzeB6JnuKJL_xAJUPs2VsOEjx9bhskifTsejC7zaXFYLrDFOIt6VspraR-LU-gPhAYNFpAliYrt85uhRa7s4ghYLQzlie3ETUb5aJZJHlBuQewknKaMFJ9La1g6ItFjxXSWXiT_VmuMo7yaHz5C2nN8SIoyZ4udgEuJdFaTm-I1VucAX5aZ_7_o4Mvmu4QDYSNaS3_MLFYVOjLeeBNXAuC19zBtbvFf-09W33YdyKjYldVYTuU3eQ1Bl298gtHEqBS48wGqBmjX0k8elMBIvI30LxYykiA3E2-J88y6eFuLlw7OqlBvIhYz94jIN5PXWXvIpszWH0Lla7QVnN8w1oFhvBfUnMjY8227PU1_6u30YBQN3K5UJVZdkWwh4zMJSs03Et0huKeTIWfoXaDGWefxilR9yiw5wwLiqTC126gkGfOFr3Ratj3dIUagrW8FrMT0diAm8kUlBpa7VJlC9tph56lfwJJMqY9DigOtakMAzcieuacl3MJStTkOO-aMEmjgzOVH9HdmYsS9D3aqijx-1XuKWttza0z63Hnrflys4GMkVhQbm8aoy35_D8xDdQJYvwp83pQQnxqe-4fW9ApvIrkLCmu9WzWRYftdWYrdowEB5xe38T_yad45TgATlYgdRsAEgjtGw4po9bbLA_ZRWmuSFUu2C7AcWImprRr-8Qod1EBPyaOVh9LJ1MeIiNdsP9fHehGhBMYFH4-tUK6-Ki2nLWuSqbOtHSk-f58BbUinEMSKuFPyf4SCDwqNFR3tCZskLKBc5ryawm_Daq-7rcTaFnfKOotN5Y1F8CtzyuId7VbafvPe4CpUj9dCtoN3vRbGfnALXvL9SnL2s7rN9ST5P4-IIWSOUJF-zA6zAHYrSvch2l5HRpThO0-vtXNOBvEz9xHR0Ah6jgDQ8C8gzgsZ-44zUYiCruzw0SSsYSEXFWXmlj-q3D_HTyZEf58qV6tijiJ-Xjoj2M6YlM61srcPPb-tgl65v_g_FB_4LqE0ySAZSUWEVrsgRcwRLwc-kvM7o0UaYLYtenp3RG7Q2K9VJpyRTzTVaRhhrajNyBc-vBl5_D4iF1di4b_LvcineVFSv-NgOTI5Eyaw-xVrwqUqjUTSupBxlhGsraYF5OVQbRyr1Rf6RevdRojfUH_WN]--></g></svg>