<?xml version="1.0" encoding="us-ascii" standalone="no"?><svg xmlns="http://www.w3.org/2000/svg" xmlns:xlink="http://www.w3.org/1999/xlink" contentStyleType="text/css" height="1010px" preserveAspectRatio="none" style="width:1754px;height:1010px;background:#FFFFFF;" version="1.1" viewBox="0 0 1754 1010" width="1754px" zoomAndPan="magnify"><defs><filter height="1" id="b10yvdmr7wpjam0" width="1" x="0" y="0"><feFlood flood-color="#FFC0CB" result="flood"/><feComposite in="SourceGraphic" in2="flood" operator="over"/></filter><filter height="1" id="b10yvdmr7wpjam1" width="1" x="0" y="0"><feFlood flood-color="#FFFF00" result="flood"/><feComposite in="SourceGraphic" in2="flood" operator="over"/></filter></defs><g><text fill="#000000" font-family="sans-serif" font-size="14" font-weight="bold" lengthAdjust="spacing" textLength="346" x="697" y="25.1074">Terminal Calypso Certificate API 0.1.+ (2024-02-16)</text><rect fill="#DDDDDD" height="84.4844" id="_legend" rx="7.5" ry="7.5" style="stroke:#000000;stroke-width:1.0;" width="201" x="769.5" y="51.6211"/><text fill="#000000" font-family="sans-serif" font-size="14" lengthAdjust="spacing" text-decoration="underline" textLength="88" x="774.5" y="71.7285">Colors legend</text><text fill="#000000" font-family="sans-serif" font-size="14" lengthAdjust="spacing" textLength="4" x="866.5" y="71.7285">:</text><ellipse cx="780" cy="86.3633" fill="#000000" rx="2.5" ry="2.5" style="stroke:#000000;stroke-width:0.0;"/><text fill="#000000" font-family="sans-serif" font-size="14" lengthAdjust="spacing" text-decoration="underline" textLength="148" x="786.5" y="90.3496">External API references</text><text fill="#000000" font-family="sans-serif" font-size="14" lengthAdjust="spacing" textLength="4" x="938.5" y="90.3496">:</text><rect fill="#000000" height="3.5" style="stroke:#000000;stroke-width:0.0;" width="3.5" x="783.5" y="102.4844"/><text fill="#000000" filter="url(#b10yvdmr7wpjam0)" font-family="sans-serif" font-size="14" font-weight="bold" lengthAdjust="spacing" textLength="175" x="790.5" y="108.9707">Keypop Calypso Card API</text><rect fill="#000000" height="3.5" style="stroke:#000000;stroke-width:0.0;" width="3.5" x="783.5" y="121.1055"/><text fill="#000000" filter="url(#b10yvdmr7wpjam1)" font-family="sans-serif" font-size="14" lengthAdjust="spacing" textLength="79" x="790.5" y="127.5918">java.security</text><!--cluster api--><g id="cluster_api"><path d="M8.5,155.1191 L137.5,155.1191 A3.75,3.75 0 0 1 140,157.6191 L147,179.7402 L1744.5,179.7402 A2.5,2.5 0 0 1 1747,182.2402 L1747,1000.6191 A2.5,2.5 0 0 1 1744.5,1003.1191 L8.5,1003.1191 A2.5,2.5 0 0 1 6,1000.6191 L6,157.6191 A2.5,2.5 0 0 1 8.5,155.1191 " fill="#F8F9F9" style="stroke:#000000;stroke-width:1.5;"/><line style="stroke:#000000;stroke-width:1.5;" x1="6" x2="147" y1="179.7402" y2="179.7402"/><text fill="#000000" font-family="sans-serif" font-size="14" font-weight="bold" lengthAdjust="spacing" textLength="128" x="10" y="172.2266">calypso.certificate</text></g><!--cluster ca--><g id="cluster_ca"><path d="M124.5,342.1191 L141.5,342.1191 A3.75,3.75 0 0 1 144,344.6191 L151,366.7402 L867.5,366.7402 A2.5,2.5 0 0 1 870,369.2402 L870,837.6191 A2.5,2.5 0 0 1 867.5,840.1191 L124.5,840.1191 A2.5,2.5 0 0 1 122,837.6191 L122,344.6191 A2.5,2.5 0 0 1 124.5,342.1191 " fill="#F2F3F4" style="stroke:#000000;stroke-width:1.5;"/><line style="stroke:#000000;stroke-width:1.5;" x1="122" x2="151" y1="366.7402" y2="366.7402"/><text fill="#000000" font-family="sans-serif" font-size="14" font-weight="bold" lengthAdjust="spacing" textLength="16" x="126" y="359.2266">ca</text></g><!--cluster caSpi--><g id="cluster_caSpi"><path d="M352.5,678.1191 L374.5,678.1191 A3.75,3.75 0 0 1 377,680.6191 L384,702.7402 L843.5,702.7402 A2.5,2.5 0 0 1 846,705.2402 L846,813.6191 A2.5,2.5 0 0 1 843.5,816.1191 L352.5,816.1191 A2.5,2.5 0 0 1 350,813.6191 L350,680.6191 A2.5,2.5 0 0 1 352.5,678.1191 " fill="#E5E7E9" style="stroke:#000000;stroke-width:1.5;"/><line style="stroke:#000000;stroke-width:1.5;" x1="350" x2="384" y1="702.7402" y2="702.7402"/><text fill="#000000" font-family="sans-serif" font-size="14" font-weight="bold" lengthAdjust="spacing" textLength="21" x="354" y="695.2266">spi</text></g><!--cluster card--><g id="cluster_card"><path d="M896.5,342.1191 L928.5,342.1191 A3.75,3.75 0 0 1 931,344.6191 L938,366.7402 L1652.5,366.7402 A2.5,2.5 0 0 1 1655,369.2402 L1655,837.6191 A2.5,2.5 0 0 1 1652.5,840.1191 L896.5,840.1191 A2.5,2.5 0 0 1 894,837.6191 L894,344.6191 A2.5,2.5 0 0 1 896.5,342.1191 " fill="#F2F3F4" style="stroke:#000000;stroke-width:1.5;"/><line style="stroke:#000000;stroke-width:1.5;" x1="894" x2="938" y1="366.7402" y2="366.7402"/><text fill="#000000" font-family="sans-serif" font-size="14" font-weight="bold" lengthAdjust="spacing" textLength="31" x="898" y="359.2266">card</text></g><!--cluster cardSpi--><g id="cluster_cardSpi"><path d="M1137.5,678.1191 L1159.5,678.1191 A3.75,3.75 0 0 1 1162,680.6191 L1169,702.7402 L1628.5,702.7402 A2.5,2.5 0 0 1 1631,705.2402 L1631,813.6191 A2.5,2.5 0 0 1 1628.5,816.1191 L1137.5,816.1191 A2.5,2.5 0 0 1 1135,813.6191 L1135,680.6191 A2.5,2.5 0 0 1 1137.5,678.1191 " fill="#E5E7E9" style="stroke:#000000;stroke-width:1.5;"/><line style="stroke:#000000;stroke-width:1.5;" x1="1135" x2="1169" y1="702.7402" y2="702.7402"/><text fill="#000000" font-family="sans-serif" font-size="14" font-weight="bold" lengthAdjust="spacing" textLength="21" x="1139" y="695.2266">spi</text></g><!--class ApiProperties--><g id="elem_ApiProperties"><rect codeLine="62" fill="#E9F7EF" height="66.6211" id="ApiProperties" rx="2.5" ry="2.5" style="stroke:#27AE60;stroke-width:2.0;" width="277" x="1326.5" y="201.1191"/><ellipse cx="1341.5" cy="217.1191" fill="#ADD1B2" rx="11" ry="11" style="stroke:#181818;stroke-width:1.0;"/><path d="M1344.2656,212.9941 Q1344.4219,212.7754 1344.6094,212.666 Q1344.7969,212.5566 1345.0156,212.5566 Q1345.3906,212.5566 1345.625,212.8223 Q1345.8594,213.0723 1345.8594,213.6816 L1345.8594,215.1348 Q1345.8594,215.7441 1345.625,216.0098 Q1345.3906,216.2754 1345.0156,216.2754 Q1344.6719,216.2754 1344.4688,216.0723 Q1344.2656,215.8848 1344.1563,215.3691 Q1344.1094,215.0098 1343.9219,214.8223 Q1343.5938,214.4473 1342.9844,214.2285 Q1342.375,214.0098 1341.75,214.0098 Q1340.9844,214.0098 1340.3438,214.3379 Q1339.7188,214.666 1339.2188,215.416 Q1338.7344,216.166 1338.7344,217.1973 L1338.7344,218.291 Q1338.7344,219.5254 1339.625,220.3535 Q1340.5156,221.166 1342.1094,221.166 Q1343.0469,221.166 1343.7031,220.916 Q1344.0938,220.7598 1344.5156,220.3223 Q1344.7813,220.0566 1344.9219,219.9785 Q1345.0781,219.9004 1345.2813,219.9004 Q1345.6094,219.9004 1345.8594,220.166 Q1346.125,220.416 1346.125,220.7598 Q1346.125,221.1035 1345.7813,221.5098 Q1345.2813,222.0879 1344.4844,222.416 Q1343.4063,222.8691 1342.1094,222.8691 Q1340.5938,222.8691 1339.3906,222.2441 Q1338.4063,221.7441 1337.7188,220.6816 Q1337.0313,219.6035 1337.0313,218.3223 L1337.0313,217.166 Q1337.0313,215.8379 1337.6406,214.6973 Q1338.2656,213.541 1339.3594,212.9316 Q1340.4531,212.3066 1341.6875,212.3066 Q1342.4219,212.3066 1343.0625,212.4785 Q1343.7188,212.6348 1344.2656,212.9941 Z " fill="#000000"/><ellipse cx="1360.5" cy="216.6191" fill="#84BE84" rx="3" ry="3" style="stroke:#038048;stroke-width:1.0;"/><text fill="#000000" font-family="sans-serif" font-size="14" font-weight="bold" lengthAdjust="spacing" textLength="30" x="1366.5" y="222.916">final</text><text fill="#000000" font-family="sans-serif" font-size="14" lengthAdjust="spacing" textLength="200" x="1400.5" y="222.916">CalypsoCertificateApiProperties</text><line style="stroke:#27AE60;stroke-width:2.0;" x1="1327.5" x2="1602.5" y1="233.1191" y2="233.1191"/><ellipse cx="1337.5" cy="247.9297" fill="none" rx="3" ry="3" style="stroke:#038048;stroke-width:1.0;"/><text fill="#000000" font-family="sans-serif" font-size="14" font-weight="bold" lengthAdjust="spacing" text-decoration="underline" textLength="30" x="1346.5" y="252.2266">final</text><text fill="#000000" font-family="sans-serif" font-size="14" lengthAdjust="spacing" text-decoration="underline" textLength="101" x="1380.5" y="252.2266">String VERSION</text><line style="stroke:#27AE60;stroke-width:2.0;" x1="1327.5" x2="1602.5" y1="259.7402" y2="259.7402"/></g><!--class CalypsoCertificateApiFactory--><g id="elem_CalypsoCertificateApiFactory"><rect codeLine="65" fill="#EBF5FB" height="85.2422" id="CalypsoCertificateApiFactory" rx="2.5" ry="2.5" style="stroke:#3498DB;stroke-width:2.0;" width="502" x="498" y="192.1191"/><ellipse cx="647.75" cy="208.1191" fill="#B4A7E5" rx="11" ry="11" style="stroke:#181818;stroke-width:1.0;"/><path d="M648.7031,204.7598 L648.7031,211.416 L650.4219,211.416 Q651.0313,211.416 651.2969,211.6504 Q651.5625,211.8848 651.5625,212.2754 Q651.5625,212.6504 651.2969,212.8848 Q651.0313,213.1191 650.4219,213.1191 L645.2813,213.1191 Q644.6719,213.1191 644.4063,212.8848 Q644.1406,212.6504 644.1406,212.2598 Q644.1406,211.8848 644.4063,211.6504 Q644.6719,211.416 645.2813,211.416 L647,211.416 L647,204.7598 L645.2813,204.7598 Q644.6719,204.7598 644.4063,204.5254 Q644.1406,204.291 644.1406,203.9004 Q644.1406,203.5254 644.4063,203.291 Q644.6719,203.0566 645.2813,203.0566 L650.4219,203.0566 Q651.0313,203.0566 651.2969,203.291 Q651.5625,203.5254 651.5625,203.9004 Q651.5625,204.291 651.2969,204.5254 Q651.0313,204.7598 650.4219,204.7598 L648.7031,204.7598 Z " fill="#000000"/><ellipse cx="673.25" cy="207.6191" fill="#84BE84" rx="3" ry="3" style="stroke:#038048;stroke-width:1.0;"/><text fill="#000000" font-family="sans-serif" font-size="14" font-style="italic" lengthAdjust="spacing" textLength="183" x="679.25" y="213.916">CalypsoCertificateApiFactory</text><line style="stroke:#3498DB;stroke-width:2.0;" x1="499" x2="999" y1="224.1191" y2="224.1191"/><line style="stroke:#3498DB;stroke-width:2.0;" x1="499" x2="999" y1="232.1191" y2="232.1191"/><ellipse cx="509" cy="246.9297" fill="#84BE84" rx="3" ry="3" style="stroke:#038048;stroke-width:1.0;"/><text fill="#000000" font-family="sans-serif" font-size="14" lengthAdjust="spacing" textLength="446" x="518" y="251.2266">CalypsoCaCertificateV1Builder createCalypsoCaCertificateV1Builder ()</text><ellipse cx="509" cy="265.5508" fill="#84BE84" rx="3" ry="3" style="stroke:#038048;stroke-width:1.0;"/><text fill="#000000" font-family="sans-serif" font-size="14" lengthAdjust="spacing" textLength="476" x="518" y="269.8477">CalypsoCardCertificateV1Builder  createCalypsoCardCertificateV1Builder ()</text></g><!--class CertificateSigningException--><g id="elem_CertificateSigningException"><rect codeLine="115" fill="#E9F7EF" height="100.4844" id="CertificateSigningException" rx="2.5" ry="2.5" style="stroke:#27AE60;stroke-width:2.0;" width="426" x="663" y="887.1191"/><ellipse cx="763.25" cy="910.7402" fill="#ADD1B2" rx="11" ry="11" style="stroke:#181818;stroke-width:1.0;"/><path d="M766.0156,906.6152 Q766.1719,906.3965 766.3594,906.2871 Q766.5469,906.1777 766.7656,906.1777 Q767.1406,906.1777 767.375,906.4434 Q767.6094,906.6934 767.6094,907.3027 L767.6094,908.7559 Q767.6094,909.3652 767.375,909.6309 Q767.1406,909.8965 766.7656,909.8965 Q766.4219,909.8965 766.2188,909.6934 Q766.0156,909.5059 765.9063,908.9902 Q765.8594,908.6309 765.6719,908.4434 Q765.3438,908.0684 764.7344,907.8496 Q764.125,907.6309 763.5,907.6309 Q762.7344,907.6309 762.0938,907.959 Q761.4688,908.2871 760.9688,909.0371 Q760.4844,909.7871 760.4844,910.8184 L760.4844,911.9121 Q760.4844,913.1465 761.375,913.9746 Q762.2656,914.7871 763.8594,914.7871 Q764.7969,914.7871 765.4531,914.5371 Q765.8438,914.3809 766.2656,913.9434 Q766.5313,913.6777 766.6719,913.5996 Q766.8281,913.5215 767.0313,913.5215 Q767.3594,913.5215 767.6094,913.7871 Q767.875,914.0371 767.875,914.3809 Q767.875,914.7246 767.5313,915.1309 Q767.0313,915.709 766.2344,916.0371 Q765.1563,916.4902 763.8594,916.4902 Q762.3438,916.4902 761.1406,915.8652 Q760.1563,915.3652 759.4688,914.3027 Q758.7813,913.2246 758.7813,911.9434 L758.7813,910.7871 Q758.7813,909.459 759.3906,908.3184 Q760.0156,907.1621 761.1094,906.5527 Q762.2031,905.9277 763.4375,905.9277 Q764.1719,905.9277 764.8125,906.0996 Q765.4688,906.2559 766.0156,906.6152 Z " fill="#000000"/><ellipse cx="788.75" cy="910.2402" fill="#84BE84" rx="3" ry="3" style="stroke:#038048;stroke-width:1.0;"/><text fill="#000000" font-family="sans-serif" font-size="14" lengthAdjust="spacing" textLength="129" x="833.25" y="907.2266">&#171;RuntimeException&#187;</text><text fill="#000000" font-family="sans-serif" font-size="14" font-weight="bold" lengthAdjust="spacing" textLength="30" x="794.75" y="925.8477">final</text><text fill="#000000" font-family="sans-serif" font-size="14" lengthAdjust="spacing" textLength="172" x="828.75" y="925.8477">CertificateSigningException</text><line style="stroke:#27AE60;stroke-width:2.0;" x1="664" x2="1088" y1="934.3613" y2="934.3613"/><line style="stroke:#27AE60;stroke-width:2.0;" x1="664" x2="1088" y1="942.3613" y2="942.3613"/><ellipse cx="674" cy="957.1719" fill="#84BE84" rx="3" ry="3" style="stroke:#038048;stroke-width:1.0;"/><text fill="#000000" font-family="sans-serif" font-size="14" lengthAdjust="spacing" textLength="284" x="683" y="961.4688">CertificateSigningException (String message)</text><ellipse cx="674" cy="975.793" fill="#84BE84" rx="3" ry="3" style="stroke:#038048;stroke-width:1.0;"/><text fill="#000000" font-family="sans-serif" font-size="14" lengthAdjust="spacing" textLength="400" x="683" y="980.0898">CertificateSigningException (String message, Throwable cause)</text></g><!--class CalypsoCaCertificateV1Builder--><g id="elem_CalypsoCaCertificateV1Builder"><rect codeLine="70" fill="#EBF5FB" height="234.2109" id="CalypsoCaCertificateV1Builder" rx="2.5" ry="2.5" style="stroke:#3498DB;stroke-width:2.0;" width="703" x="144.5" y="379.1191"/><ellipse cx="389.25" cy="395.1191" fill="#B4A7E5" rx="11" ry="11" style="stroke:#181818;stroke-width:1.0;"/><path d="M390.2031,391.7598 L390.2031,398.416 L391.9219,398.416 Q392.5313,398.416 392.7969,398.6504 Q393.0625,398.8848 393.0625,399.2754 Q393.0625,399.6504 392.7969,399.8848 Q392.5313,400.1191 391.9219,400.1191 L386.7813,400.1191 Q386.1719,400.1191 385.9063,399.8848 Q385.6406,399.6504 385.6406,399.2598 Q385.6406,398.8848 385.9063,398.6504 Q386.1719,398.416 386.7813,398.416 L388.5,398.416 L388.5,391.7598 L386.7813,391.7598 Q386.1719,391.7598 385.9063,391.5254 Q385.6406,391.291 385.6406,390.9004 Q385.6406,390.5254 385.9063,390.291 Q386.1719,390.0566 386.7813,390.0566 L391.9219,390.0566 Q392.5313,390.0566 392.7969,390.291 Q393.0625,390.5254 393.0625,390.9004 Q393.0625,391.291 392.7969,391.5254 Q392.5313,391.7598 391.9219,391.7598 L390.2031,391.7598 Z " fill="#000000"/><ellipse cx="414.75" cy="394.6191" fill="#84BE84" rx="3" ry="3" style="stroke:#038048;stroke-width:1.0;"/><text fill="#000000" font-family="sans-serif" font-size="14" font-style="italic" lengthAdjust="spacing" textLength="194" x="420.75" y="400.916">CalypsoCaCertificateV1Builder</text><line style="stroke:#3498DB;stroke-width:2.0;" x1="145.5" x2="846.5" y1="411.1191" y2="411.1191"/><line style="stroke:#3498DB;stroke-width:2.0;" x1="145.5" x2="846.5" y1="419.1191" y2="419.1191"/><ellipse cx="155.5" cy="433.9297" fill="#84BE84" rx="3" ry="3" style="stroke:#038048;stroke-width:1.0;"/><text fill="#000000" font-family="sans-serif" font-size="14" lengthAdjust="spacing" textLength="311" x="164.5" y="438.2266">CalypsoCaCertificateV1Builder withCaPublicKey (</text><text fill="#000000" filter="url(#b10yvdmr7wpjam1)" font-family="sans-serif" font-size="14" lengthAdjust="spacing" textLength="90" x="475.5" y="438.2266">RSAPublicKey</text><text fill="#000000" font-family="sans-serif" font-size="14" lengthAdjust="spacing" textLength="272" x="569.5" y="438.2266">caPublicKey, byte[] caPublicKeyReference)</text><ellipse cx="155.5" cy="452.5508" fill="#84BE84" rx="3" ry="3" style="stroke:#038048;stroke-width:1.0;"/><text fill="#000000" font-family="sans-serif" font-size="14" lengthAdjust="spacing" textLength="459" x="164.5" y="456.8477">CalypsoCaCertificateV1Builder withStartDate (int year, int month, int day)</text><ellipse cx="155.5" cy="471.1719" fill="#84BE84" rx="3" ry="3" style="stroke:#038048;stroke-width:1.0;"/><text fill="#000000" font-family="sans-serif" font-size="14" lengthAdjust="spacing" textLength="454" x="164.5" y="475.4688">CalypsoCaCertificateV1Builder withEndDate (int year, int month, int day)</text><ellipse cx="155.5" cy="489.793" fill="#84BE84" rx="3" ry="3" style="stroke:#038048;stroke-width:1.0;"/><text fill="#000000" font-family="sans-serif" font-size="14" lengthAdjust="spacing" textLength="314" x="164.5" y="494.0898">CalypsoCaCertificateV1Builder withAid (byte[] aid)</text><ellipse cx="155.5" cy="508.4141" fill="#84BE84" rx="3" ry="3" style="stroke:#038048;stroke-width:1.0;"/><text fill="#000000" font-family="sans-serif" font-size="14" lengthAdjust="spacing" textLength="380" x="164.5" y="512.7109">CalypsoCaCertificateV1Builder withCaRights (byte caRights)</text><ellipse cx="155.5" cy="527.0352" fill="#84BE84" rx="3" ry="3" style="stroke:#038048;stroke-width:1.0;"/><text fill="#000000" font-family="sans-serif" font-size="14" lengthAdjust="spacing" textLength="380" x="164.5" y="531.332">CalypsoCaCertificateV1Builder withCaScope (byte caScope)</text><ellipse cx="155.5" cy="545.6563" fill="#84BE84" rx="3" ry="3" style="stroke:#038048;stroke-width:1.0;"/><text fill="#000000" font-family="sans-serif" font-size="14" lengthAdjust="spacing" textLength="496" x="164.5" y="549.9531">CalypsoCaCertificateV1Builder withCaOperatingMode (byte caOperatingMode)</text><text fill="#000000" font-family="sans-serif" font-size="14" lengthAdjust="spacing" textLength="4" x="164.5" y="568.5742">&#160;</text><ellipse cx="155.5" cy="582.8984" fill="#84BE84" rx="3" ry="3" style="stroke:#038048;stroke-width:1.0;"/><text fill="#000000" font-family="sans-serif" font-size="14" lengthAdjust="spacing" textLength="193" x="164.5" y="587.1953">CalypsoCaCertificateV1 build (</text><text fill="#000000" filter="url(#b10yvdmr7wpjam1)" font-family="sans-serif" font-size="14" lengthAdjust="spacing" textLength="96" x="357.5" y="587.1953">RSAPrivateKey</text><text fill="#000000" font-family="sans-serif" font-size="14" lengthAdjust="spacing" textLength="324" x="457.5" y="587.1953">issuerPrivateKey, byte[] issuerPublicKeyReference)</text><ellipse cx="155.5" cy="601.5195" fill="#84BE84" rx="3" ry="3" style="stroke:#038048;stroke-width:1.0;"/><text fill="#000000" font-family="sans-serif" font-size="14" lengthAdjust="spacing" textLength="516" x="164.5" y="605.8164">CalypsoCaCertificateV1 build (CalypsoCaCertificateSignerSpi caCertificateSigner)</text></g><!--class CalypsoCaCertificateV1--><g id="elem_CalypsoCaCertificateV1"><rect codeLine="82" fill="#FEFECE" height="81.8633" id="CalypsoCaCertificateV1" rx="2.5" ry="2.5" style="stroke:#D4AC0D;stroke-width:2.0;" width="193" x="138.5" y="716.6191"/><ellipse cx="153.5" cy="740.2402" fill="#B4A7E5" rx="11" ry="11" style="stroke:#181818;stroke-width:1.0;"/><path d="M154.4531,736.8809 L154.4531,743.5371 L156.1719,743.5371 Q156.7813,743.5371 157.0469,743.7715 Q157.3125,744.0059 157.3125,744.3965 Q157.3125,744.7715 157.0469,745.0059 Q156.7813,745.2402 156.1719,745.2402 L151.0313,745.2402 Q150.4219,745.2402 150.1563,745.0059 Q149.8906,744.7715 149.8906,744.3809 Q149.8906,744.0059 150.1563,743.7715 Q150.4219,743.5371 151.0313,743.5371 L152.75,743.5371 L152.75,736.8809 L151.0313,736.8809 Q150.4219,736.8809 150.1563,736.6465 Q149.8906,736.4121 149.8906,736.0215 Q149.8906,735.6465 150.1563,735.4121 Q150.4219,735.1777 151.0313,735.1777 L156.1719,735.1777 Q156.7813,735.1777 157.0469,735.4121 Q157.3125,735.6465 157.3125,736.0215 Q157.3125,736.4121 157.0469,736.6465 Q156.7813,736.8809 156.1719,736.8809 L154.4531,736.8809 Z " fill="#000000"/><ellipse cx="172.5" cy="739.7402" fill="#84BE84" rx="3" ry="3" style="stroke:#038048;stroke-width:1.0;"/><text fill="#000000" font-family="sans-serif" font-size="14" font-style="italic" lengthAdjust="spacing" textLength="16" x="196.5" y="736.7266">&lt;&lt;</text><text fill="#000000" filter="url(#b10yvdmr7wpjam0)" font-family="sans-serif" font-size="14" font-style="italic" lengthAdjust="spacing" textLength="82" x="212.5" y="736.7266">CaCertificate</text><text fill="#000000" font-family="sans-serif" font-size="14" font-style="italic" lengthAdjust="spacing" textLength="16" x="294.5" y="736.7266">&gt;&gt;</text><text fill="#000000" font-family="sans-serif" font-size="14" font-style="italic" lengthAdjust="spacing" textLength="150" x="178.5" y="755.3477">CalypsoCaCertificateV1</text><line style="stroke:#D4AC0D;stroke-width:2.0;" x1="139.5" x2="330.5" y1="763.8613" y2="763.8613"/><line style="stroke:#D4AC0D;stroke-width:2.0;" x1="139.5" x2="330.5" y1="771.8613" y2="771.8613"/><ellipse cx="149.5" cy="786.6719" fill="#84BE84" rx="3" ry="3" style="stroke:#038048;stroke-width:1.0;"/><text fill="#000000" font-family="sans-serif" font-size="14" lengthAdjust="spacing" textLength="130" x="158.5" y="790.9688">byte[] getRawData ()</text></g><!--class CalypsoCaCertificateSignerSpi--><g id="elem_CalypsoCaCertificateSignerSpi"><rect codeLine="86" fill="#FDEDEC" height="85.2422" id="CalypsoCaCertificateSignerSpi" rx="2.5" ry="2.5" style="stroke:#E74C3C;stroke-width:2.0;" width="463" x="366.5" y="715.1191"/><ellipse cx="491.25" cy="731.1191" fill="#B4A7E5" rx="11" ry="11" style="stroke:#181818;stroke-width:1.0;"/><path d="M492.2031,727.7598 L492.2031,734.416 L493.9219,734.416 Q494.5313,734.416 494.7969,734.6504 Q495.0625,734.8848 495.0625,735.2754 Q495.0625,735.6504 494.7969,735.8848 Q494.5313,736.1191 493.9219,736.1191 L488.7813,736.1191 Q488.1719,736.1191 487.9063,735.8848 Q487.6406,735.6504 487.6406,735.2598 Q487.6406,734.8848 487.9063,734.6504 Q488.1719,734.416 488.7813,734.416 L490.5,734.416 L490.5,727.7598 L488.7813,727.7598 Q488.1719,727.7598 487.9063,727.5254 Q487.6406,727.291 487.6406,726.9004 Q487.6406,726.5254 487.9063,726.291 Q488.1719,726.0566 488.7813,726.0566 L493.9219,726.0566 Q494.5313,726.0566 494.7969,726.291 Q495.0625,726.5254 495.0625,726.9004 Q495.0625,727.291 494.7969,727.5254 Q494.5313,727.7598 493.9219,727.7598 L492.2031,727.7598 Z " fill="#000000"/><ellipse cx="516.75" cy="730.6191" fill="#84BE84" rx="3" ry="3" style="stroke:#038048;stroke-width:1.0;"/><text fill="#000000" font-family="sans-serif" font-size="14" font-style="italic" lengthAdjust="spacing" textLength="194" x="522.75" y="736.916">CalypsoCaCertificateSignerSpi</text><line style="stroke:#E74C3C;stroke-width:2.0;" x1="367.5" x2="828.5" y1="747.1191" y2="747.1191"/><line style="stroke:#E74C3C;stroke-width:2.0;" x1="367.5" x2="828.5" y1="755.1191" y2="755.1191"/><ellipse cx="377.5" cy="769.9297" fill="#84BE84" rx="3" ry="3" style="stroke:#038048;stroke-width:1.0;"/><text fill="#000000" font-family="sans-serif" font-size="14" lengthAdjust="spacing" textLength="239" x="386.5" y="774.2266">byte[] getIssuerPublicKeyReference ()</text><ellipse cx="377.5" cy="788.5508" fill="#84BE84" rx="3" ry="3" style="stroke:#038048;stroke-width:1.0;"/><text fill="#000000" font-family="sans-serif" font-size="14" lengthAdjust="spacing" textLength="437" x="386.5" y="792.8477">byte[] generateSignedCertificate (byte[] data, byte[] recoverableData)</text></g><!--class CalypsoCardCertificateV1Builder--><g id="elem_CalypsoCardCertificateV1Builder"><rect codeLine="93" fill="#EBF5FB" height="234.2109" id="CalypsoCardCertificateV1Builder" rx="2.5" ry="2.5" style="stroke:#3498DB;stroke-width:2.0;" width="656" x="947" y="379.1191"/><ellipse cx="1161.75" cy="395.1191" fill="#B4A7E5" rx="11" ry="11" style="stroke:#181818;stroke-width:1.0;"/><path d="M1162.7031,391.7598 L1162.7031,398.416 L1164.4219,398.416 Q1165.0313,398.416 1165.2969,398.6504 Q1165.5625,398.8848 1165.5625,399.2754 Q1165.5625,399.6504 1165.2969,399.8848 Q1165.0313,400.1191 1164.4219,400.1191 L1159.2813,400.1191 Q1158.6719,400.1191 1158.4063,399.8848 Q1158.1406,399.6504 1158.1406,399.2598 Q1158.1406,398.8848 1158.4063,398.6504 Q1158.6719,398.416 1159.2813,398.416 L1161,398.416 L1161,391.7598 L1159.2813,391.7598 Q1158.6719,391.7598 1158.4063,391.5254 Q1158.1406,391.291 1158.1406,390.9004 Q1158.1406,390.5254 1158.4063,390.291 Q1158.6719,390.0566 1159.2813,390.0566 L1164.4219,390.0566 Q1165.0313,390.0566 1165.2969,390.291 Q1165.5625,390.5254 1165.5625,390.9004 Q1165.5625,391.291 1165.2969,391.5254 Q1165.0313,391.7598 1164.4219,391.7598 L1162.7031,391.7598 Z " fill="#000000"/><ellipse cx="1187.25" cy="394.6191" fill="#84BE84" rx="3" ry="3" style="stroke:#038048;stroke-width:1.0;"/><text fill="#000000" font-family="sans-serif" font-size="14" font-style="italic" lengthAdjust="spacing" textLength="207" x="1193.25" y="400.916">CalypsoCardCertificateV1Builder</text><line style="stroke:#3498DB;stroke-width:2.0;" x1="948" x2="1602" y1="411.1191" y2="411.1191"/><line style="stroke:#3498DB;stroke-width:2.0;" x1="948" x2="1602" y1="419.1191" y2="419.1191"/><ellipse cx="958" cy="433.9297" fill="#84BE84" rx="3" ry="3" style="stroke:#038048;stroke-width:1.0;"/><text fill="#000000" font-family="sans-serif" font-size="14" lengthAdjust="spacing" textLength="471" x="967" y="438.2266">CalypsoCardCertificateV1Builder withCardPublicKey (byte[] cardPublicKey)</text><ellipse cx="958" cy="452.5508" fill="#84BE84" rx="3" ry="3" style="stroke:#038048;stroke-width:1.0;"/><text fill="#000000" font-family="sans-serif" font-size="14" lengthAdjust="spacing" textLength="472" x="967" y="456.8477">CalypsoCardCertificateV1Builder withStartDate (int year, int month, int day)</text><ellipse cx="958" cy="471.1719" fill="#84BE84" rx="3" ry="3" style="stroke:#038048;stroke-width:1.0;"/><text fill="#000000" font-family="sans-serif" font-size="14" lengthAdjust="spacing" textLength="467" x="967" y="475.4688">CalypsoCardCertificateV1Builder withEndDate (int year, int month, int day)</text><ellipse cx="958" cy="489.793" fill="#84BE84" rx="3" ry="3" style="stroke:#038048;stroke-width:1.0;"/><text fill="#000000" font-family="sans-serif" font-size="14" lengthAdjust="spacing" textLength="327" x="967" y="494.0898">CalypsoCardCertificateV1Builder withAid (byte[] aid)</text><ellipse cx="958" cy="508.4141" fill="#84BE84" rx="3" ry="3" style="stroke:#038048;stroke-width:1.0;"/><text fill="#000000" font-family="sans-serif" font-size="14" lengthAdjust="spacing" textLength="487" x="967" y="512.7109">CalypsoCardCertificateV1Builder withCardSerialNumber (byte[] serialNumber)</text><ellipse cx="958" cy="527.0352" fill="#84BE84" rx="3" ry="3" style="stroke:#038048;stroke-width:1.0;"/><text fill="#000000" font-family="sans-serif" font-size="14" lengthAdjust="spacing" textLength="455" x="967" y="531.332">CalypsoCardCertificateV1Builder withCardStartupInfo (byte[] startupInfo)</text><ellipse cx="958" cy="545.6563" fill="#84BE84" rx="3" ry="3" style="stroke:#038048;stroke-width:1.0;"/><text fill="#000000" font-family="sans-serif" font-size="14" lengthAdjust="spacing" textLength="334" x="967" y="549.9531">CalypsoCardCertificateV1Builder withIndex (int index)</text><text fill="#000000" font-family="sans-serif" font-size="14" lengthAdjust="spacing" textLength="4" x="967" y="568.5742">&#160;</text><ellipse cx="958" cy="582.8984" fill="#84BE84" rx="3" ry="3" style="stroke:#038048;stroke-width:1.0;"/><text fill="#000000" font-family="sans-serif" font-size="14" lengthAdjust="spacing" textLength="206" x="967" y="587.1953">CalypsoCardCertificateV1 build (</text><text fill="#000000" filter="url(#b10yvdmr7wpjam1)" font-family="sans-serif" font-size="14" lengthAdjust="spacing" textLength="96" x="1173" y="587.1953">RSAPrivateKey</text><text fill="#000000" font-family="sans-serif" font-size="14" lengthAdjust="spacing" textLength="324" x="1273" y="587.1953">issuerPrivateKey, byte[] issuerPublicKeyReference)</text><ellipse cx="958" cy="601.5195" fill="#84BE84" rx="3" ry="3" style="stroke:#038048;stroke-width:1.0;"/><text fill="#000000" font-family="sans-serif" font-size="14" lengthAdjust="spacing" textLength="555" x="967" y="605.8164">CalypsoCardCertificateV1 build (CalypsoCardCertificateSignerSpi cardCertificateSigner)</text></g><!--class CalypsoCardCertificateV1--><g id="elem_CalypsoCardCertificateV1"><rect codeLine="105" fill="#FEFECE" height="81.8633" id="CalypsoCardCertificateV1" rx="2.5" ry="2.5" style="stroke:#D4AC0D;stroke-width:2.0;" width="206" x="910" y="716.6191"/><ellipse cx="925" cy="740.2402" fill="#B4A7E5" rx="11" ry="11" style="stroke:#181818;stroke-width:1.0;"/><path d="M925.9531,736.8809 L925.9531,743.5371 L927.6719,743.5371 Q928.2813,743.5371 928.5469,743.7715 Q928.8125,744.0059 928.8125,744.3965 Q928.8125,744.7715 928.5469,745.0059 Q928.2813,745.2402 927.6719,745.2402 L922.5313,745.2402 Q921.9219,745.2402 921.6563,745.0059 Q921.3906,744.7715 921.3906,744.3809 Q921.3906,744.0059 921.6563,743.7715 Q921.9219,743.5371 922.5313,743.5371 L924.25,743.5371 L924.25,736.8809 L922.5313,736.8809 Q921.9219,736.8809 921.6563,736.6465 Q921.3906,736.4121 921.3906,736.0215 Q921.3906,735.6465 921.6563,735.4121 Q921.9219,735.1777 922.5313,735.1777 L927.6719,735.1777 Q928.2813,735.1777 928.5469,735.4121 Q928.8125,735.6465 928.8125,736.0215 Q928.8125,736.4121 928.5469,736.6465 Q928.2813,736.8809 927.6719,736.8809 L925.9531,736.8809 Z " fill="#000000"/><ellipse cx="944" cy="739.7402" fill="#84BE84" rx="3" ry="3" style="stroke:#038048;stroke-width:1.0;"/><text fill="#000000" font-family="sans-serif" font-size="14" font-style="italic" lengthAdjust="spacing" textLength="16" x="968" y="736.7266">&lt;&lt;</text><text fill="#000000" filter="url(#b10yvdmr7wpjam0)" font-family="sans-serif" font-size="14" font-style="italic" lengthAdjust="spacing" textLength="95" x="984" y="736.7266">CardCertificate</text><text fill="#000000" font-family="sans-serif" font-size="14" font-style="italic" lengthAdjust="spacing" textLength="16" x="1079" y="736.7266">&gt;&gt;</text><text fill="#000000" font-family="sans-serif" font-size="14" font-style="italic" lengthAdjust="spacing" textLength="163" x="950" y="755.3477">CalypsoCardCertificateV1</text><line style="stroke:#D4AC0D;stroke-width:2.0;" x1="911" x2="1115" y1="763.8613" y2="763.8613"/><line style="stroke:#D4AC0D;stroke-width:2.0;" x1="911" x2="1115" y1="771.8613" y2="771.8613"/><ellipse cx="921" cy="786.6719" fill="#84BE84" rx="3" ry="3" style="stroke:#038048;stroke-width:1.0;"/><text fill="#000000" font-family="sans-serif" font-size="14" lengthAdjust="spacing" textLength="130" x="930" y="790.9688">byte[] getRawData ()</text></g><!--class CalypsoCardCertificateSignerSpi--><g id="elem_CalypsoCardCertificateSignerSpi"><rect codeLine="109" fill="#FDEDEC" height="85.2422" id="CalypsoCardCertificateSignerSpi" rx="2.5" ry="2.5" style="stroke:#E74C3C;stroke-width:2.0;" width="463" x="1151.5" y="715.1191"/><ellipse cx="1269.75" cy="731.1191" fill="#B4A7E5" rx="11" ry="11" style="stroke:#181818;stroke-width:1.0;"/><path d="M1270.7031,727.7598 L1270.7031,734.416 L1272.4219,734.416 Q1273.0313,734.416 1273.2969,734.6504 Q1273.5625,734.8848 1273.5625,735.2754 Q1273.5625,735.6504 1273.2969,735.8848 Q1273.0313,736.1191 1272.4219,736.1191 L1267.2813,736.1191 Q1266.6719,736.1191 1266.4063,735.8848 Q1266.1406,735.6504 1266.1406,735.2598 Q1266.1406,734.8848 1266.4063,734.6504 Q1266.6719,734.416 1267.2813,734.416 L1269,734.416 L1269,727.7598 L1267.2813,727.7598 Q1266.6719,727.7598 1266.4063,727.5254 Q1266.1406,727.291 1266.1406,726.9004 Q1266.1406,726.5254 1266.4063,726.291 Q1266.6719,726.0566 1267.2813,726.0566 L1272.4219,726.0566 Q1273.0313,726.0566 1273.2969,726.291 Q1273.5625,726.5254 1273.5625,726.9004 Q1273.5625,727.291 1273.2969,727.5254 Q1273.0313,727.7598 1272.4219,727.7598 L1270.7031,727.7598 Z " fill="#000000"/><ellipse cx="1295.25" cy="730.6191" fill="#84BE84" rx="3" ry="3" style="stroke:#038048;stroke-width:1.0;"/><text fill="#000000" font-family="sans-serif" font-size="14" font-style="italic" lengthAdjust="spacing" textLength="207" x="1301.25" y="736.916">CalypsoCardCertificateSignerSpi</text><line style="stroke:#E74C3C;stroke-width:2.0;" x1="1152.5" x2="1613.5" y1="747.1191" y2="747.1191"/><line style="stroke:#E74C3C;stroke-width:2.0;" x1="1152.5" x2="1613.5" y1="755.1191" y2="755.1191"/><ellipse cx="1162.5" cy="769.9297" fill="#84BE84" rx="3" ry="3" style="stroke:#038048;stroke-width:1.0;"/><text fill="#000000" font-family="sans-serif" font-size="14" lengthAdjust="spacing" textLength="239" x="1171.5" y="774.2266">byte[] getIssuerPublicKeyReference ()</text><ellipse cx="1162.5" cy="788.5508" fill="#84BE84" rx="3" ry="3" style="stroke:#038048;stroke-width:1.0;"/><text fill="#000000" font-family="sans-serif" font-size="14" lengthAdjust="spacing" textLength="437" x="1171.5" y="792.8477">byte[] generateSignedCertificate (byte[] data, byte[] recoverableData)</text></g><!--link CalypsoCertificateApiFactory to CalypsoCaCertificateV1Builder--><g id="link_CalypsoCertificateApiFactory_CalypsoCaCertificateV1Builder"><path codeLine="123" d="M708.351,277.3121 C681.393,304.9631 648.7725,338.421 613.3715,374.732 " fill="none" id="CalypsoCertificateApiFactory-to-CalypsoCaCertificateV1Builder" style="stroke:#3498DB;stroke-width:2.0;stroke-dasharray:7.0,7.0;"/><polygon fill="#3498DB" points="609.183,379.0281,618.3298,375.3763,612.6734,375.448,612.6016,369.7916,609.183,379.0281" style="stroke:#3498DB;stroke-width:2.0;"/><polygon fill="#000000" points="676.5096,320.3447,684.9281,315.9199,680.7195,311.8167,676.5096,320.3447" style="stroke:#000000;stroke-width:1.0;"/><text fill="#000000" font-family="sans-serif" font-size="13" lengthAdjust="spacing" textLength="40" x="689" y="322.1475">provide</text></g><!--link CalypsoCertificateApiFactory to CalypsoCardCertificateV1Builder--><g id="link_CalypsoCertificateApiFactory_CalypsoCardCertificateV1Builder"><path codeLine="124" d="M833.219,277.1681 C889.306,304.8381 960.6092,340.0154 1034.3492,376.3964 " fill="none" id="CalypsoCertificateApiFactory-to-CalypsoCardCertificateV1Builder" style="stroke:#3498DB;stroke-width:2.0;stroke-dasharray:7.0,7.0;"/><polygon fill="#3498DB" points="1039.73,379.0511,1033.4287,371.4819,1035.246,376.8389,1029.8891,378.6563,1039.73,379.0511" style="stroke:#3498DB;stroke-width:2.0;"/><polygon fill="#000000" points="929.484,318.9768,922.6727,312.3393,920.0721,317.6106,929.484,318.9768" style="stroke:#000000;stroke-width:1.0;"/><text fill="#000000" font-family="sans-serif" font-size="13" lengthAdjust="spacing" textLength="40" x="934" y="322.1475">provide</text></g><!--link CalypsoCaCertificateV1Builder to CalypsoCaCertificateSignerSpi--><g id="link_CalypsoCaCertificateV1Builder_CalypsoCaCertificateSignerSpi"><path codeLine="126" d="M541.63,613.2071 C555.899,649.5081 568.5391,681.667 579.4071,709.317 " fill="none" id="CalypsoCaCertificateV1Builder-to-CalypsoCaCertificateSignerSpi" style="stroke:#27AE60;stroke-width:2.0;stroke-dasharray:7.0,7.0;"/><polygon fill="#27AE60" points="581.602,714.9011,582.0324,705.0617,579.7729,710.2477,574.5869,707.9882,581.602,714.9011" style="stroke:#27AE60;stroke-width:2.0;"/><polygon fill="#000000" points="566.8291,657.4181,566.2555,647.9248,560.785,650.0751,566.8291,657.4181" style="stroke:#000000;stroke-width:1.0;"/><text fill="#000000" font-family="sans-serif" font-size="13" lengthAdjust="spacing" textLength="21" x="574" y="658.1475">use</text></g><!--link CalypsoCaCertificateV1Builder to CalypsoCaCertificateV1--><g id="link_CalypsoCaCertificateV1Builder_CalypsoCaCertificateV1"><path codeLine="127" d="M379.241,613.2071 C342.052,650.1831 307.6119,684.4248 279.6739,712.2018 " fill="none" id="CalypsoCaCertificateV1Builder-to-CalypsoCaCertificateV1" style="stroke:#3498DB;stroke-width:2.0;stroke-dasharray:7.0,7.0;"/><polygon fill="#3498DB" points="275.419,716.4321,284.6216,712.9232,278.9647,712.9068,278.9811,707.25,275.419,716.4321" style="stroke:#3498DB;stroke-width:2.0;"/><polygon fill="#000000" points="344.4543,656.29,352.9407,651.9967,348.7964,647.8285,344.4543,656.29" style="stroke:#000000;stroke-width:1.0;"/><text fill="#000000" font-family="sans-serif" font-size="13" lengthAdjust="spacing" textLength="40" x="357" y="658.1475">provide</text></g><!--link CalypsoCardCertificateV1Builder to CalypsoCardCertificateSignerSpi--><g id="link_CalypsoCardCertificateV1Builder_CalypsoCardCertificateSignerSpi"><path codeLine="129" d="M1286.59,613.1251 C1290.57,630.0121 1295.89,646.8381 1303,662.1191 C1311.88,681.2201 1321.7004,695.0647 1335.3604,710.4087 " fill="none" id="CalypsoCardCertificateV1Builder-to-CalypsoCardCertificateSignerSpi" style="stroke:#27AE60;stroke-width:2.0;stroke-dasharray:7.0,7.0;"/><polygon fill="#27AE60" points="1339.35,714.8901,1336.3532,705.5083,1336.0253,711.1556,1330.378,710.8277,1339.35,714.8901" style="stroke:#27AE60;stroke-width:2.0;"/><polygon fill="#000000" points="1310.2408,657.2344,1308.8144,647.8314,1303.5599,650.4656,1310.2408,657.2344" style="stroke:#000000;stroke-width:1.0;"/><text fill="#000000" font-family="sans-serif" font-size="13" lengthAdjust="spacing" textLength="21" x="1317" y="658.1475">use</text></g><!--link CalypsoCardCertificateV1Builder to CalypsoCardCertificateV1--><g id="link_CalypsoCardCertificateV1Builder_CalypsoCardCertificateV1"><path codeLine="130" d="M1157.79,613.2071 C1120.46,650.1831 1085.8833,684.4333 1057.8333,712.2103 " fill="none" id="CalypsoCardCertificateV1Builder-to-CalypsoCardCertificateV1" style="stroke:#3498DB;stroke-width:2.0;stroke-dasharray:7.0,7.0;"/><polygon fill="#3498DB" points="1053.57,716.4321,1062.7796,712.9416,1057.1228,712.9139,1057.1504,707.2572,1053.57,716.4321" style="stroke:#3498DB;stroke-width:2.0;"/><polygon fill="#000000" points="1121.4476,656.2832,1129.9421,652.0062,1125.8058,647.83,1121.4476,656.2832" style="stroke:#000000;stroke-width:1.0;"/><text fill="#000000" font-family="sans-serif" font-size="13" lengthAdjust="spacing" textLength="40" x="1134" y="658.1475">provide</text></g><!--link CalypsoCaCertificateV1Builder to CertificateSigningException--><g id="link_CalypsoCaCertificateV1Builder_CertificateSigningException"><path codeLine="132" d="M144.492,599.5341 C117.507,619.0941 93.587,642.3851 75,670.1191 C30.9559,735.8361 22.2028,789.2041 75,848.1191 C113.747,891.3561 433.0491,915.2095 656.9831,926.8574 " fill="none" id="CalypsoCaCertificateV1Builder-to-CertificateSigningException" style="stroke:#2C3E50;stroke-width:2.0;stroke-dasharray:7.0,7.0;"/><polygon fill="#2C3E50" points="662.975,927.169,654.1949,922.7069,657.9818,926.9093,653.7794,930.6961,662.975,927.169" style="stroke:#2C3E50;stroke-width:2.0;"/><polygon fill="#000000" points="84.2139,760.456,78.1729,753.1105,75.009,758.0641,84.2139,760.456" style="stroke:#000000;stroke-width:1.0;"/><text fill="#000000" font-family="sans-serif" font-size="13" lengthAdjust="spacing" textLength="31" x="89" y="763.1475">throw</text></g><!--link CalypsoCardCertificateV1Builder to CertificateSigningException--><g id="link_CalypsoCardCertificateV1Builder_CertificateSigningException"><path codeLine="133" d="M1581.62,613.3421 C1600.71,629.8871 1617.6,648.7121 1631,670.1191 C1672.97,737.1791 1683.6,789.0291 1631,848.1191 C1595.3,888.2231 1305.8292,912.542 1095.3292,925.2002 " fill="none" id="CalypsoCardCertificateV1Builder-to-CertificateSigningException" style="stroke:#2C3E50;stroke-width:2.0;stroke-dasharray:7.0,7.0;"/><polygon fill="#2C3E50" points="1089.34,925.5603,1098.5639,929.0129,1094.331,925.2602,1098.0837,921.0273,1089.34,925.5603" style="stroke:#2C3E50;stroke-width:2.0;"/><polygon fill="#000000" points="1666.7911,760.4638,1675.9916,758.0549,1672.8185,753.1071,1666.7911,760.4638" style="stroke:#000000;stroke-width:1.0;"/><text fill="#000000" font-family="sans-serif" font-size="13" lengthAdjust="spacing" textLength="31" x="1680" y="763.1475">throw</text></g><!--SRC=[rLXRSzeu57xdLsYJXmPQI498QHYM6MFBBTCsoG3jJgRRoGXRW3R6zaXogAUJ_xwIxmRRNBexEykJEJhdEnSTVJuM9zp2DI1-KqnNn4OMK97bkym1AgQSp8c1E0RA_GXSj2vRhy5P-wBTQLwqcvTlwpLicu072BLNuFVVmVG3_0p5W_YhEfw5FSe0OSp339WOzC2ISvVrpi-NV6KPZkLGmp4nQndEwdnEppcQMHXvJHCtZT2wG2GU6LdOJTT2_BpscuddnCP0VNm_XW-NG7-dt-Wt6-8sqDlwbTxP45y1U0sxS5Ex0xIkDjIq3V4rK1LLrzeRuhTWgAbNQZSZ_ZIw_GYkEZVlj656-cK2GRkhmBSN6U7qm_Zk3z1Mh-3rXInXimactBT4kVWISM0wzYiErWvz0cl2by36Q_2CAIEE3Pmv42MmkRUoX5cDFH7RHHIj0EEOOeVxBbQ63ZKnLMMXmQboewcQNgWuoYaEEqeNNXSggdb4JRiSjWiLOKuH3c-kXEiWFtYhoNWpLgg560lrfqjYFDcOCP25LIXrrjabWVI0BSjPRw4Wusb17Sys8yywrA4AYvr5Abf7KIyq0Jd6vWwyVfzYSp0Gi1hKe5e1csZ2RaUqHsr9HF_7mhHCmkkzHrrnVdOvTWErm7S7gdgtqdUg_0vsEeeMkq_akGXcbhVRlrGAyXdgr_gmqdki6Xs1o7SapNb-Jp6sTxfUIAt0zutUXNgbxqGtEcgHyrYywTtVnxaV-5P47y5TlWFLw3Ydhlsyvv0grRlRARoT1cHfuKN0f8uRCF7ZOu38G2X_V0IzGDuGA_27098iBHcPuhb0jGtCKfq6wCz44ZsNs4-3HkCZzbt7JJaTKLEQDXhzSwaso1lvmQaQ_8MUKOjXmwE4-x6YZ30Cg5PpXGGjC3WnGjoMaRuhJW1Y0Ba4_0omNnkoKE2aqPZBjujm5SMIURqeBhcdZYi5c0NsEKbc0qFC0FSduuWJumMao1DEYRq0N-5uChgx3LHVmY28BSesHmOkzguZWplKJziquoSsG1cJhvT3ZrXYwu51iVXVhNDMBq2ZPg7k9c29MWGPPfVPZQ1u1ih6lvrwSPG5kU-HltmlgUZUcrd44Bq6pdADD9ueoLBKHoAwHFG6p7oElttFoiPnJzSF3MF24UMQd5REHCx0nuY-0V9fvTXy6JwQo3yO5zhclu2g41ESHUaZOjOFB_gOB9QSXI2YWk7V8t0cXZXe2KpmxmYKEt5OnNcq5v_5I9UWvQJrsZwmO2Pn2ng9acUXaEcaOBAagJnffsZXk9QA_HUjJiJaYUb4a9knBKxHNufEtqc_ds7c76oKq63mfrqSKt2iIyBTEAvH2HQOZz5Qz2tAqayQMC8Pp2KHQKmIpjwJEz9gn9DDtdmZdb79hcG3t3QpPGE5hh9Kc9mTKwIOR3p5XYC6PFdH85FFuxvib66BFAaPLKAy8wi9j8ILTr9eYLruWgYPeT6463FI-k6elyY95SY_n8eLk7louevAJZ0boBhrLZFviepWM4PuBAwif-UExBcJmgQo8r17jeb_X5Kayh6K93Sm_WEQB8cWU3rBbGKB1v9b3g68BZTYonFcPk3_66MAXjYBD4igyp-cpNYix_V7dit92iCV1dOvSMovBPbXFv-tc0GInN2FojUBn_ugWxFe0s256HCxLJ_AwWsOBgcpbiKGE-mn78_QB_BBJM7CCGYIXgnMg_oOQBK6EqRkq-Yog0TSwZpBxyN10P0bf584MgkEeopIj5DFmmki7X3ro0Hv69muUTN1bMHKdlNk00-6t1ba2Pu4h6Yoq_YohmUuRA-zOZmSCxnR-AGyt7sPHlUmLVtK_BOafedjxytgJZq2fZYfAC39zE5JU4ySaoeAzp2ynVtvafMtnFViQNoJkxNK2WVNq_XETqj137FbrjHinIoUHVWR]--></g></svg>