<?xml version="1.0" encoding="us-ascii" standalone="no"?><svg xmlns="http://www.w3.org/2000/svg" xmlns:xlink="http://www.w3.org/1999/xlink" contentStyleType="text/css" height="994px" preserveAspectRatio="none" style="width:1490px;height:994px;background:#FFFFFF;" version="1.1" viewBox="0 0 1490 994" width="1490px" zoomAndPan="magnify"><defs><filter height="1" id="b1i9ko2ita93on0" width="1" x="0" y="0"><feFlood flood-color="#FFFF00" result="flood"/><feComposite in="SourceGraphic" in2="flood" operator="over"/></filter></defs><g><text fill="#000000" font-family="sans-serif" font-size="14" font-weight="bold" lengthAdjust="spacing" textLength="346" x="565" y="25.1074">Terminal Calypso Certificate API 0.1.+ (2024-02-26)</text><rect fill="#DDDDDD" height="65.8633" id="_legend" rx="7.5" ry="7.5" style="stroke:#000000;stroke-width:1.0;" width="178" x="649" y="51.6211"/><text fill="#000000" font-family="sans-serif" font-size="14" lengthAdjust="spacing" text-decoration="underline" textLength="88" x="654" y="71.7285">Colors legend</text><text fill="#000000" font-family="sans-serif" font-size="14" lengthAdjust="spacing" textLength="4" x="746" y="71.7285">:</text><ellipse cx="659.5" cy="86.3633" fill="#000000" rx="2.5" ry="2.5" style="stroke:#000000;stroke-width:0.0;"/><text fill="#000000" font-family="sans-serif" font-size="14" lengthAdjust="spacing" text-decoration="underline" textLength="148" x="666" y="90.3496">External API references</text><text fill="#000000" font-family="sans-serif" font-size="14" lengthAdjust="spacing" textLength="4" x="818" y="90.3496">:</text><rect fill="#000000" height="3.5" style="stroke:#000000;stroke-width:0.0;" width="3.5" x="663" y="102.4844"/><text fill="#000000" filter="url(#b1i9ko2ita93on0)" font-family="sans-serif" font-size="14" lengthAdjust="spacing" textLength="79" x="670" y="108.9707">java.security</text><!--cluster api--><g id="cluster_api"><path d="M8.5,136.498 L137.5,136.498 A3.75,3.75 0 0 1 140,138.998 L147,161.1191 L1480.5,161.1191 A2.5,2.5 0 0 1 1483,163.6191 L1483,984.998 A2.5,2.5 0 0 1 1480.5,987.498 L8.5,987.498 A2.5,2.5 0 0 1 6,984.998 L6,138.998 A2.5,2.5 0 0 1 8.5,136.498 " fill="#F8F9F9" style="stroke:#000000;stroke-width:1.5;"/><line style="stroke:#000000;stroke-width:1.5;" x1="6" x2="147" y1="161.1191" y2="161.1191"/><text fill="#000000" font-family="sans-serif" font-size="14" font-weight="bold" lengthAdjust="spacing" textLength="128" x="10" y="153.6055">calypso.certificate</text></g><!--cluster spi--><g id="cluster_spi"><path d="M965.5,383.998 L987.5,383.998 A3.75,3.75 0 0 1 990,386.498 L997,408.6191 L1456.5,408.6191 A2.5,2.5 0 0 1 1459,411.1191 L1459,501.498 A2.5,2.5 0 0 1 1456.5,503.998 L965.5,503.998 A2.5,2.5 0 0 1 963,501.498 L963,386.498 A2.5,2.5 0 0 1 965.5,383.998 " fill="#F2F3F4" style="stroke:#000000;stroke-width:1.5;"/><line style="stroke:#000000;stroke-width:1.5;" x1="963" x2="997" y1="408.6191" y2="408.6191"/><text fill="#000000" font-family="sans-serif" font-size="14" font-weight="bold" lengthAdjust="spacing" textLength="21" x="967" y="401.1055">spi</text></g><!--class ApiProperties--><g id="elem_ApiProperties"><rect codeLine="61" fill="#E9F7EF" height="66.6211" id="ApiProperties" rx="2.5" ry="2.5" style="stroke:#27AE60;stroke-width:2.0;" width="277" x="1189.5" y="210.498"/><ellipse cx="1204.5" cy="226.498" fill="#ADD1B2" rx="11" ry="11" style="stroke:#181818;stroke-width:1.0;"/><path d="M1207.2656,222.373 Q1207.4219,222.1543 1207.6094,222.0449 Q1207.7969,221.9355 1208.0156,221.9355 Q1208.3906,221.9355 1208.625,222.2012 Q1208.8594,222.4512 1208.8594,223.0605 L1208.8594,224.5137 Q1208.8594,225.123 1208.625,225.3887 Q1208.3906,225.6543 1208.0156,225.6543 Q1207.6719,225.6543 1207.4688,225.4512 Q1207.2656,225.2637 1207.1563,224.748 Q1207.1094,224.3887 1206.9219,224.2012 Q1206.5938,223.8262 1205.9844,223.6074 Q1205.375,223.3887 1204.75,223.3887 Q1203.9844,223.3887 1203.3438,223.7168 Q1202.7188,224.0449 1202.2188,224.7949 Q1201.7344,225.5449 1201.7344,226.5762 L1201.7344,227.6699 Q1201.7344,228.9043 1202.625,229.7324 Q1203.5156,230.5449 1205.1094,230.5449 Q1206.0469,230.5449 1206.7031,230.2949 Q1207.0938,230.1387 1207.5156,229.7012 Q1207.7813,229.4355 1207.9219,229.3574 Q1208.0781,229.2793 1208.2813,229.2793 Q1208.6094,229.2793 1208.8594,229.5449 Q1209.125,229.7949 1209.125,230.1387 Q1209.125,230.4824 1208.7813,230.8887 Q1208.2813,231.4668 1207.4844,231.7949 Q1206.4063,232.248 1205.1094,232.248 Q1203.5938,232.248 1202.3906,231.623 Q1201.4063,231.123 1200.7188,230.0605 Q1200.0313,228.9824 1200.0313,227.7012 L1200.0313,226.5449 Q1200.0313,225.2168 1200.6406,224.0762 Q1201.2656,222.9199 1202.3594,222.3105 Q1203.4531,221.6855 1204.6875,221.6855 Q1205.4219,221.6855 1206.0625,221.8574 Q1206.7188,222.0137 1207.2656,222.373 Z " fill="#000000"/><ellipse cx="1223.5" cy="225.998" fill="#84BE84" rx="3" ry="3" style="stroke:#038048;stroke-width:1.0;"/><text fill="#000000" font-family="sans-serif" font-size="14" font-weight="bold" lengthAdjust="spacing" textLength="30" x="1229.5" y="232.2949">final</text><text fill="#000000" font-family="sans-serif" font-size="14" lengthAdjust="spacing" textLength="200" x="1263.5" y="232.2949">CalypsoCertificateApiProperties</text><line style="stroke:#27AE60;stroke-width:2.0;" x1="1190.5" x2="1465.5" y1="242.498" y2="242.498"/><ellipse cx="1200.5" cy="257.3086" fill="none" rx="3" ry="3" style="stroke:#038048;stroke-width:1.0;"/><text fill="#000000" font-family="sans-serif" font-size="14" font-weight="bold" lengthAdjust="spacing" text-decoration="underline" textLength="30" x="1209.5" y="261.6055">final</text><text fill="#000000" font-family="sans-serif" font-size="14" lengthAdjust="spacing" text-decoration="underline" textLength="101" x="1243.5" y="261.6055">String VERSION</text><line style="stroke:#27AE60;stroke-width:2.0;" x1="1190.5" x2="1465.5" y1="269.1191" y2="269.1191"/></g><!--class CalypsoCertificateApiFactory--><g id="elem_CalypsoCertificateApiFactory"><rect codeLine="64" fill="#EBF5FB" height="141.1055" id="CalypsoCertificateApiFactory" rx="2.5" ry="2.5" style="stroke:#3498DB;stroke-width:2.0;" width="1046" x="108" y="173.498"/><ellipse cx="529.75" cy="189.498" fill="#B4A7E5" rx="11" ry="11" style="stroke:#181818;stroke-width:1.0;"/><path d="M530.7031,186.1387 L530.7031,192.7949 L532.4219,192.7949 Q533.0313,192.7949 533.2969,193.0293 Q533.5625,193.2637 533.5625,193.6543 Q533.5625,194.0293 533.2969,194.2637 Q533.0313,194.498 532.4219,194.498 L527.2813,194.498 Q526.6719,194.498 526.4063,194.2637 Q526.1406,194.0293 526.1406,193.6387 Q526.1406,193.2637 526.4063,193.0293 Q526.6719,192.7949 527.2813,192.7949 L529,192.7949 L529,186.1387 L527.2813,186.1387 Q526.6719,186.1387 526.4063,185.9043 Q526.1406,185.6699 526.1406,185.2793 Q526.1406,184.9043 526.4063,184.6699 Q526.6719,184.4355 527.2813,184.4355 L532.4219,184.4355 Q533.0313,184.4355 533.2969,184.6699 Q533.5625,184.9043 533.5625,185.2793 Q533.5625,185.6699 533.2969,185.9043 Q533.0313,186.1387 532.4219,186.1387 L530.7031,186.1387 Z " fill="#000000"/><ellipse cx="555.25" cy="188.998" fill="#84BE84" rx="3" ry="3" style="stroke:#038048;stroke-width:1.0;"/><text fill="#000000" font-family="sans-serif" font-size="14" font-style="italic" lengthAdjust="spacing" textLength="183" x="561.25" y="195.2949">CalypsoCertificateApiFactory</text><line style="stroke:#3498DB;stroke-width:2.0;" x1="109" x2="1153" y1="205.498" y2="205.498"/><line style="stroke:#3498DB;stroke-width:2.0;" x1="109" x2="1153" y1="213.498" y2="213.498"/><ellipse cx="119" cy="228.3086" fill="#84BE84" rx="3" ry="3" style="stroke:#038048;stroke-width:1.0;"/><text fill="#000000" font-family="sans-serif" font-size="14" lengthAdjust="spacing" textLength="336" x="128" y="232.6055">CalypsoCertificateStore getCalypsoCertificateStore ()</text><text fill="#000000" font-family="sans-serif" font-size="14" lengthAdjust="spacing" textLength="4" x="128" y="251.2266">&#160;</text><ellipse cx="119" cy="265.5508" fill="#84BE84" rx="3" ry="3" style="stroke:#038048;stroke-width:1.0;"/><text fill="#000000" font-family="sans-serif" font-size="14" lengthAdjust="spacing" textLength="981" x="128" y="269.8477">CalypsoCaCertificateV1Generator createCalypsoCaCertificateV1Generator (byte[] issuerPublicKeyReference, CalypsoCertificateSigner caCertificateSigner)</text><text fill="#000000" font-family="sans-serif" font-size="14" lengthAdjust="spacing" textLength="4" x="128" y="288.4688">&#160;</text><ellipse cx="119" cy="302.793" fill="#84BE84" rx="3" ry="3" style="stroke:#038048;stroke-width:1.0;"/><text fill="#000000" font-family="sans-serif" font-size="14" lengthAdjust="spacing" textLength="1020" x="128" y="307.0898">CalypsoCardCertificateV1Generator createCalypsoCardCertificateV1Generator (byte[] issuerPublicKeyReference, CalypsoCertificateSigner cardCertificateSigner)</text></g><!--class CalypsoCertificateStore--><g id="elem_CalypsoCertificateStore"><rect codeLine="71" fill="#EBF5FB" height="122.4844" id="CalypsoCertificateStore" rx="2.5" ry="2.5" style="stroke:#3498DB;stroke-width:2.0;" width="680" x="22" y="393.498"/><ellipse cx="277.75" cy="409.498" fill="#B4A7E5" rx="11" ry="11" style="stroke:#181818;stroke-width:1.0;"/><path d="M278.7031,406.1387 L278.7031,412.7949 L280.4219,412.7949 Q281.0313,412.7949 281.2969,413.0293 Q281.5625,413.2637 281.5625,413.6543 Q281.5625,414.0293 281.2969,414.2637 Q281.0313,414.498 280.4219,414.498 L275.2813,414.498 Q274.6719,414.498 274.4063,414.2637 Q274.1406,414.0293 274.1406,413.6387 Q274.1406,413.2637 274.4063,413.0293 Q274.6719,412.7949 275.2813,412.7949 L277,412.7949 L277,406.1387 L275.2813,406.1387 Q274.6719,406.1387 274.4063,405.9043 Q274.1406,405.6699 274.1406,405.2793 Q274.1406,404.9043 274.4063,404.6699 Q274.6719,404.4355 275.2813,404.4355 L280.4219,404.4355 Q281.0313,404.4355 281.2969,404.6699 Q281.5625,404.9043 281.5625,405.2793 Q281.5625,405.6699 281.2969,405.9043 Q281.0313,406.1387 280.4219,406.1387 L278.7031,406.1387 Z " fill="#000000"/><ellipse cx="303.25" cy="408.998" fill="#84BE84" rx="3" ry="3" style="stroke:#038048;stroke-width:1.0;"/><text fill="#000000" font-family="sans-serif" font-size="14" font-style="italic" lengthAdjust="spacing" textLength="149" x="309.25" y="415.2949">CalypsoCertificateStore</text><line style="stroke:#3498DB;stroke-width:2.0;" x1="23" x2="701" y1="425.498" y2="425.498"/><line style="stroke:#3498DB;stroke-width:2.0;" x1="23" x2="701" y1="433.498" y2="433.498"/><ellipse cx="33" cy="448.3086" fill="#84BE84" rx="3" ry="3" style="stroke:#038048;stroke-width:1.0;"/><text fill="#000000" font-family="sans-serif" font-size="14" lengthAdjust="spacing" textLength="466" x="42" y="452.6055">CalypsoCertificateStore addPcaPublicKey (byte[] pcaPublicKeyReference,</text><text fill="#000000" filter="url(#b1i9ko2ita93on0)" font-family="sans-serif" font-size="14" lengthAdjust="spacing" textLength="90" x="512" y="452.6055">RSAPublicKey</text><text fill="#000000" font-family="sans-serif" font-size="14" lengthAdjust="spacing" textLength="90" x="606" y="452.6055">pcaPublicKey)</text><ellipse cx="33" cy="466.9297" fill="#84BE84" rx="3" ry="3" style="stroke:#038048;stroke-width:1.0;"/><text fill="#000000" font-family="sans-serif" font-size="14" lengthAdjust="spacing" textLength="652" x="42" y="471.2266">CalypsoCertificateStore addPcaPublicKey (byte[] pcaPublicKeyReference, byte[] pcaPublicKeyModulus)</text><text fill="#000000" font-family="sans-serif" font-size="14" lengthAdjust="spacing" textLength="4" x="42" y="489.8477">&#160;</text><ellipse cx="33" cy="504.1719" fill="#84BE84" rx="3" ry="3" style="stroke:#038048;stroke-width:1.0;"/><text fill="#000000" font-family="sans-serif" font-size="14" lengthAdjust="spacing" textLength="442" x="42" y="508.4688">CalypsoCertificateStore addCalypsoCaCertificate (byte[] caCertificate)</text></g><!--class CalypsoCaCertificateV1Generator--><g id="elem_CalypsoCaCertificateV1Generator"><rect codeLine="82" fill="#EBF5FB" height="196.9688" id="CalypsoCaCertificateV1Generator" rx="2.5" ry="2.5" style="stroke:#3498DB;stroke-width:2.0;" width="724" x="174" y="585.998"/><ellipse cx="418.75" cy="601.998" fill="#B4A7E5" rx="11" ry="11" style="stroke:#181818;stroke-width:1.0;"/><path d="M419.7031,598.6387 L419.7031,605.2949 L421.4219,605.2949 Q422.0313,605.2949 422.2969,605.5293 Q422.5625,605.7637 422.5625,606.1543 Q422.5625,606.5293 422.2969,606.7637 Q422.0313,606.998 421.4219,606.998 L416.2813,606.998 Q415.6719,606.998 415.4063,606.7637 Q415.1406,606.5293 415.1406,606.1387 Q415.1406,605.7637 415.4063,605.5293 Q415.6719,605.2949 416.2813,605.2949 L418,605.2949 L418,598.6387 L416.2813,598.6387 Q415.6719,598.6387 415.4063,598.4043 Q415.1406,598.1699 415.1406,597.7793 Q415.1406,597.4043 415.4063,597.1699 Q415.6719,596.9355 416.2813,596.9355 L421.4219,596.9355 Q422.0313,596.9355 422.2969,597.1699 Q422.5625,597.4043 422.5625,597.7793 Q422.5625,598.1699 422.2969,598.4043 Q422.0313,598.6387 421.4219,598.6387 L419.7031,598.6387 Z " fill="#000000"/><ellipse cx="444.25" cy="601.498" fill="#84BE84" rx="3" ry="3" style="stroke:#038048;stroke-width:1.0;"/><text fill="#000000" font-family="sans-serif" font-size="14" font-style="italic" lengthAdjust="spacing" textLength="215" x="450.25" y="607.7949">CalypsoCaCertificateV1Generator</text><line style="stroke:#3498DB;stroke-width:2.0;" x1="175" x2="897" y1="617.998" y2="617.998"/><line style="stroke:#3498DB;stroke-width:2.0;" x1="175" x2="897" y1="625.998" y2="625.998"/><ellipse cx="185" cy="640.8086" fill="#84BE84" rx="3" ry="3" style="stroke:#038048;stroke-width:1.0;"/><text fill="#000000" font-family="sans-serif" font-size="14" lengthAdjust="spacing" textLength="518" x="194" y="645.1055">CalypsoCaCertificateV1Generator withCaPublicKey (byte[] caPublicKeyReference,</text><text fill="#000000" filter="url(#b1i9ko2ita93on0)" font-family="sans-serif" font-size="14" lengthAdjust="spacing" textLength="90" x="716" y="645.1055">RSAPublicKey</text><text fill="#000000" font-family="sans-serif" font-size="14" lengthAdjust="spacing" textLength="82" x="810" y="645.1055">caPublicKey)</text><ellipse cx="185" cy="659.4297" fill="#84BE84" rx="3" ry="3" style="stroke:#038048;stroke-width:1.0;"/><text fill="#000000" font-family="sans-serif" font-size="14" lengthAdjust="spacing" textLength="480" x="194" y="663.7266">CalypsoCaCertificateV1Generator withStartDate (int year, int month, int day)</text><ellipse cx="185" cy="678.0508" fill="#84BE84" rx="3" ry="3" style="stroke:#038048;stroke-width:1.0;"/><text fill="#000000" font-family="sans-serif" font-size="14" lengthAdjust="spacing" textLength="475" x="194" y="682.3477">CalypsoCaCertificateV1Generator withEndDate (int year, int month, int day)</text><ellipse cx="185" cy="696.6719" fill="#84BE84" rx="3" ry="3" style="stroke:#038048;stroke-width:1.0;"/><text fill="#000000" font-family="sans-serif" font-size="14" lengthAdjust="spacing" textLength="515" x="194" y="700.9688">CalypsoCaCertificateV1Generator withTargetAid (byte[] aid, boolean isTruncated)</text><ellipse cx="185" cy="715.293" fill="#84BE84" rx="3" ry="3" style="stroke:#038048;stroke-width:1.0;"/><text fill="#000000" font-family="sans-serif" font-size="14" lengthAdjust="spacing" textLength="401" x="194" y="719.5898">CalypsoCaCertificateV1Generator withCaRights (byte caRights)</text><ellipse cx="185" cy="733.9141" fill="#84BE84" rx="3" ry="3" style="stroke:#038048;stroke-width:1.0;"/><text fill="#000000" font-family="sans-serif" font-size="14" lengthAdjust="spacing" textLength="401" x="194" y="738.2109">CalypsoCaCertificateV1Generator withCaScope (byte caScope)</text><text fill="#000000" font-family="sans-serif" font-size="14" lengthAdjust="spacing" textLength="4" x="194" y="756.832">&#160;</text><ellipse cx="185" cy="771.1563" fill="#84BE84" rx="3" ry="3" style="stroke:#038048;stroke-width:1.0;"/><text fill="#000000" font-family="sans-serif" font-size="14" lengthAdjust="spacing" textLength="110" x="194" y="775.4531">byte[] generate ()</text></g><!--class CalypsoCardCertificateV1Generator--><g id="elem_CalypsoCardCertificateV1Generator"><rect codeLine="92" fill="#EBF5FB" height="215.5898" id="CalypsoCardCertificateV1Generator" rx="2.5" ry="2.5" style="stroke:#3498DB;stroke-width:2.0;" width="534" x="933" y="576.498"/><ellipse cx="1076.25" cy="592.498" fill="#B4A7E5" rx="11" ry="11" style="stroke:#181818;stroke-width:1.0;"/><path d="M1077.2031,589.1387 L1077.2031,595.7949 L1078.9219,595.7949 Q1079.5313,595.7949 1079.7969,596.0293 Q1080.0625,596.2637 1080.0625,596.6543 Q1080.0625,597.0293 1079.7969,597.2637 Q1079.5313,597.498 1078.9219,597.498 L1073.7813,597.498 Q1073.1719,597.498 1072.9063,597.2637 Q1072.6406,597.0293 1072.6406,596.6387 Q1072.6406,596.2637 1072.9063,596.0293 Q1073.1719,595.7949 1073.7813,595.7949 L1075.5,595.7949 L1075.5,589.1387 L1073.7813,589.1387 Q1073.1719,589.1387 1072.9063,588.9043 Q1072.6406,588.6699 1072.6406,588.2793 Q1072.6406,587.9043 1072.9063,587.6699 Q1073.1719,587.4355 1073.7813,587.4355 L1078.9219,587.4355 Q1079.5313,587.4355 1079.7969,587.6699 Q1080.0625,587.9043 1080.0625,588.2793 Q1080.0625,588.6699 1079.7969,588.9043 Q1079.5313,589.1387 1078.9219,589.1387 L1077.2031,589.1387 Z " fill="#000000"/><ellipse cx="1101.75" cy="591.998" fill="#84BE84" rx="3" ry="3" style="stroke:#038048;stroke-width:1.0;"/><text fill="#000000" font-family="sans-serif" font-size="14" font-style="italic" lengthAdjust="spacing" textLength="228" x="1107.75" y="598.2949">CalypsoCardCertificateV1Generator</text><line style="stroke:#3498DB;stroke-width:2.0;" x1="934" x2="1466" y1="608.498" y2="608.498"/><line style="stroke:#3498DB;stroke-width:2.0;" x1="934" x2="1466" y1="616.498" y2="616.498"/><ellipse cx="944" cy="631.3086" fill="#84BE84" rx="3" ry="3" style="stroke:#038048;stroke-width:1.0;"/><text fill="#000000" font-family="sans-serif" font-size="14" lengthAdjust="spacing" textLength="492" x="953" y="635.6055">CalypsoCardCertificateV1Generator withCardPublicKey (byte[] cardPublicKey)</text><ellipse cx="944" cy="649.9297" fill="#84BE84" rx="3" ry="3" style="stroke:#038048;stroke-width:1.0;"/><text fill="#000000" font-family="sans-serif" font-size="14" lengthAdjust="spacing" textLength="493" x="953" y="654.2266">CalypsoCardCertificateV1Generator withStartDate (int year, int month, int day)</text><ellipse cx="944" cy="668.5508" fill="#84BE84" rx="3" ry="3" style="stroke:#038048;stroke-width:1.0;"/><text fill="#000000" font-family="sans-serif" font-size="14" lengthAdjust="spacing" textLength="488" x="953" y="672.8477">CalypsoCardCertificateV1Generator withEndDate (int year, int month, int day)</text><ellipse cx="944" cy="687.1719" fill="#84BE84" rx="3" ry="3" style="stroke:#038048;stroke-width:1.0;"/><text fill="#000000" font-family="sans-serif" font-size="14" lengthAdjust="spacing" textLength="379" x="953" y="691.4688">CalypsoCardCertificateV1Generator withCardAid (byte[] aid)</text><ellipse cx="944" cy="705.793" fill="#84BE84" rx="3" ry="3" style="stroke:#038048;stroke-width:1.0;"/><text fill="#000000" font-family="sans-serif" font-size="14" lengthAdjust="spacing" textLength="508" x="953" y="710.0898">CalypsoCardCertificateV1Generator withCardSerialNumber (byte[] serialNumber)</text><ellipse cx="944" cy="724.4141" fill="#84BE84" rx="3" ry="3" style="stroke:#038048;stroke-width:1.0;"/><text fill="#000000" font-family="sans-serif" font-size="14" lengthAdjust="spacing" textLength="476" x="953" y="728.7109">CalypsoCardCertificateV1Generator withCardStartupInfo (byte[] startupInfo)</text><ellipse cx="944" cy="743.0352" fill="#84BE84" rx="3" ry="3" style="stroke:#038048;stroke-width:1.0;"/><text fill="#000000" font-family="sans-serif" font-size="14" lengthAdjust="spacing" textLength="355" x="953" y="747.332">CalypsoCardCertificateV1Generator withIndex (int index)</text><text fill="#000000" font-family="sans-serif" font-size="14" lengthAdjust="spacing" textLength="4" x="953" y="765.9531">&#160;</text><ellipse cx="944" cy="780.2773" fill="#84BE84" rx="3" ry="3" style="stroke:#038048;stroke-width:1.0;"/><text fill="#000000" font-family="sans-serif" font-size="14" lengthAdjust="spacing" textLength="110" x="953" y="784.5742">byte[] generate ()</text></g><!--class CertificateSigningException--><g id="elem_CertificateSigningException"><rect codeLine="103" fill="#E9F7EF" height="100.4844" id="CertificateSigningException" rx="2.5" ry="2.5" style="stroke:#27AE60;stroke-width:2.0;" width="426" x="846" y="871.498"/><ellipse cx="946.25" cy="895.1191" fill="#ADD1B2" rx="11" ry="11" style="stroke:#181818;stroke-width:1.0;"/><path d="M949.0156,890.9941 Q949.1719,890.7754 949.3594,890.666 Q949.5469,890.5566 949.7656,890.5566 Q950.1406,890.5566 950.375,890.8223 Q950.6094,891.0723 950.6094,891.6816 L950.6094,893.1348 Q950.6094,893.7441 950.375,894.0098 Q950.1406,894.2754 949.7656,894.2754 Q949.4219,894.2754 949.2188,894.0723 Q949.0156,893.8848 948.9063,893.3691 Q948.8594,893.0098 948.6719,892.8223 Q948.3438,892.4473 947.7344,892.2285 Q947.125,892.0098 946.5,892.0098 Q945.7344,892.0098 945.0938,892.3379 Q944.4688,892.666 943.9688,893.416 Q943.4844,894.166 943.4844,895.1973 L943.4844,896.291 Q943.4844,897.5254 944.375,898.3535 Q945.2656,899.166 946.8594,899.166 Q947.7969,899.166 948.4531,898.916 Q948.8438,898.7598 949.2656,898.3223 Q949.5313,898.0566 949.6719,897.9785 Q949.8281,897.9004 950.0313,897.9004 Q950.3594,897.9004 950.6094,898.166 Q950.875,898.416 950.875,898.7598 Q950.875,899.1035 950.5313,899.5098 Q950.0313,900.0879 949.2344,900.416 Q948.1563,900.8691 946.8594,900.8691 Q945.3438,900.8691 944.1406,900.2441 Q943.1563,899.7441 942.4688,898.6816 Q941.7813,897.6035 941.7813,896.3223 L941.7813,895.166 Q941.7813,893.8379 942.3906,892.6973 Q943.0156,891.541 944.1094,890.9316 Q945.2031,890.3066 946.4375,890.3066 Q947.1719,890.3066 947.8125,890.4785 Q948.4688,890.6348 949.0156,890.9941 Z " fill="#000000"/><ellipse cx="971.75" cy="894.6191" fill="#84BE84" rx="3" ry="3" style="stroke:#038048;stroke-width:1.0;"/><text fill="#000000" font-family="sans-serif" font-size="14" lengthAdjust="spacing" textLength="129" x="1016.25" y="891.6055">&#171;RuntimeException&#187;</text><text fill="#000000" font-family="sans-serif" font-size="14" font-weight="bold" lengthAdjust="spacing" textLength="30" x="977.75" y="910.2266">final</text><text fill="#000000" font-family="sans-serif" font-size="14" lengthAdjust="spacing" textLength="172" x="1011.75" y="910.2266">CertificateSigningException</text><line style="stroke:#27AE60;stroke-width:2.0;" x1="847" x2="1271" y1="918.7402" y2="918.7402"/><line style="stroke:#27AE60;stroke-width:2.0;" x1="847" x2="1271" y1="926.7402" y2="926.7402"/><ellipse cx="857" cy="941.5508" fill="#84BE84" rx="3" ry="3" style="stroke:#038048;stroke-width:1.0;"/><text fill="#000000" font-family="sans-serif" font-size="14" lengthAdjust="spacing" textLength="284" x="866" y="945.8477">CertificateSigningException (String message)</text><ellipse cx="857" cy="960.1719" fill="#84BE84" rx="3" ry="3" style="stroke:#038048;stroke-width:1.0;"/><text fill="#000000" font-family="sans-serif" font-size="14" lengthAdjust="spacing" textLength="400" x="866" y="964.4688">CertificateSigningException (String message, Throwable cause)</text></g><!--class CertificateConsistencyException--><g id="elem_CertificateConsistencyException"><rect codeLine="107" fill="#E9F7EF" height="100.4844" id="CertificateConsistencyException" rx="2.5" ry="2.5" style="stroke:#27AE60;stroke-width:2.0;" width="456" x="308" y="871.498"/><ellipse cx="408.25" cy="895.1191" fill="#ADD1B2" rx="11" ry="11" style="stroke:#181818;stroke-width:1.0;"/><path d="M411.0156,890.9941 Q411.1719,890.7754 411.3594,890.666 Q411.5469,890.5566 411.7656,890.5566 Q412.1406,890.5566 412.375,890.8223 Q412.6094,891.0723 412.6094,891.6816 L412.6094,893.1348 Q412.6094,893.7441 412.375,894.0098 Q412.1406,894.2754 411.7656,894.2754 Q411.4219,894.2754 411.2188,894.0723 Q411.0156,893.8848 410.9063,893.3691 Q410.8594,893.0098 410.6719,892.8223 Q410.3438,892.4473 409.7344,892.2285 Q409.125,892.0098 408.5,892.0098 Q407.7344,892.0098 407.0938,892.3379 Q406.4688,892.666 405.9688,893.416 Q405.4844,894.166 405.4844,895.1973 L405.4844,896.291 Q405.4844,897.5254 406.375,898.3535 Q407.2656,899.166 408.8594,899.166 Q409.7969,899.166 410.4531,898.916 Q410.8438,898.7598 411.2656,898.3223 Q411.5313,898.0566 411.6719,897.9785 Q411.8281,897.9004 412.0313,897.9004 Q412.3594,897.9004 412.6094,898.166 Q412.875,898.416 412.875,898.7598 Q412.875,899.1035 412.5313,899.5098 Q412.0313,900.0879 411.2344,900.416 Q410.1563,900.8691 408.8594,900.8691 Q407.3438,900.8691 406.1406,900.2441 Q405.1563,899.7441 404.4688,898.6816 Q403.7813,897.6035 403.7813,896.3223 L403.7813,895.166 Q403.7813,893.8379 404.3906,892.6973 Q405.0156,891.541 406.1094,890.9316 Q407.2031,890.3066 408.4375,890.3066 Q409.1719,890.3066 409.8125,890.4785 Q410.4688,890.6348 411.0156,890.9941 Z " fill="#000000"/><ellipse cx="433.75" cy="894.6191" fill="#84BE84" rx="3" ry="3" style="stroke:#038048;stroke-width:1.0;"/><text fill="#000000" font-family="sans-serif" font-size="14" lengthAdjust="spacing" textLength="129" x="493.25" y="891.6055">&#171;RuntimeException&#187;</text><text fill="#000000" font-family="sans-serif" font-size="14" font-weight="bold" lengthAdjust="spacing" textLength="30" x="439.75" y="910.2266">final</text><text fill="#000000" font-family="sans-serif" font-size="14" lengthAdjust="spacing" textLength="202" x="473.75" y="910.2266">CertificateConsistencyException</text><line style="stroke:#27AE60;stroke-width:2.0;" x1="309" x2="763" y1="918.7402" y2="918.7402"/><line style="stroke:#27AE60;stroke-width:2.0;" x1="309" x2="763" y1="926.7402" y2="926.7402"/><ellipse cx="319" cy="941.5508" fill="#84BE84" rx="3" ry="3" style="stroke:#038048;stroke-width:1.0;"/><text fill="#000000" font-family="sans-serif" font-size="14" lengthAdjust="spacing" textLength="314" x="328" y="945.8477">CertificateConsistencyException (String message)</text><ellipse cx="319" cy="960.1719" fill="#84BE84" rx="3" ry="3" style="stroke:#038048;stroke-width:1.0;"/><text fill="#000000" font-family="sans-serif" font-size="14" lengthAdjust="spacing" textLength="430" x="328" y="964.4688">CertificateConsistencyException (String message, Throwable cause)</text></g><!--class CalypsoCertificateSigner--><g id="elem_CalypsoCertificateSigner"><rect codeLine="78" fill="#FDEDEC" height="66.6211" id="CalypsoCertificateSigner" rx="2.5" ry="2.5" style="stroke:#E74C3C;stroke-width:2.0;" width="463" x="979.5" y="420.998"/><ellipse cx="1123.25" cy="436.998" fill="#B4A7E5" rx="11" ry="11" style="stroke:#181818;stroke-width:1.0;"/><path d="M1124.2031,433.6387 L1124.2031,440.2949 L1125.9219,440.2949 Q1126.5313,440.2949 1126.7969,440.5293 Q1127.0625,440.7637 1127.0625,441.1543 Q1127.0625,441.5293 1126.7969,441.7637 Q1126.5313,441.998 1125.9219,441.998 L1120.7813,441.998 Q1120.1719,441.998 1119.9063,441.7637 Q1119.6406,441.5293 1119.6406,441.1387 Q1119.6406,440.7637 1119.9063,440.5293 Q1120.1719,440.2949 1120.7813,440.2949 L1122.5,440.2949 L1122.5,433.6387 L1120.7813,433.6387 Q1120.1719,433.6387 1119.9063,433.4043 Q1119.6406,433.1699 1119.6406,432.7793 Q1119.6406,432.4043 1119.9063,432.1699 Q1120.1719,431.9355 1120.7813,431.9355 L1125.9219,431.9355 Q1126.5313,431.9355 1126.7969,432.1699 Q1127.0625,432.4043 1127.0625,432.7793 Q1127.0625,433.1699 1126.7969,433.4043 Q1126.5313,433.6387 1125.9219,433.6387 L1124.2031,433.6387 Z " fill="#000000"/><ellipse cx="1148.75" cy="436.498" fill="#84BE84" rx="3" ry="3" style="stroke:#038048;stroke-width:1.0;"/><text fill="#000000" font-family="sans-serif" font-size="14" font-style="italic" lengthAdjust="spacing" textLength="156" x="1154.75" y="442.7949">CalypsoCertificateSigner</text><line style="stroke:#E74C3C;stroke-width:2.0;" x1="980.5" x2="1441.5" y1="452.998" y2="452.998"/><line style="stroke:#E74C3C;stroke-width:2.0;" x1="980.5" x2="1441.5" y1="460.998" y2="460.998"/><ellipse cx="990.5" cy="475.8086" fill="#84BE84" rx="3" ry="3" style="stroke:#038048;stroke-width:1.0;"/><text fill="#000000" font-family="sans-serif" font-size="14" lengthAdjust="spacing" textLength="437" x="999.5" y="480.1055">byte[] generateSignedCertificate (byte[] data, byte[] recoverableData)</text></g><!--link CalypsoCertificateApiFactory to CalypsoCertificateStore--><g id="link_CalypsoCertificateApiFactory_CalypsoCertificateStore"><path codeLine="115" d="M541.053,314.715 C508.215,340.168 476.1252,365.0403 444.4432,389.5973 " fill="none" id="CalypsoCertificateApiFactory-to-CalypsoCertificateStore" style="stroke:#3498DB;stroke-width:2.0;stroke-dasharray:7.0,7.0;"/><polygon fill="#3498DB" points="439.701,393.273,449.2649,390.9209,443.6529,390.2099,444.3639,384.5979,439.701,393.273" style="stroke:#3498DB;stroke-width:2.0;"/><polygon fill="#000000" points="497.0481,357.2067,505.9976,353.9883,502.3967,349.3426,497.0481,357.2067" style="stroke:#000000;stroke-width:1.0;"/><text fill="#000000" font-family="sans-serif" font-size="13" lengthAdjust="spacing" textLength="40" x="510" y="359.5264">provide</text></g><!--link CalypsoCertificateApiFactory to CalypsoCaCertificateV1Generator--><g id="link_CalypsoCertificateApiFactory_CalypsoCaCertificateV1Generator"><path codeLine="116" d="M689.5,314.765 C701.999,333.521 713.412,354.579 720,375.998 C738.226,435.258 745.021,458.771 720,515.498 C708.566,541.421 695.0798,560.7369 675.1758,581.5889 " fill="none" id="CalypsoCertificateApiFactory-to-CalypsoCaCertificateV1Generator" style="stroke:#3498DB;stroke-width:2.0;stroke-dasharray:7.0,7.0;"/><polygon fill="#3498DB" points="671.033,585.929,680.1407,582.1807,674.4854,582.3123,674.3538,576.6569,671.033,585.929" style="stroke:#3498DB;stroke-width:2.0;"/><polygon fill="#000000" points="740.732,459.6364,744.1515,450.7618,738.2821,450.4467,740.732,459.6364" style="stroke:#000000;stroke-width:1.0;"/><text fill="#000000" font-family="sans-serif" font-size="13" lengthAdjust="spacing" textLength="36" x="750" y="460.0264">create</text></g><!--link CalypsoCertificateApiFactory to CalypsoCardCertificateV1Generator--><g id="link_CalypsoCertificateApiFactory_CalypsoCardCertificateV1Generator"><path codeLine="117" d="M724.812,314.667 C748.511,333.669 773.359,354.868 795,375.998 C852.899,432.529 850.134,463.338 912,515.498 C937.668,537.139 961.4343,554.3629 990.6563,573.0639 " fill="none" id="CalypsoCertificateApiFactory-to-CalypsoCardCertificateV1Generator" style="stroke:#3498DB;stroke-width:2.0;stroke-dasharray:7.0,7.0;"/><polygon fill="#3498DB" points="995.71,576.298,990.2856,568.0776,991.4986,573.6029,985.9733,574.8159,995.71,576.298" style="stroke:#3498DB;stroke-width:2.0;"/><polygon fill="#000000" points="920.5854,458.1285,916.1478,449.7167,912.0509,453.9316,920.5854,458.1285" style="stroke:#000000;stroke-width:1.0;"/><text fill="#000000" font-family="sans-serif" font-size="13" lengthAdjust="spacing" textLength="36" x="926" y="460.0264">create</text></g><!--link CalypsoCertificateApiFactory to CalypsoCertificateSigner--><g id="link_CalypsoCertificateApiFactory_CalypsoCertificateSigner"><path codeLine="118" d="M824.535,314.57 C924.351,350.453 1035.7237,390.4914 1114.6337,418.8564 " fill="none" id="CalypsoCertificateApiFactory-to-CalypsoCertificateSigner" style="stroke:#27AE60;stroke-width:2.0;stroke-dasharray:7.0,7.0;"/><polygon fill="#27AE60" points="1120.28,420.886,1113.1636,414.0774,1115.5748,419.1947,1110.4575,421.6058,1120.28,420.886" style="stroke:#27AE60;stroke-width:2.0;"/><polygon fill="#000000" points="964.7052,355.835,957.1876,350.0095,955.1992,355.5408,964.7052,355.835" style="stroke:#000000;stroke-width:1.0;"/><text fill="#000000" font-family="sans-serif" font-size="13" lengthAdjust="spacing" textLength="21" x="969" y="359.5264">use</text></g><!--link CalypsoCaCertificateV1Generator to CertificateSigningException--><g id="link_CalypsoCaCertificateV1Generator_CertificateSigningException"><path codeLine="120" d="M740.521,783.04 C782.841,802.736 827.248,823.049 869,841.498 C891.465,851.425 910.0339,859.3966 933.2729,869.1426 " fill="none" id="CalypsoCaCertificateV1Generator-to-CertificateSigningException" style="stroke:#2C3E50;stroke-width:2.0;stroke-dasharray:7.0,7.0;"/><polygon fill="#2C3E50" points="938.806,871.463,932.0533,864.2936,934.1951,869.5293,928.9593,871.6711,938.806,871.463" style="stroke:#2C3E50;stroke-width:2.0;"/><polygon fill="#000000" points="878.5652,834.1828,871.5053,827.8104,869.108,833.1771,878.5652,834.1828" style="stroke:#000000;stroke-width:1.0;"/><text fill="#000000" font-family="sans-serif" font-size="13" lengthAdjust="spacing" textLength="31" x="883" y="837.5264">throw</text></g><!--link CalypsoCaCertificateV1Generator to CertificateConsistencyException--><g id="link_CalypsoCaCertificateV1Generator_CertificateConsistencyException"><path codeLine="121" d="M536,783.118 C536,813.509 536,839.728 536,865.32 " fill="none" id="CalypsoCaCertificateV1Generator-to-CertificateConsistencyException" style="stroke:#2C3E50;stroke-width:2.0;stroke-dasharray:7.0,7.0;"/><polygon fill="#2C3E50" points="536,871.32,540,862.32,536,866.32,532,862.32,536,871.32" style="stroke:#2C3E50;stroke-width:2.0;"/><polygon fill="#000000" points="541,837.1436,543.9389,828.0985,538.0611,828.0985,541,837.1436" style="stroke:#000000;stroke-width:1.0;"/><text fill="#000000" font-family="sans-serif" font-size="13" lengthAdjust="spacing" textLength="31" x="550" y="837.5264">throw</text></g><!--link CalypsoCardCertificateV1Generator to CertificateSigningException--><g id="link_CalypsoCardCertificateV1Generator_CertificateSigningException"><path codeLine="123" d="M1135.69,792.683 C1119.2,820.162 1105.3465,843.2538 1091.5965,866.1748 " fill="none" id="CalypsoCardCertificateV1Generator-to-CertificateSigningException" style="stroke:#2C3E50;stroke-width:2.0;stroke-dasharray:7.0,7.0;"/><polygon fill="#2C3E50" points="1088.51,871.32,1096.57,865.6599,1091.0821,867.0324,1089.7097,861.5445,1088.51,871.32" style="stroke:#2C3E50;stroke-width:2.0;"/><polygon fill="#000000" points="1118.4276,836.4311,1125.6013,830.1869,1120.561,827.1629,1118.4276,836.4311" style="stroke:#000000;stroke-width:1.0;"/><text fill="#000000" font-family="sans-serif" font-size="13" lengthAdjust="spacing" textLength="31" x="1130" y="837.5264">throw</text></g><!--link CalypsoCardCertificateV1Generator to CertificateConsistencyException--><g id="link_CalypsoCardCertificateV1Generator_CertificateConsistencyException"><path codeLine="124" d="M1026.26,792.581 C991.61,810.862 954.837,828.209 919,841.498 C869.984,859.674 821.6687,872.7912 769.8657,884.0272 " fill="none" id="CalypsoCardCertificateV1Generator-to-CertificateConsistencyException" style="stroke:#2C3E50;stroke-width:2.0;stroke-dasharray:7.0,7.0;"/><polygon fill="#2C3E50" points="764.002,885.299,773.6454,887.3004,768.8884,884.2392,771.9496,879.4822,764.002,885.299" style="stroke:#2C3E50;stroke-width:2.0;"/><polygon fill="#000000" points="959.2906,833.8232,968.7973,833.5528,966.8227,828.0165,959.2906,833.8232" style="stroke:#000000;stroke-width:1.0;"/><text fill="#000000" font-family="sans-serif" font-size="13" lengthAdjust="spacing" textLength="31" x="973" y="837.5264">throw</text></g><!--link CalypsoCertificateStore to CertificateConsistencyException--><g id="link_CalypsoCertificateStore_CertificateConsistencyException"><path codeLine="126" d="M173.547,515.545 C148.325,531.454 125.765,551.44 110,576.498 C58.8782,657.754 52.7113,715.466 110,792.498 C135.807,827.199 214.7459,854.603 301.9409,876.066 " fill="none" id="CalypsoCertificateStore-to-CertificateConsistencyException" style="stroke:#2C3E50;stroke-width:2.0;stroke-dasharray:7.0,7.0;"/><polygon fill="#2C3E50" points="307.767,877.5,299.9839,871.4648,302.9119,876.305,298.0718,879.233,307.767,877.5" style="stroke:#2C3E50;stroke-width:2.0;"/><polygon fill="#000000" points="116.6775,689.3538,116.4115,679.8469,110.8743,681.8189,116.6775,689.3538" style="stroke:#000000;stroke-width:1.0;"/><text fill="#000000" font-family="sans-serif" font-size="13" lengthAdjust="spacing" textLength="31" x="124" y="690.0264">throw</text></g><!--SRC=[hLXjSzeu4FxEhzXhFboI5f8GKXecPSROSfjfcsI0zYRJwsGKMu0kHl98SbEca_z-yWks8Nu1KZwPrUxph5QhrKgAAeyqGF_6HCmfmnwOs5luaeD9XA8Jwc15mBYvXEFMIUirxBUFsvtcSRlPVdlG8Cm55I4q_eRtxs7y4Nr1-aF_DNdWaK18e586H89Be0SpfNpPEpgQgRddS8yBXxj4jXm-Fvg88uNlFOA3fakQJcnT8DAVaavPq_UmEchyvP89PGJCkmz3T7i2zZlxt3vV4xV1RjkdTcTDV0he37NHkdO7hAuriAmryHcOXcbRxJNnMnXOvgdPpOa_NrvzWjFE-Jjha9D-7I5eTmtqzZWd77ySNly3RVCKdHs78MmsOQGMdWwNcc45BcT_AtZauW4UgPe18u_mamX9EGC-0Hq2feAvfyqQye4o7miy1wc885mjV68Ck729CCD0mvvnRfcMNQXukQ8uw1XTT5QeQAuYMjR9e5seY5OKqU3yL5D7yqDNLkXlpihqi9In_dX6dGT6f8Gyh244VymFQQHRuddyyHaATXwcWWVCJPXjP2CJ5PCbAbR7C8yj3JaaRWtUnOKWRh-lOIra8RC2DjL4tOvEZyQCwlnV2hCmQTQRGFXw_zGH-v5QnDr1fjsjvCwKtw5Enx2MzAbynODxBwZd3vMY-GpiCtjGoRvKJRP0mfr8LvW_249OBVKqr8gup-qkiYkvKzragoNaI_4w-s8JyaN4RUWyGdNSaMgodJFgnIfpN2hDwwinkXf7nT8ZqwYISZ-gn7Tt4QA4M7vt1xr8VgX7q2yD55Rfi28BCj6ep24oqpc4YtizYTuYsY3z__1Ft9B42GHLYukZSAWVbUqOkz7mjGHF2RnouhBVShAo_mgm1EnJ-1rXltR2ESEhmyD9U51egkIeo9qKXazl1FT30P6H_OeajnOnPeJxMogigFC46V982Sgcy0qDHvVNLv7gK-m4PJe24-oGOdOREugBHPPnEPxd1YEjIs1ALDdG_a7ZkJtEgNqx-K0O4LXhWoE8bjHfxTyl5Fd-8puOnKrmxr7d4raCbulvfc1Y8tta4Ks0dyaA_HFkPXwMwht8nnNKfPSRhc0SzMqM3xlkZODJ5rFN_Pmmv_VAxXYEZ5GdsHmhTWT_dBvWz0jt0o-GHGjPG5QKNIdfIdxaOvxkSkdJQ5VAT5VNBqcyhilJAxEAB1FcQPmwiR9Rv9kB5KxdBuZ3TISJTdUMbcTnVgfEbB8zLPKmPJPXIsKMhDoEULETDbLEZ1GMoefYfMSC2uB56mY_vfofMVpfucrH4NF_EEOO2rqh3UgcmSBKrOlAkUxIcQuMOn6mqD0zs7OTXdGwKpB6rR6C_swDCdBqIPE2HF_o-sejMSFgNfrkfGMoCk5AhM8dXLkKT3dfmRQOByYWIjoTSwWs0civj1F6Y0YAlQjWVa-o4qlcXBkXXh4C_4isuHbe9jiQyvAvv5SSGHf-RfwFIRjrSJ4CcA9pWduvn5VwyjVl_yjoJTXggTPjKweObVgAyU9shCfWFsdCvlecfW-KWvsiti1ufgzqOVNNYHz8yi9fcvn9gZjivYnAfrwaKplzGgEDGh29PMaOdi8xWY4bToWE3MMZKTdhjbhzqbPgBtcGw84l-C_mJjAl0ykXbLNR33NkABS3BTqlsyFsonkMlVZHfGSwiXgeKJUd2AmYYVUMxpKzKE6wvPpR4B8mAGfW6_MHUecpcu9kxUvwxhLs1Onko9-Ds-klu-GriJ3GqFokRzakOJ-QTJGQeiQF54k4hKUpAhgPFuLPcVUgEa5s02fRl2Hee_7jv_W5TjdoX_VtlUNxwE-dlBmbix5sEFO_]--></g></svg>