<?xml version="1.0" encoding="us-ascii" standalone="no"?><svg xmlns="http://www.w3.org/2000/svg" xmlns:xlink="http://www.w3.org/1999/xlink" contentStyleType="text/css" height="1065px" preserveAspectRatio="none" style="width:1699px;height:1065px;background:#FFFFFF;" version="1.1" viewBox="0 0 1699 1065" width="1699px" zoomAndPan="magnify"><defs><filter height="1" id="bosiifhedg2l20" width="1" x="0" y="0"><feFlood flood-color="#FFC0CB" result="flood"/><feComposite in="SourceGraphic" in2="flood" operator="over"/></filter><filter height="1" id="bosiifhedg2l21" width="1" x="0" y="0"><feFlood flood-color="#FFFF00" result="flood"/><feComposite in="SourceGraphic" in2="flood" operator="over"/></filter></defs><g><text fill="#000000" font-family="sans-serif" font-size="14" font-weight="bold" lengthAdjust="spacing" textLength="346" x="669.5" y="25.1074">Terminal Calypso Certificate API 0.1.+ (2024-02-16)</text><rect fill="#DDDDDD" height="84.4844" id="_legend" rx="7.5" ry="7.5" style="stroke:#000000;stroke-width:1.0;" width="201" x="742" y="51.6211"/><text fill="#000000" font-family="sans-serif" font-size="14" lengthAdjust="spacing" text-decoration="underline" textLength="88" x="747" y="71.7285">Colors legend</text><text fill="#000000" font-family="sans-serif" font-size="14" lengthAdjust="spacing" textLength="4" x="839" y="71.7285">:</text><ellipse cx="752.5" cy="86.3633" fill="#000000" rx="2.5" ry="2.5" style="stroke:#000000;stroke-width:0.0;"/><text fill="#000000" font-family="sans-serif" font-size="14" lengthAdjust="spacing" text-decoration="underline" textLength="148" x="759" y="90.3496">External API references</text><text fill="#000000" font-family="sans-serif" font-size="14" lengthAdjust="spacing" textLength="4" x="911" y="90.3496">:</text><rect fill="#000000" height="3.5" style="stroke:#000000;stroke-width:0.0;" width="3.5" x="756" y="102.4844"/><text fill="#000000" filter="url(#bosiifhedg2l20)" font-family="sans-serif" font-size="14" font-weight="bold" lengthAdjust="spacing" textLength="175" x="763" y="108.9707">Keypop Calypso Card API</text><rect fill="#000000" height="3.5" style="stroke:#000000;stroke-width:0.0;" width="3.5" x="756" y="121.1055"/><text fill="#000000" filter="url(#bosiifhedg2l21)" font-family="sans-serif" font-size="14" lengthAdjust="spacing" textLength="79" x="763" y="127.5918">java.security</text><!--cluster api--><g id="cluster_api"><path d="M8.5,155.1191 L137.5,155.1191 A3.75,3.75 0 0 1 140,157.6191 L147,179.7402 L1689.5,179.7402 A2.5,2.5 0 0 1 1692,182.2402 L1692,1055.6191 A2.5,2.5 0 0 1 1689.5,1058.1191 L8.5,1058.1191 A2.5,2.5 0 0 1 6,1055.6191 L6,157.6191 A2.5,2.5 0 0 1 8.5,155.1191 " fill="#F8F9F9" style="stroke:#000000;stroke-width:1.5;"/><line style="stroke:#000000;stroke-width:1.5;" x1="6" x2="147" y1="179.7402" y2="179.7402"/><text fill="#000000" font-family="sans-serif" font-size="14" font-weight="bold" lengthAdjust="spacing" textLength="128" x="10" y="172.2266">calypso.certificate</text></g><!--cluster ca--><g id="cluster_ca"><path d="M32.5,342.1191 L49.5,342.1191 A3.75,3.75 0 0 1 52,344.6191 L59,366.7402 L827.5,366.7402 A2.5,2.5 0 0 1 830,369.2402 L830,874.6191 A2.5,2.5 0 0 1 827.5,877.1191 L32.5,877.1191 A2.5,2.5 0 0 1 30,874.6191 L30,344.6191 A2.5,2.5 0 0 1 32.5,342.1191 " fill="#F2F3F4" style="stroke:#000000;stroke-width:1.5;"/><line style="stroke:#000000;stroke-width:1.5;" x1="30" x2="59" y1="366.7402" y2="366.7402"/><text fill="#000000" font-family="sans-serif" font-size="14" font-weight="bold" lengthAdjust="spacing" textLength="16" x="34" y="359.2266">ca</text></g><!--cluster caSpi--><g id="cluster_caSpi"><path d="M312.5,715.1191 L334.5,715.1191 A3.75,3.75 0 0 1 337,717.6191 L344,739.7402 L803.5,739.7402 A2.5,2.5 0 0 1 806,742.2402 L806,850.6191 A2.5,2.5 0 0 1 803.5,853.1191 L312.5,853.1191 A2.5,2.5 0 0 1 310,850.6191 L310,717.6191 A2.5,2.5 0 0 1 312.5,715.1191 " fill="#E5E7E9" style="stroke:#000000;stroke-width:1.5;"/><line style="stroke:#000000;stroke-width:1.5;" x1="310" x2="344" y1="739.7402" y2="739.7402"/><text fill="#000000" font-family="sans-serif" font-size="14" font-weight="bold" lengthAdjust="spacing" textLength="21" x="314" y="732.2266">spi</text></g><!--cluster card--><g id="cluster_card"><path d="M856.5,342.1191 L888.5,342.1191 A3.75,3.75 0 0 1 891,344.6191 L898,366.7402 L1665.5,366.7402 A2.5,2.5 0 0 1 1668,369.2402 L1668,874.6191 A2.5,2.5 0 0 1 1665.5,877.1191 L856.5,877.1191 A2.5,2.5 0 0 1 854,874.6191 L854,344.6191 A2.5,2.5 0 0 1 856.5,342.1191 " fill="#F2F3F4" style="stroke:#000000;stroke-width:1.5;"/><line style="stroke:#000000;stroke-width:1.5;" x1="854" x2="898" y1="366.7402" y2="366.7402"/><text fill="#000000" font-family="sans-serif" font-size="14" font-weight="bold" lengthAdjust="spacing" textLength="31" x="858" y="359.2266">card</text></g><!--cluster cardSpi--><g id="cluster_cardSpi"><path d="M1097.5,715.1191 L1119.5,715.1191 A3.75,3.75 0 0 1 1122,717.6191 L1129,739.7402 L1588.5,739.7402 A2.5,2.5 0 0 1 1591,742.2402 L1591,850.6191 A2.5,2.5 0 0 1 1588.5,853.1191 L1097.5,853.1191 A2.5,2.5 0 0 1 1095,850.6191 L1095,717.6191 A2.5,2.5 0 0 1 1097.5,715.1191 " fill="#E5E7E9" style="stroke:#000000;stroke-width:1.5;"/><line style="stroke:#000000;stroke-width:1.5;" x1="1095" x2="1129" y1="739.7402" y2="739.7402"/><text fill="#000000" font-family="sans-serif" font-size="14" font-weight="bold" lengthAdjust="spacing" textLength="21" x="1099" y="732.2266">spi</text></g><!--class ApiProperties--><g id="elem_ApiProperties"><rect codeLine="62" fill="#E9F7EF" height="66.6211" id="ApiProperties" rx="2.5" ry="2.5" style="stroke:#27AE60;stroke-width:2.0;" width="277" x="1264.5" y="201.1191"/><ellipse cx="1279.5" cy="217.1191" fill="#ADD1B2" rx="11" ry="11" style="stroke:#181818;stroke-width:1.0;"/><path d="M1282.2656,212.9941 Q1282.4219,212.7754 1282.6094,212.666 Q1282.7969,212.5566 1283.0156,212.5566 Q1283.3906,212.5566 1283.625,212.8223 Q1283.8594,213.0723 1283.8594,213.6816 L1283.8594,215.1348 Q1283.8594,215.7441 1283.625,216.0098 Q1283.3906,216.2754 1283.0156,216.2754 Q1282.6719,216.2754 1282.4688,216.0723 Q1282.2656,215.8848 1282.1563,215.3691 Q1282.1094,215.0098 1281.9219,214.8223 Q1281.5938,214.4473 1280.9844,214.2285 Q1280.375,214.0098 1279.75,214.0098 Q1278.9844,214.0098 1278.3438,214.3379 Q1277.7188,214.666 1277.2188,215.416 Q1276.7344,216.166 1276.7344,217.1973 L1276.7344,218.291 Q1276.7344,219.5254 1277.625,220.3535 Q1278.5156,221.166 1280.1094,221.166 Q1281.0469,221.166 1281.7031,220.916 Q1282.0938,220.7598 1282.5156,220.3223 Q1282.7813,220.0566 1282.9219,219.9785 Q1283.0781,219.9004 1283.2813,219.9004 Q1283.6094,219.9004 1283.8594,220.166 Q1284.125,220.416 1284.125,220.7598 Q1284.125,221.1035 1283.7813,221.5098 Q1283.2813,222.0879 1282.4844,222.416 Q1281.4063,222.8691 1280.1094,222.8691 Q1278.5938,222.8691 1277.3906,222.2441 Q1276.4063,221.7441 1275.7188,220.6816 Q1275.0313,219.6035 1275.0313,218.3223 L1275.0313,217.166 Q1275.0313,215.8379 1275.6406,214.6973 Q1276.2656,213.541 1277.3594,212.9316 Q1278.4531,212.3066 1279.6875,212.3066 Q1280.4219,212.3066 1281.0625,212.4785 Q1281.7188,212.6348 1282.2656,212.9941 Z " fill="#000000"/><ellipse cx="1298.5" cy="216.6191" fill="#84BE84" rx="3" ry="3" style="stroke:#038048;stroke-width:1.0;"/><text fill="#000000" font-family="sans-serif" font-size="14" font-weight="bold" lengthAdjust="spacing" textLength="30" x="1304.5" y="222.916">final</text><text fill="#000000" font-family="sans-serif" font-size="14" lengthAdjust="spacing" textLength="200" x="1338.5" y="222.916">CalypsoCertificateApiProperties</text><line style="stroke:#27AE60;stroke-width:2.0;" x1="1265.5" x2="1540.5" y1="233.1191" y2="233.1191"/><ellipse cx="1275.5" cy="247.9297" fill="none" rx="3" ry="3" style="stroke:#038048;stroke-width:1.0;"/><text fill="#000000" font-family="sans-serif" font-size="14" font-weight="bold" lengthAdjust="spacing" text-decoration="underline" textLength="30" x="1284.5" y="252.2266">final</text><text fill="#000000" font-family="sans-serif" font-size="14" lengthAdjust="spacing" text-decoration="underline" textLength="101" x="1318.5" y="252.2266">String VERSION</text><line style="stroke:#27AE60;stroke-width:2.0;" x1="1265.5" x2="1540.5" y1="259.7402" y2="259.7402"/></g><!--class CalypsoCertificateApiFactory--><g id="elem_CalypsoCertificateApiFactory"><rect codeLine="65" fill="#EBF5FB" height="85.2422" id="CalypsoCertificateApiFactory" rx="2.5" ry="2.5" style="stroke:#3498DB;stroke-width:2.0;" width="502" x="434" y="192.1191"/><ellipse cx="583.75" cy="208.1191" fill="#B4A7E5" rx="11" ry="11" style="stroke:#181818;stroke-width:1.0;"/><path d="M584.7031,204.7598 L584.7031,211.416 L586.4219,211.416 Q587.0313,211.416 587.2969,211.6504 Q587.5625,211.8848 587.5625,212.2754 Q587.5625,212.6504 587.2969,212.8848 Q587.0313,213.1191 586.4219,213.1191 L581.2813,213.1191 Q580.6719,213.1191 580.4063,212.8848 Q580.1406,212.6504 580.1406,212.2598 Q580.1406,211.8848 580.4063,211.6504 Q580.6719,211.416 581.2813,211.416 L583,211.416 L583,204.7598 L581.2813,204.7598 Q580.6719,204.7598 580.4063,204.5254 Q580.1406,204.291 580.1406,203.9004 Q580.1406,203.5254 580.4063,203.291 Q580.6719,203.0566 581.2813,203.0566 L586.4219,203.0566 Q587.0313,203.0566 587.2969,203.291 Q587.5625,203.5254 587.5625,203.9004 Q587.5625,204.291 587.2969,204.5254 Q587.0313,204.7598 586.4219,204.7598 L584.7031,204.7598 Z " fill="#000000"/><ellipse cx="609.25" cy="207.6191" fill="#84BE84" rx="3" ry="3" style="stroke:#038048;stroke-width:1.0;"/><text fill="#000000" font-family="sans-serif" font-size="14" font-style="italic" lengthAdjust="spacing" textLength="183" x="615.25" y="213.916">CalypsoCertificateApiFactory</text><line style="stroke:#3498DB;stroke-width:2.0;" x1="435" x2="935" y1="224.1191" y2="224.1191"/><line style="stroke:#3498DB;stroke-width:2.0;" x1="435" x2="935" y1="232.1191" y2="232.1191"/><ellipse cx="445" cy="246.9297" fill="#84BE84" rx="3" ry="3" style="stroke:#038048;stroke-width:1.0;"/><text fill="#000000" font-family="sans-serif" font-size="14" lengthAdjust="spacing" textLength="446" x="454" y="251.2266">CalypsoCaCertificateV1Builder createCalypsoCaCertificateV1Builder ()</text><ellipse cx="445" cy="265.5508" fill="#84BE84" rx="3" ry="3" style="stroke:#038048;stroke-width:1.0;"/><text fill="#000000" font-family="sans-serif" font-size="14" lengthAdjust="spacing" textLength="476" x="454" y="269.8477">CalypsoCardCertificateV1Builder  createCalypsoCardCertificateV1Builder ()</text></g><!--class CertificateSigningException--><g id="elem_CertificateSigningException"><rect codeLine="119" fill="#E9F7EF" height="100.4844" id="CertificateSigningException" rx="2.5" ry="2.5" style="stroke:#27AE60;stroke-width:2.0;" width="426" x="737" y="942.1191"/><ellipse cx="837.25" cy="965.7402" fill="#ADD1B2" rx="11" ry="11" style="stroke:#181818;stroke-width:1.0;"/><path d="M840.0156,961.6152 Q840.1719,961.3965 840.3594,961.2871 Q840.5469,961.1777 840.7656,961.1777 Q841.1406,961.1777 841.375,961.4434 Q841.6094,961.6934 841.6094,962.3027 L841.6094,963.7559 Q841.6094,964.3652 841.375,964.6309 Q841.1406,964.8965 840.7656,964.8965 Q840.4219,964.8965 840.2188,964.6934 Q840.0156,964.5059 839.9063,963.9902 Q839.8594,963.6309 839.6719,963.4434 Q839.3438,963.0684 838.7344,962.8496 Q838.125,962.6309 837.5,962.6309 Q836.7344,962.6309 836.0938,962.959 Q835.4688,963.2871 834.9688,964.0371 Q834.4844,964.7871 834.4844,965.8184 L834.4844,966.9121 Q834.4844,968.1465 835.375,968.9746 Q836.2656,969.7871 837.8594,969.7871 Q838.7969,969.7871 839.4531,969.5371 Q839.8438,969.3809 840.2656,968.9434 Q840.5313,968.6777 840.6719,968.5996 Q840.8281,968.5215 841.0313,968.5215 Q841.3594,968.5215 841.6094,968.7871 Q841.875,969.0371 841.875,969.3809 Q841.875,969.7246 841.5313,970.1309 Q841.0313,970.709 840.2344,971.0371 Q839.1563,971.4902 837.8594,971.4902 Q836.3438,971.4902 835.1406,970.8652 Q834.1563,970.3652 833.4688,969.3027 Q832.7813,968.2246 832.7813,966.9434 L832.7813,965.7871 Q832.7813,964.459 833.3906,963.3184 Q834.0156,962.1621 835.1094,961.5527 Q836.2031,960.9277 837.4375,960.9277 Q838.1719,960.9277 838.8125,961.0996 Q839.4688,961.2559 840.0156,961.6152 Z " fill="#000000"/><ellipse cx="862.75" cy="965.2402" fill="#84BE84" rx="3" ry="3" style="stroke:#038048;stroke-width:1.0;"/><text fill="#000000" font-family="sans-serif" font-size="14" lengthAdjust="spacing" textLength="77" x="933.25" y="962.2266">&#171;Exception&#187;</text><text fill="#000000" font-family="sans-serif" font-size="14" font-weight="bold" lengthAdjust="spacing" textLength="30" x="868.75" y="980.8477">final</text><text fill="#000000" font-family="sans-serif" font-size="14" lengthAdjust="spacing" textLength="172" x="902.75" y="980.8477">CertificateSigningException</text><line style="stroke:#27AE60;stroke-width:2.0;" x1="738" x2="1162" y1="989.3613" y2="989.3613"/><line style="stroke:#27AE60;stroke-width:2.0;" x1="738" x2="1162" y1="997.3613" y2="997.3613"/><ellipse cx="748" cy="1012.1719" fill="#84BE84" rx="3" ry="3" style="stroke:#038048;stroke-width:1.0;"/><text fill="#000000" font-family="sans-serif" font-size="14" lengthAdjust="spacing" textLength="284" x="757" y="1016.4688">CertificateSigningException (String message)</text><ellipse cx="748" cy="1030.793" fill="#84BE84" rx="3" ry="3" style="stroke:#038048;stroke-width:1.0;"/><text fill="#000000" font-family="sans-serif" font-size="14" lengthAdjust="spacing" textLength="400" x="757" y="1035.0898">CertificateSigningException (String message, Throwable cause)</text></g><!--class CalypsoCaCertificateV1Builder--><g id="elem_CalypsoCaCertificateV1Builder"><rect codeLine="70" fill="#EBF5FB" height="271.4531" id="CalypsoCaCertificateV1Builder" rx="2.5" ry="2.5" style="stroke:#3498DB;stroke-width:2.0;" width="768" x="46" y="379.1191"/><ellipse cx="323.25" cy="395.1191" fill="#B4A7E5" rx="11" ry="11" style="stroke:#181818;stroke-width:1.0;"/><path d="M324.2031,391.7598 L324.2031,398.416 L325.9219,398.416 Q326.5313,398.416 326.7969,398.6504 Q327.0625,398.8848 327.0625,399.2754 Q327.0625,399.6504 326.7969,399.8848 Q326.5313,400.1191 325.9219,400.1191 L320.7813,400.1191 Q320.1719,400.1191 319.9063,399.8848 Q319.6406,399.6504 319.6406,399.2598 Q319.6406,398.8848 319.9063,398.6504 Q320.1719,398.416 320.7813,398.416 L322.5,398.416 L322.5,391.7598 L320.7813,391.7598 Q320.1719,391.7598 319.9063,391.5254 Q319.6406,391.291 319.6406,390.9004 Q319.6406,390.5254 319.9063,390.291 Q320.1719,390.0566 320.7813,390.0566 L325.9219,390.0566 Q326.5313,390.0566 326.7969,390.291 Q327.0625,390.5254 327.0625,390.9004 Q327.0625,391.291 326.7969,391.5254 Q326.5313,391.7598 325.9219,391.7598 L324.2031,391.7598 Z " fill="#000000"/><ellipse cx="348.75" cy="394.6191" fill="#84BE84" rx="3" ry="3" style="stroke:#038048;stroke-width:1.0;"/><text fill="#000000" font-family="sans-serif" font-size="14" font-style="italic" lengthAdjust="spacing" textLength="194" x="354.75" y="400.916">CalypsoCaCertificateV1Builder</text><line style="stroke:#3498DB;stroke-width:2.0;" x1="47" x2="813" y1="411.1191" y2="411.1191"/><line style="stroke:#3498DB;stroke-width:2.0;" x1="47" x2="813" y1="419.1191" y2="419.1191"/><ellipse cx="57" cy="433.9297" fill="#84BE84" rx="3" ry="3" style="stroke:#038048;stroke-width:1.0;"/><text fill="#000000" font-family="sans-serif" font-size="14" lengthAdjust="spacing" textLength="645" x="66" y="438.2266">CalypsoCaCertificateV1Builder useExternalSigner (CalypsoCaCertificateSignerSpi caCertificateSigner)</text><ellipse cx="57" cy="452.5508" fill="#84BE84" rx="3" ry="3" style="stroke:#038048;stroke-width:1.0;"/><text fill="#000000" font-family="sans-serif" font-size="14" lengthAdjust="spacing" textLength="318" x="66" y="456.8477">CalypsoCaCertificateV1Builder useInternalSigner (</text><text fill="#000000" filter="url(#bosiifhedg2l21)" font-family="sans-serif" font-size="14" lengthAdjust="spacing" textLength="96" x="384" y="456.8477">RSAPrivateKey</text><text fill="#000000" font-family="sans-serif" font-size="14" lengthAdjust="spacing" textLength="324" x="484" y="456.8477">issuerPrivateKey, byte[] issuerPublicKeyReference)</text><text fill="#000000" font-family="sans-serif" font-size="14" lengthAdjust="spacing" textLength="4" x="66" y="475.4688">&#160;</text><ellipse cx="57" cy="489.793" fill="#84BE84" rx="3" ry="3" style="stroke:#038048;stroke-width:1.0;"/><text fill="#000000" font-family="sans-serif" font-size="14" lengthAdjust="spacing" textLength="306" x="66" y="494.0898">CalypsoCaCertificateV1Builder setCaPublicKey (</text><text fill="#000000" filter="url(#bosiifhedg2l21)" font-family="sans-serif" font-size="14" lengthAdjust="spacing" textLength="90" x="372" y="494.0898">RSAPublicKey</text><text fill="#000000" font-family="sans-serif" font-size="14" lengthAdjust="spacing" textLength="272" x="466" y="494.0898">caPublicKey, byte[] caPublicKeyReference)</text><ellipse cx="57" cy="508.4141" fill="#84BE84" rx="3" ry="3" style="stroke:#038048;stroke-width:1.0;"/><text fill="#000000" font-family="sans-serif" font-size="14" lengthAdjust="spacing" textLength="454" x="66" y="512.7109">CalypsoCaCertificateV1Builder setStartDate (int year, int month, int day)</text><ellipse cx="57" cy="527.0352" fill="#84BE84" rx="3" ry="3" style="stroke:#038048;stroke-width:1.0;"/><text fill="#000000" font-family="sans-serif" font-size="14" lengthAdjust="spacing" textLength="449" x="66" y="531.332">CalypsoCaCertificateV1Builder setEndDate (int year, int month, int day)</text><ellipse cx="57" cy="545.6563" fill="#84BE84" rx="3" ry="3" style="stroke:#038048;stroke-width:1.0;"/><text fill="#000000" font-family="sans-serif" font-size="14" lengthAdjust="spacing" textLength="309" x="66" y="549.9531">CalypsoCaCertificateV1Builder setAid (byte[] aid)</text><ellipse cx="57" cy="564.2773" fill="#84BE84" rx="3" ry="3" style="stroke:#038048;stroke-width:1.0;"/><text fill="#000000" font-family="sans-serif" font-size="14" lengthAdjust="spacing" textLength="375" x="66" y="568.5742">CalypsoCaCertificateV1Builder setCaRights (byte caRights)</text><ellipse cx="57" cy="582.8984" fill="#84BE84" rx="3" ry="3" style="stroke:#038048;stroke-width:1.0;"/><text fill="#000000" font-family="sans-serif" font-size="14" lengthAdjust="spacing" textLength="375" x="66" y="587.1953">CalypsoCaCertificateV1Builder setCaScope (byte caScope)</text><ellipse cx="57" cy="601.5195" fill="#84BE84" rx="3" ry="3" style="stroke:#038048;stroke-width:1.0;"/><text fill="#000000" font-family="sans-serif" font-size="14" lengthAdjust="spacing" textLength="491" x="66" y="605.8164">CalypsoCaCertificateV1Builder setCaOperatingMode (byte caOperatingMode)</text><text fill="#000000" font-family="sans-serif" font-size="14" lengthAdjust="spacing" textLength="4" x="66" y="624.4375">&#160;</text><ellipse cx="57" cy="638.7617" fill="#84BE84" rx="3" ry="3" style="stroke:#038048;stroke-width:1.0;"/><text fill="#000000" font-family="sans-serif" font-size="14" lengthAdjust="spacing" textLength="198" x="66" y="643.0586">CalypsoCaCertificateV1 build ()</text></g><!--class CalypsoCaCertificateV1--><g id="elem_CalypsoCaCertificateV1"><rect codeLine="84" fill="#FEFECE" height="81.8633" id="CalypsoCaCertificateV1" rx="2.5" ry="2.5" style="stroke:#D4AC0D;stroke-width:2.0;" width="193" x="98.5" y="753.6191"/><ellipse cx="113.5" cy="777.2402" fill="#B4A7E5" rx="11" ry="11" style="stroke:#181818;stroke-width:1.0;"/><path d="M114.4531,773.8809 L114.4531,780.5371 L116.1719,780.5371 Q116.7813,780.5371 117.0469,780.7715 Q117.3125,781.0059 117.3125,781.3965 Q117.3125,781.7715 117.0469,782.0059 Q116.7813,782.2402 116.1719,782.2402 L111.0313,782.2402 Q110.4219,782.2402 110.1563,782.0059 Q109.8906,781.7715 109.8906,781.3809 Q109.8906,781.0059 110.1563,780.7715 Q110.4219,780.5371 111.0313,780.5371 L112.75,780.5371 L112.75,773.8809 L111.0313,773.8809 Q110.4219,773.8809 110.1563,773.6465 Q109.8906,773.4121 109.8906,773.0215 Q109.8906,772.6465 110.1563,772.4121 Q110.4219,772.1777 111.0313,772.1777 L116.1719,772.1777 Q116.7813,772.1777 117.0469,772.4121 Q117.3125,772.6465 117.3125,773.0215 Q117.3125,773.4121 117.0469,773.6465 Q116.7813,773.8809 116.1719,773.8809 L114.4531,773.8809 Z " fill="#000000"/><ellipse cx="132.5" cy="776.7402" fill="#84BE84" rx="3" ry="3" style="stroke:#038048;stroke-width:1.0;"/><text fill="#000000" font-family="sans-serif" font-size="14" font-style="italic" lengthAdjust="spacing" textLength="16" x="156.5" y="773.7266">&lt;&lt;</text><text fill="#000000" filter="url(#bosiifhedg2l20)" font-family="sans-serif" font-size="14" font-style="italic" lengthAdjust="spacing" textLength="82" x="172.5" y="773.7266">CaCertificate</text><text fill="#000000" font-family="sans-serif" font-size="14" font-style="italic" lengthAdjust="spacing" textLength="16" x="254.5" y="773.7266">&gt;&gt;</text><text fill="#000000" font-family="sans-serif" font-size="14" font-style="italic" lengthAdjust="spacing" textLength="150" x="138.5" y="792.3477">CalypsoCaCertificateV1</text><line style="stroke:#D4AC0D;stroke-width:2.0;" x1="99.5" x2="290.5" y1="800.8613" y2="800.8613"/><line style="stroke:#D4AC0D;stroke-width:2.0;" x1="99.5" x2="290.5" y1="808.8613" y2="808.8613"/><ellipse cx="109.5" cy="823.6719" fill="#84BE84" rx="3" ry="3" style="stroke:#038048;stroke-width:1.0;"/><text fill="#000000" font-family="sans-serif" font-size="14" lengthAdjust="spacing" textLength="130" x="118.5" y="827.9688">byte[] getRawData ()</text></g><!--class CalypsoCaCertificateSignerSpi--><g id="elem_CalypsoCaCertificateSignerSpi"><rect codeLine="88" fill="#FDEDEC" height="85.2422" id="CalypsoCaCertificateSignerSpi" rx="2.5" ry="2.5" style="stroke:#E74C3C;stroke-width:2.0;" width="463" x="326.5" y="752.1191"/><ellipse cx="451.25" cy="768.1191" fill="#B4A7E5" rx="11" ry="11" style="stroke:#181818;stroke-width:1.0;"/><path d="M452.2031,764.7598 L452.2031,771.416 L453.9219,771.416 Q454.5313,771.416 454.7969,771.6504 Q455.0625,771.8848 455.0625,772.2754 Q455.0625,772.6504 454.7969,772.8848 Q454.5313,773.1191 453.9219,773.1191 L448.7813,773.1191 Q448.1719,773.1191 447.9063,772.8848 Q447.6406,772.6504 447.6406,772.2598 Q447.6406,771.8848 447.9063,771.6504 Q448.1719,771.416 448.7813,771.416 L450.5,771.416 L450.5,764.7598 L448.7813,764.7598 Q448.1719,764.7598 447.9063,764.5254 Q447.6406,764.291 447.6406,763.9004 Q447.6406,763.5254 447.9063,763.291 Q448.1719,763.0566 448.7813,763.0566 L453.9219,763.0566 Q454.5313,763.0566 454.7969,763.291 Q455.0625,763.5254 455.0625,763.9004 Q455.0625,764.291 454.7969,764.5254 Q454.5313,764.7598 453.9219,764.7598 L452.2031,764.7598 Z " fill="#000000"/><ellipse cx="476.75" cy="767.6191" fill="#84BE84" rx="3" ry="3" style="stroke:#038048;stroke-width:1.0;"/><text fill="#000000" font-family="sans-serif" font-size="14" font-style="italic" lengthAdjust="spacing" textLength="194" x="482.75" y="773.916">CalypsoCaCertificateSignerSpi</text><line style="stroke:#E74C3C;stroke-width:2.0;" x1="327.5" x2="788.5" y1="784.1191" y2="784.1191"/><line style="stroke:#E74C3C;stroke-width:2.0;" x1="327.5" x2="788.5" y1="792.1191" y2="792.1191"/><ellipse cx="337.5" cy="806.9297" fill="#84BE84" rx="3" ry="3" style="stroke:#038048;stroke-width:1.0;"/><text fill="#000000" font-family="sans-serif" font-size="14" lengthAdjust="spacing" textLength="239" x="346.5" y="811.2266">byte[] getIssuerPublicKeyReference ()</text><ellipse cx="337.5" cy="825.5508" fill="#84BE84" rx="3" ry="3" style="stroke:#038048;stroke-width:1.0;"/><text fill="#000000" font-family="sans-serif" font-size="14" lengthAdjust="spacing" textLength="437" x="346.5" y="829.8477">byte[] generateSignedCertificate (byte[] data, byte[] recoverableData)</text></g><!--class CalypsoCardCertificateV1Builder--><g id="elem_CalypsoCardCertificateV1Builder"><rect codeLine="95" fill="#EBF5FB" height="271.4531" id="CalypsoCardCertificateV1Builder" rx="2.5" ry="2.5" style="stroke:#3498DB;stroke-width:2.0;" width="781" x="870.5" y="379.1191"/><ellipse cx="1147.75" cy="395.1191" fill="#B4A7E5" rx="11" ry="11" style="stroke:#181818;stroke-width:1.0;"/><path d="M1148.7031,391.7598 L1148.7031,398.416 L1150.4219,398.416 Q1151.0313,398.416 1151.2969,398.6504 Q1151.5625,398.8848 1151.5625,399.2754 Q1151.5625,399.6504 1151.2969,399.8848 Q1151.0313,400.1191 1150.4219,400.1191 L1145.2813,400.1191 Q1144.6719,400.1191 1144.4063,399.8848 Q1144.1406,399.6504 1144.1406,399.2598 Q1144.1406,398.8848 1144.4063,398.6504 Q1144.6719,398.416 1145.2813,398.416 L1147,398.416 L1147,391.7598 L1145.2813,391.7598 Q1144.6719,391.7598 1144.4063,391.5254 Q1144.1406,391.291 1144.1406,390.9004 Q1144.1406,390.5254 1144.4063,390.291 Q1144.6719,390.0566 1145.2813,390.0566 L1150.4219,390.0566 Q1151.0313,390.0566 1151.2969,390.291 Q1151.5625,390.5254 1151.5625,390.9004 Q1151.5625,391.291 1151.2969,391.5254 Q1151.0313,391.7598 1150.4219,391.7598 L1148.7031,391.7598 Z " fill="#000000"/><ellipse cx="1173.25" cy="394.6191" fill="#84BE84" rx="3" ry="3" style="stroke:#038048;stroke-width:1.0;"/><text fill="#000000" font-family="sans-serif" font-size="14" font-style="italic" lengthAdjust="spacing" textLength="207" x="1179.25" y="400.916">CalypsoCardCertificateV1Builder</text><line style="stroke:#3498DB;stroke-width:2.0;" x1="871.5" x2="1650.5" y1="411.1191" y2="411.1191"/><line style="stroke:#3498DB;stroke-width:2.0;" x1="871.5" x2="1650.5" y1="419.1191" y2="419.1191"/><ellipse cx="881.5" cy="433.9297" fill="#84BE84" rx="3" ry="3" style="stroke:#038048;stroke-width:1.0;"/><text fill="#000000" font-family="sans-serif" font-size="14" lengthAdjust="spacing" textLength="684" x="890.5" y="438.2266">CalypsoCardCertificateV1Builder useExternalSigner (CalypsoCardCertificateSignerSpi cardCertificateSigner)</text><ellipse cx="881.5" cy="452.5508" fill="#84BE84" rx="3" ry="3" style="stroke:#038048;stroke-width:1.0;"/><text fill="#000000" font-family="sans-serif" font-size="14" lengthAdjust="spacing" textLength="331" x="890.5" y="456.8477">CalypsoCardCertificateV1Builder useInternalSigner (</text><text fill="#000000" filter="url(#bosiifhedg2l21)" font-family="sans-serif" font-size="14" lengthAdjust="spacing" textLength="96" x="1221.5" y="456.8477">RSAPrivateKey</text><text fill="#000000" font-family="sans-serif" font-size="14" lengthAdjust="spacing" textLength="324" x="1321.5" y="456.8477">issuerPrivateKey, byte[] issuerPublicKeyReference)</text><text fill="#000000" font-family="sans-serif" font-size="14" lengthAdjust="spacing" textLength="4" x="890.5" y="475.4688">&#160;</text><ellipse cx="881.5" cy="489.793" fill="#84BE84" rx="3" ry="3" style="stroke:#038048;stroke-width:1.0;"/><text fill="#000000" font-family="sans-serif" font-size="14" lengthAdjust="spacing" textLength="466" x="890.5" y="494.0898">CalypsoCardCertificateV1Builder setCardPublicKey (byte[] cardPublicKey)</text><ellipse cx="881.5" cy="508.4141" fill="#84BE84" rx="3" ry="3" style="stroke:#038048;stroke-width:1.0;"/><text fill="#000000" font-family="sans-serif" font-size="14" lengthAdjust="spacing" textLength="467" x="890.5" y="512.7109">CalypsoCardCertificateV1Builder setStartDate (int year, int month, int day)</text><ellipse cx="881.5" cy="527.0352" fill="#84BE84" rx="3" ry="3" style="stroke:#038048;stroke-width:1.0;"/><text fill="#000000" font-family="sans-serif" font-size="14" lengthAdjust="spacing" textLength="462" x="890.5" y="531.332">CalypsoCardCertificateV1Builder setEndDate (int year, int month, int day)</text><ellipse cx="881.5" cy="545.6563" fill="#84BE84" rx="3" ry="3" style="stroke:#038048;stroke-width:1.0;"/><text fill="#000000" font-family="sans-serif" font-size="14" lengthAdjust="spacing" textLength="322" x="890.5" y="549.9531">CalypsoCardCertificateV1Builder setAid (byte[] aid)</text><ellipse cx="881.5" cy="564.2773" fill="#84BE84" rx="3" ry="3" style="stroke:#038048;stroke-width:1.0;"/><text fill="#000000" font-family="sans-serif" font-size="14" lengthAdjust="spacing" textLength="482" x="890.5" y="568.5742">CalypsoCardCertificateV1Builder setCardSerialNumber (byte[] serialNumber)</text><ellipse cx="881.5" cy="582.8984" fill="#84BE84" rx="3" ry="3" style="stroke:#038048;stroke-width:1.0;"/><text fill="#000000" font-family="sans-serif" font-size="14" lengthAdjust="spacing" textLength="450" x="890.5" y="587.1953">CalypsoCardCertificateV1Builder setCardStartupInfo (byte[] startupInfo)</text><ellipse cx="881.5" cy="601.5195" fill="#84BE84" rx="3" ry="3" style="stroke:#038048;stroke-width:1.0;"/><text fill="#000000" font-family="sans-serif" font-size="14" lengthAdjust="spacing" textLength="329" x="890.5" y="605.8164">CalypsoCardCertificateV1Builder setIndex (int index)</text><text fill="#000000" font-family="sans-serif" font-size="14" lengthAdjust="spacing" textLength="4" x="890.5" y="624.4375">&#160;</text><ellipse cx="881.5" cy="638.7617" fill="#84BE84" rx="3" ry="3" style="stroke:#038048;stroke-width:1.0;"/><text fill="#000000" font-family="sans-serif" font-size="14" lengthAdjust="spacing" textLength="211" x="890.5" y="643.0586">CalypsoCardCertificateV1 build ()</text></g><!--class CalypsoCardCertificateV1--><g id="elem_CalypsoCardCertificateV1"><rect codeLine="109" fill="#FEFECE" height="81.8633" id="CalypsoCardCertificateV1" rx="2.5" ry="2.5" style="stroke:#D4AC0D;stroke-width:2.0;" width="206" x="870" y="753.6191"/><ellipse cx="885" cy="777.2402" fill="#B4A7E5" rx="11" ry="11" style="stroke:#181818;stroke-width:1.0;"/><path d="M885.9531,773.8809 L885.9531,780.5371 L887.6719,780.5371 Q888.2813,780.5371 888.5469,780.7715 Q888.8125,781.0059 888.8125,781.3965 Q888.8125,781.7715 888.5469,782.0059 Q888.2813,782.2402 887.6719,782.2402 L882.5313,782.2402 Q881.9219,782.2402 881.6563,782.0059 Q881.3906,781.7715 881.3906,781.3809 Q881.3906,781.0059 881.6563,780.7715 Q881.9219,780.5371 882.5313,780.5371 L884.25,780.5371 L884.25,773.8809 L882.5313,773.8809 Q881.9219,773.8809 881.6563,773.6465 Q881.3906,773.4121 881.3906,773.0215 Q881.3906,772.6465 881.6563,772.4121 Q881.9219,772.1777 882.5313,772.1777 L887.6719,772.1777 Q888.2813,772.1777 888.5469,772.4121 Q888.8125,772.6465 888.8125,773.0215 Q888.8125,773.4121 888.5469,773.6465 Q888.2813,773.8809 887.6719,773.8809 L885.9531,773.8809 Z " fill="#000000"/><ellipse cx="904" cy="776.7402" fill="#84BE84" rx="3" ry="3" style="stroke:#038048;stroke-width:1.0;"/><text fill="#000000" font-family="sans-serif" font-size="14" font-style="italic" lengthAdjust="spacing" textLength="16" x="928" y="773.7266">&lt;&lt;</text><text fill="#000000" filter="url(#bosiifhedg2l20)" font-family="sans-serif" font-size="14" font-style="italic" lengthAdjust="spacing" textLength="95" x="944" y="773.7266">CardCertificate</text><text fill="#000000" font-family="sans-serif" font-size="14" font-style="italic" lengthAdjust="spacing" textLength="16" x="1039" y="773.7266">&gt;&gt;</text><text fill="#000000" font-family="sans-serif" font-size="14" font-style="italic" lengthAdjust="spacing" textLength="163" x="910" y="792.3477">CalypsoCardCertificateV1</text><line style="stroke:#D4AC0D;stroke-width:2.0;" x1="871" x2="1075" y1="800.8613" y2="800.8613"/><line style="stroke:#D4AC0D;stroke-width:2.0;" x1="871" x2="1075" y1="808.8613" y2="808.8613"/><ellipse cx="881" cy="823.6719" fill="#84BE84" rx="3" ry="3" style="stroke:#038048;stroke-width:1.0;"/><text fill="#000000" font-family="sans-serif" font-size="14" lengthAdjust="spacing" textLength="130" x="890" y="827.9688">byte[] getRawData ()</text></g><!--class CalypsoCardCertificateSignerSpi--><g id="elem_CalypsoCardCertificateSignerSpi"><rect codeLine="113" fill="#FDEDEC" height="85.2422" id="CalypsoCardCertificateSignerSpi" rx="2.5" ry="2.5" style="stroke:#E74C3C;stroke-width:2.0;" width="463" x="1111.5" y="752.1191"/><ellipse cx="1229.75" cy="768.1191" fill="#B4A7E5" rx="11" ry="11" style="stroke:#181818;stroke-width:1.0;"/><path d="M1230.7031,764.7598 L1230.7031,771.416 L1232.4219,771.416 Q1233.0313,771.416 1233.2969,771.6504 Q1233.5625,771.8848 1233.5625,772.2754 Q1233.5625,772.6504 1233.2969,772.8848 Q1233.0313,773.1191 1232.4219,773.1191 L1227.2813,773.1191 Q1226.6719,773.1191 1226.4063,772.8848 Q1226.1406,772.6504 1226.1406,772.2598 Q1226.1406,771.8848 1226.4063,771.6504 Q1226.6719,771.416 1227.2813,771.416 L1229,771.416 L1229,764.7598 L1227.2813,764.7598 Q1226.6719,764.7598 1226.4063,764.5254 Q1226.1406,764.291 1226.1406,763.9004 Q1226.1406,763.5254 1226.4063,763.291 Q1226.6719,763.0566 1227.2813,763.0566 L1232.4219,763.0566 Q1233.0313,763.0566 1233.2969,763.291 Q1233.5625,763.5254 1233.5625,763.9004 Q1233.5625,764.291 1233.2969,764.5254 Q1233.0313,764.7598 1232.4219,764.7598 L1230.7031,764.7598 Z " fill="#000000"/><ellipse cx="1255.25" cy="767.6191" fill="#84BE84" rx="3" ry="3" style="stroke:#038048;stroke-width:1.0;"/><text fill="#000000" font-family="sans-serif" font-size="14" font-style="italic" lengthAdjust="spacing" textLength="207" x="1261.25" y="773.916">CalypsoCardCertificateSignerSpi</text><line style="stroke:#E74C3C;stroke-width:2.0;" x1="1112.5" x2="1573.5" y1="784.1191" y2="784.1191"/><line style="stroke:#E74C3C;stroke-width:2.0;" x1="1112.5" x2="1573.5" y1="792.1191" y2="792.1191"/><ellipse cx="1122.5" cy="806.9297" fill="#84BE84" rx="3" ry="3" style="stroke:#038048;stroke-width:1.0;"/><text fill="#000000" font-family="sans-serif" font-size="14" lengthAdjust="spacing" textLength="239" x="1131.5" y="811.2266">byte[] getIssuerPublicKeyReference ()</text><ellipse cx="1122.5" cy="825.5508" fill="#84BE84" rx="3" ry="3" style="stroke:#038048;stroke-width:1.0;"/><text fill="#000000" font-family="sans-serif" font-size="14" lengthAdjust="spacing" textLength="437" x="1131.5" y="829.8477">byte[] generateSignedCertificate (byte[] data, byte[] recoverableData)</text></g><!--link CalypsoCertificateApiFactory to CalypsoCaCertificateV1Builder--><g id="link_CalypsoCertificateApiFactory_CalypsoCaCertificateV1Builder"><path codeLine="127" d="M646.824,277.2381 C621.746,304.5791 591.4578,337.5985 557.4978,374.6215 " fill="none" id="CalypsoCertificateApiFactory-to-CalypsoCaCertificateV1Builder" style="stroke:#3498DB;stroke-width:2.0;stroke-dasharray:7.0,7.0;"/><polygon fill="#3498DB" points="553.442,379.0431,562.4734,375.1146,556.8218,375.3585,556.578,369.7069,553.442,379.0431" style="stroke:#3498DB;stroke-width:2.0;"/><polygon fill="#000000" points="618.6202,320.4493,626.9001,315.7703,622.5685,311.7971,618.6202,320.4493" style="stroke:#000000;stroke-width:1.0;"/><text fill="#000000" font-family="sans-serif" font-size="13" lengthAdjust="spacing" textLength="40" x="631" y="322.1475">provide</text></g><!--link CalypsoCertificateApiFactory to CalypsoCardCertificateV1Builder--><g id="link_CalypsoCertificateApiFactory_CalypsoCardCertificateV1Builder"><path codeLine="128" d="M771.233,277.2381 C827.881,304.5791 900.0534,339.4122 976.7624,376.4352 " fill="none" id="CalypsoCertificateApiFactory-to-CalypsoCardCertificateV1Builder" style="stroke:#3498DB;stroke-width:2.0;stroke-dasharray:7.0,7.0;"/><polygon fill="#3498DB" points="982.166,379.0431,975.7993,371.5288,977.663,376.8698,972.322,378.7335,982.166,379.0431" style="stroke:#3498DB;stroke-width:2.0;"/><polygon fill="#000000" points="881.503,318.938,874.6345,312.3596,872.0796,317.6532,881.503,318.938" style="stroke:#000000;stroke-width:1.0;"/><text fill="#000000" font-family="sans-serif" font-size="13" lengthAdjust="spacing" textLength="40" x="886" y="322.1475">provide</text></g><!--link CalypsoCaCertificateV1Builder to CalypsoCaCertificateSignerSpi--><g id="link_CalypsoCaCertificateV1Builder_CalypsoCaCertificateSignerSpi"><path codeLine="130" d="M491.938,650.1401 C508.976,687.1451 523.6995,719.1231 536.2915,746.4701 " fill="none" id="CalypsoCaCertificateV1Builder-to-CalypsoCaCertificateSignerSpi" style="stroke:#27AE60;stroke-width:2.0;stroke-dasharray:7.0,7.0;"/><polygon fill="#27AE60" points="538.801,751.9201,538.6701,742.0722,536.7098,747.3785,531.4035,745.4181,538.801,751.9201" style="stroke:#27AE60;stroke-width:2.0;"/><polygon fill="#000000" points="520.0912,694.3064,518.9778,684.8612,513.6387,687.3195,520.0912,694.3064" style="stroke:#000000;stroke-width:1.0;"/><text fill="#000000" font-family="sans-serif" font-size="13" lengthAdjust="spacing" textLength="21" x="527" y="695.1475">use</text></g><!--link CalypsoCaCertificateV1Builder to CalypsoCaCertificateV1--><g id="link_CalypsoCaCertificateV1Builder_CalypsoCaCertificateV1"><path codeLine="131" d="M316.286,650.1401 C284.419,687.8381 256.0544,721.393 232.8324,748.864 " fill="none" id="CalypsoCaCertificateV1Builder-to-CalypsoCaCertificateV1" style="stroke:#3498DB;stroke-width:2.0;stroke-dasharray:7.0,7.0;"/><polygon fill="#3498DB" points="228.959,753.4461,237.824,749.1552,232.1869,749.6277,231.7144,743.9906,228.959,753.4461" style="stroke:#3498DB;stroke-width:2.0;"/><polygon fill="#000000" points="286.7721,693.5831,294.8559,688.5727,290.3669,684.7781,286.7721,693.5831" style="stroke:#000000;stroke-width:1.0;"/><text fill="#000000" font-family="sans-serif" font-size="13" lengthAdjust="spacing" textLength="40" x="299" y="695.1475">provide</text></g><!--link CalypsoCardCertificateV1Builder to CalypsoCardCertificateSignerSpi--><g id="link_CalypsoCardCertificateV1Builder_CalypsoCardCertificateSignerSpi"><path codeLine="133" d="M1300.68,650.1401 C1311.59,687.1451 1320.9318,718.8185 1329.0018,746.1655 " fill="none" id="CalypsoCardCertificateV1Builder-to-CalypsoCardCertificateSignerSpi" style="stroke:#27AE60;stroke-width:2.0;stroke-dasharray:7.0,7.0;"/><polygon fill="#27AE60" points="1330.7,751.9201,1331.9892,742.156,1329.2848,747.1246,1324.3163,744.4203,1330.7,751.9201" style="stroke:#27AE60;stroke-width:2.0;"/><polygon fill="#000000" points="1320.4145,694.5604,1320.6745,685.0534,1315.0368,686.7162,1320.4145,694.5604" style="stroke:#000000;stroke-width:1.0;"/><text fill="#000000" font-family="sans-serif" font-size="13" lengthAdjust="spacing" textLength="21" x="1328" y="695.1475">use</text></g><!--link CalypsoCardCertificateV1Builder to CalypsoCardCertificateV1--><g id="link_CalypsoCardCertificateV1Builder_CalypsoCardCertificateV1"><path codeLine="134" d="M1121.64,650.1401 C1082.59,687.8381 1047.397,721.8082 1018.937,749.2792 " fill="none" id="CalypsoCardCertificateV1Builder-to-CalypsoCardCertificateV1" style="stroke:#3498DB;stroke-width:2.0;stroke-dasharray:7.0,7.0;"/><polygon fill="#3498DB" points="1014.62,753.4461,1023.8735,750.0737,1018.2175,749.9737,1018.3175,744.3177,1014.62,753.4461" style="stroke:#3498DB;stroke-width:2.0;"/><polygon fill="#000000" points="1083.4026,693.2372,1091.9515,689.0698,1087.8692,684.8408,1083.4026,693.2372" style="stroke:#000000;stroke-width:1.0;"/><text fill="#000000" font-family="sans-serif" font-size="13" lengthAdjust="spacing" textLength="40" x="1096" y="695.1475">provide</text></g><!--link CalypsoCaCertificateSignerSpi to CertificateSigningException--><g id="link_CalypsoCaCertificateSignerSpi_CertificateSigningException"><path codeLine="136" d="M641.613,837.3191 C703.111,867.9891 781.5357,907.1013 846.2567,939.3793 " fill="none" id="CalypsoCaCertificateSignerSpi-to-CertificateSigningException" style="stroke:#2C3E50;stroke-width:2.0;stroke-dasharray:7.0,7.0;"/><polygon fill="#2C3E50" points="851.626,942.0571,845.3573,934.4609,847.1516,939.8256,841.7868,941.62,851.626,942.0571" style="stroke:#2C3E50;stroke-width:2.0;"/><polygon fill="#000000" points="799.4744,904.9961,792.6918,898.3293,790.0685,903.5893,799.4744,904.9961" style="stroke:#000000;stroke-width:1.0;"/><text fill="#000000" font-family="sans-serif" font-size="13" lengthAdjust="spacing" textLength="31" x="804" y="908.1475">throw</text></g><!--link CalypsoCardCertificateSignerSpi to CertificateSigningException--><g id="link_CalypsoCardCertificateSignerSpi_CertificateSigningException"><path codeLine="137" d="M1259.17,837.3191 C1197.52,867.9891 1118.8819,907.1066 1054.0019,939.3846 " fill="none" id="CalypsoCardCertificateSignerSpi-to-CertificateSigningException" style="stroke:#2C3E50;stroke-width:2.0;stroke-dasharray:7.0,7.0;"/><polygon fill="#2C3E50" points="1048.63,942.0571,1058.4696,941.6296,1053.1066,939.83,1054.9062,934.467,1048.63,942.0571" style="stroke:#2C3E50;stroke-width:2.0;"/><polygon fill="#000000" points="1146.5233,904.9917,1155.9307,903.5943,1153.3127,898.3316,1146.5233,904.9917" style="stroke:#000000;stroke-width:1.0;"/><text fill="#000000" font-family="sans-serif" font-size="13" lengthAdjust="spacing" textLength="31" x="1160" y="908.1475">throw</text></g><!--SRC=[rLXjRzew5FxEh_1jFwomGLjAnueOKaYS3MrhAs2xgdQdoYG6l8OaiftIQEf_ltRU0qc0RjBLvLCuEUTvZe-F7yVcX5ku1iHlYkcAsCW2Ah9ybpb0nPIJEJ4Gnq2v7O6prddhDJXfdxKxpRDsy_njlOPj4_00eVOAl7yFfX_X5oWUn5_LyIpiKGO8OnvcmCIW1vQSkwntUhhaAyjmB8SQZebPot1MftDwoj7CmiXhchXfXD459l78oC9kkXRYfxM_J3mdDWRg_OSnl3i7-ZlzIh_QCBU1tjOlzCw6-GB0IzY5czuTe7MreQPjc2-1ggYwrjumlmL3JRrGkndpvz7r9t3HkNgd3JFMhnC8sbq5lZtB6ASVnpT_WxPw0I_FP0cRJJ3XlYNAnPU80zEnNt6mTkW3M1E-13PUWqTC6N5iuCo1A87DlPKbmchiWTWkecW56CSKEzntiJ9qg8cfAWiDZfKhJTNqGiTHpd7OKRhmij1HpIDgslcmNUW8SuvmU7KXg8FnmMjDvfk9KYt4MEW_NHBZmSQCWIoiGgcpphuII7VOifpr5Weo7XRKyMmpOjQX3bLOJ1QvQ1r5FTC4v1YRE_3wVOhDmK30Qb23QWLiuWcx7T4UjIKH_HyRqp89rbkFkcBzx29s0xU0kmDLlLl9dJg_WvsEeiNqYJsNmSpoTlDBfs0yG_rI7rQonwxH4eYu8skE-GF5sDv9lP1U0VULteLw9NVY6osrY3msRxBx-v3x0RSY-WZkuWvSe-MSKljvvb0grPlhARoU1c9fuKMWf8uRAF7zVO38G6Y_lmUzmDuGR-2J098gBHMPuhb0jGtCKfy6wC_487ekiHy6ZSOdxBkEcsewegOCRJJwfz9ja0_oWrKr-8aUKOjXmwE4-x6Zp31Cg5PpXGKjC3WoGjoMaUuLHm0nW5m2VWNOhmrPA73KQCpbxYAeebmosulYablgkDA0MH2VisGcCCGCS7ynZZWnda6AFE6Ks0lm3OudevlhmFKvJ8BOecnpPE1YTXqPtA5-sgOPdZW0PKA-dGyzOecf1mR5ud-rpqcz08sQXRwRW2Lk4MGukini1CKpK3R_xQ4NPramzZt6xp4Sj-H4RCiojQA0yDr4T8MnRQuVI3YoyuIvtXrFb5jA7aMCQFseTyDl49hQtu2Pp_7t7_4BRsOHGzZ7yOAgrmx9YM6keWIa8A7uLPoFaNedgMHicJGEosB24UMQ_60x4TCEV8pe6o2VLexDb-6ZYVn3OQ5j_dbGXPZW91ex8cRzu8AFoMB9MOWXgXV-FHncOWYTIL22VuU3t0Yf4cfaBxw83ze4B6VThwN0JC9c9UEvQ2aVzViPcSzXH3qs6FnZ5rC46b72lh7se-bPO3v6Qz42g3YnH82OIo85cYGRm9v2b2f4_9cK3z_8PrIoSBC9ReVPSZv2ggok9dreYY4c2v9Ymn5Vs_848eUUnttUACEM4bCpgeJOSAlLk4JYT-fnILoL8kT2iffSyA9-CEr_gSibMGMBavePRKxKDcEj7mpwcq9R3lnRKbiEkwVOLbTnWYb1rhMtcidPZT1OnlX2M5bBpntPSoT5JMs7Wuvi4p-55IJoST-cUQ7svb2Ar7U39g-_cpdyCGKMXTrBWqiquN-iml6Hez-7JmPsEN5iEH-P4qX-m6A3JXp3oIb_NtmMgGeuYKubAyoOcABwYwBUWEcIEcjP1J6rGclZx_zdUPnK67CCWcGWgzKgJpYjrc37EU0uki7g0PSwZ_8GEpW0icHL5e7MglCeopHjqUFmLgqdzvvCaeV1YILNdLp9YCf7lJl1Wo5t9bb87-1LzDXnV07P0rnsLscAlmKPNdTyLkvklawZg-6gRcf-NnBJnFQFPdMVlW2ckEnHWfFftUVmwZhMKXJEO7Yn_EivQs-98_PnVBcyzQeLVluUnzVCMmxYax0ycfgjMBop2Fy2]--></g></svg>